<svg width="65" height="89" viewBox="0 0 65 89" fill="none" xmlns="http://www.w3.org/2000/svg">
<path d="M39.7565 33.0047C39.7565 28.8388 36.362 25.4443 32.1961 25.4443C28.0301 25.4443 24.6356 28.8388 24.6356 33.0047C24.6356 37.1707 28.0301 40.5652 32.1961 40.5652C36.362 40.5652 39.7565 37.1707 39.7565 33.0047ZM27.2072 33.0047C27.2072 30.2617 29.4359 28.0159 32.1961 28.0159C34.9562 28.0159 37.185 30.2446 37.185 33.0047C37.185 35.7478 34.9562 37.9936 32.1961 37.9936C29.4359 37.9936 27.2072 35.7478 27.2072 33.0047Z" fill="#185908"/>
<path d="M61.7009 27.0388L59.1464 26.3188C58.4607 26.1302 57.7578 26.5245 57.5692 27.2102C57.3806 27.896 57.7749 28.5989 58.4607 28.7875L61.0151 29.5075C61.5123 29.6447 61.8552 30.1076 61.8552 30.6219V35.3879C61.8552 35.9022 61.5123 36.3479 61.0151 36.5022L55.7005 37.9938C54.5347 38.3195 53.5918 39.1938 53.1975 40.3425C52.9232 41.1311 52.5975 41.9026 52.2375 42.6569C51.706 43.7541 51.7574 45.0399 52.3403 46.0857L55.0491 50.9031C55.3062 51.3488 55.2205 51.9146 54.8605 52.2746L51.466 55.652C51.106 56.012 50.5402 56.0977 50.0945 55.8405L45.277 53.1318C44.2484 52.5489 42.2426 52.3603 41.3168 53.269C39.6024 54.0404 37.7509 54.4347 37.1851 56.492L35.6936 61.8066C35.5564 62.3038 35.0936 62.6467 34.5792 62.6467H29.8132C29.2989 62.6467 28.8532 62.3038 28.6989 61.8066L27.2074 56.492C26.6759 54.589 25.0644 54.1262 23.4529 53.4404V48.7601C23.7786 48.6915 24.0872 48.4858 24.2758 48.1772C24.6529 47.5772 24.4643 46.7886 23.8643 46.4114C19.2012 43.5141 16.4239 38.4909 16.4239 33.0049C16.4239 24.3129 23.5043 17.2325 32.1962 17.2325C40.8882 17.2325 47.9686 24.3129 47.9686 33.0049C47.9686 41.6968 40.8882 48.7773 32.1962 48.7773C31.2019 48.7773 30.1904 48.6744 29.2132 48.503C28.5103 48.3658 27.8417 48.8287 27.7045 49.5316C27.5674 50.2345 28.0303 50.9031 28.7332 51.0403C29.8647 51.2631 31.0305 51.366 32.1962 51.366C42.3111 51.366 50.5402 43.1369 50.5402 33.022C50.5402 22.9071 42.3111 14.6781 32.1962 14.6781C22.0813 14.6781 13.8523 22.9071 13.8523 33.022C13.8523 38.7309 16.441 43.9941 20.8813 47.4572V52.6689C20.2641 52.6689 19.6641 52.8404 19.1154 53.149L14.298 55.8577C13.8523 56.1149 13.2865 56.0291 12.9265 55.6691L9.54915 52.2918C9.18913 51.9317 9.10341 51.366 9.36057 50.9202L12.0693 46.1028C12.6693 45.0399 12.7036 43.7541 12.1722 42.674C11.8121 41.9197 11.4864 41.1482 11.2121 40.3596C10.8178 39.211 9.87489 38.3366 8.7091 38.0109L3.39449 36.5194C2.89732 36.3822 2.55444 35.9193 2.55444 35.405V30.6219C2.55444 30.1076 2.89732 29.6618 3.39449 29.5075L8.7091 28.016C9.87489 27.6903 10.8178 26.8159 11.2121 25.6673C11.4864 24.8787 11.8121 24.1072 12.1722 23.3529C12.7036 22.2557 12.6522 20.9699 12.0693 19.9241L9.36057 15.1067C9.10341 14.6609 9.18913 14.0952 9.54915 13.7351L12.9265 10.3578C13.2865 9.99778 13.8523 9.91206 14.298 10.1692L19.1154 12.8779C20.1784 13.478 21.4642 13.5123 22.5442 12.9808C23.2986 12.6208 24.07 12.2951 24.8587 12.0208C26.0073 11.6264 26.8816 10.6835 27.2074 9.51775L28.6989 4.20314C28.836 3.70597 29.2989 3.36309 29.8132 3.36309H34.5792C35.0936 3.36309 35.5393 3.70597 35.6936 4.20314L37.1851 9.51775C37.5108 10.6835 38.3852 11.6264 39.5338 12.0208C40.3224 12.2951 41.0939 12.6208 41.8483 12.9808C42.9455 13.5123 44.2313 13.4608 45.277 12.8779L50.0945 10.1692C50.5402 9.91206 51.106 9.99778 51.466 10.3578L54.8433 13.7351C55.2034 14.0952 55.2891 14.6609 55.0319 15.1067L52.3232 19.9241C51.7231 20.987 51.6888 22.2728 52.2203 23.3529C52.4946 23.9015 52.7346 24.4844 52.9575 25.0501C53.2147 25.7187 53.9518 26.0445 54.6205 25.7873C55.2891 25.5301 55.6148 24.793 55.3577 24.1243C55.1176 23.49 54.8433 22.8557 54.5347 22.2385C54.3804 21.8956 54.3804 21.5013 54.569 21.1756L57.2778 16.3582C58.0835 14.9181 57.8435 13.0837 56.6606 11.9007L53.2832 8.54054C52.1174 7.37476 50.2831 7.1176 48.8258 7.92336L44.0084 10.6321C43.6827 10.8207 43.2883 10.8207 42.9455 10.6664C42.1054 10.2721 41.2482 9.91206 40.3739 9.60347C40.0139 9.48346 39.7567 9.19201 39.6538 8.83199L38.1623 3.51738C37.7166 1.90586 36.2422 0.791504 34.5792 0.791504H29.8132C28.1503 0.791504 26.6759 1.90586 26.2302 3.50024L24.7386 8.81485C24.6358 9.17487 24.3615 9.46631 24.0186 9.58632C23.1443 9.89491 22.2699 10.2549 21.447 10.6492C21.1041 10.8035 20.7098 10.8035 20.3841 10.615L15.5667 7.90622C14.1266 7.10046 12.2922 7.34047 11.1092 8.5234L7.7319 11.9007C6.56611 13.0665 6.30895 14.9009 7.11472 16.3582L9.82345 21.1756C10.012 21.5013 10.012 21.8956 9.85774 22.2385C9.46343 23.0786 9.10341 23.9358 8.79482 24.8101C8.67481 25.1701 8.38337 25.4273 8.02334 25.5301L2.70874 27.0217C1.11435 27.4674 0 28.9418 0 30.6047V35.3707C0 37.0337 1.11435 38.5081 2.70874 38.9538L8.02334 40.4453C8.38337 40.5482 8.67481 40.8225 8.79482 41.1654C9.10341 42.0397 9.46343 42.9141 9.85774 43.737C10.012 44.0798 10.012 44.4742 9.82345 44.7999L7.11472 49.6516C6.30895 51.0917 6.54897 52.9261 7.7319 54.109L11.1092 57.4864C12.2922 58.6521 14.1094 58.9093 15.5667 58.1035L20.3841 55.3948C20.5384 55.3091 20.7098 55.2577 20.8984 55.2577V68.4413H12.4979C11.9836 67.1212 10.6978 66.1783 9.18913 66.1783C7.23473 66.1783 5.64034 67.7727 5.64034 69.7271C5.64034 71.6815 7.23473 73.2759 9.18913 73.2759C10.6978 73.2759 11.9664 72.333 12.4979 71.0129H22.1842C22.8871 71.0129 23.47 70.43 23.47 69.7271V56.2349C24.0015 56.4406 24.5672 56.5777 24.7558 57.2121L26.2473 62.5267C26.4873 63.3839 27.0188 64.0868 27.7045 64.5668V76.9447H19.304C18.7897 75.6246 17.5039 74.6817 15.9953 74.6817C14.0409 74.6817 12.4465 76.2761 12.4465 78.2305C12.4465 80.1849 14.0409 81.7793 15.9953 81.7793C17.5039 81.7793 18.7726 80.8363 19.304 79.5163H28.9903C29.6932 79.5163 30.2761 78.9334 30.2761 78.2305V65.2354H34.1506V85.0366C34.1506 85.7395 34.7335 86.3224 35.4364 86.3224H45.1227C45.6371 87.6425 46.9228 88.5854 48.4315 88.5854C50.3859 88.5854 51.9803 86.991 51.9803 85.0366C51.9803 83.0822 50.3859 81.4878 48.4315 81.4878C46.9228 81.4878 45.6542 82.4307 45.1227 83.7508H36.7222V64.5496C37.408 64.0696 37.9394 63.3496 38.1795 62.5095L39.671 57.1949C39.8424 56.5606 40.4082 56.4234 40.9568 56.2177V76.5161C40.9568 77.219 41.5397 77.8019 42.2426 77.8019H51.9289C52.4432 79.122 53.729 80.0649 55.2376 80.0649C57.192 80.0649 58.7864 78.4705 58.7864 76.5161C58.7864 74.5617 57.192 72.9673 55.2376 72.9673C53.729 72.9673 52.4603 73.9102 51.9289 75.2303H43.5284V55.2405C43.6998 55.2405 43.8884 55.2919 44.0427 55.3777L48.8601 58.0864C50.3002 58.8922 52.1346 58.6521 53.3175 57.4692L56.6949 54.0919C57.8778 52.9089 58.1178 51.0917 57.312 49.6345L54.6033 44.817C54.4147 44.4913 54.4147 44.097 54.569 43.7541C54.9805 42.9141 55.3234 42.0569 55.6319 41.1825C55.752 40.8225 56.0434 40.5653 56.4034 40.4625L61.718 38.971C63.3124 38.5252 64.4268 37.0508 64.4268 35.3879V30.6219C64.4096 28.9589 63.2953 27.4845 61.7009 27.0388ZM9.18913 70.67C8.65767 70.67 8.21193 70.2414 8.21193 69.6928C8.21193 69.1442 8.64053 68.7156 9.18913 68.7156C9.73773 68.7156 10.1663 69.1442 10.1663 69.6928C10.1663 70.2414 9.72059 70.67 9.18913 70.67ZM15.9953 79.1905C15.4638 79.1905 15.0181 78.7619 15.0181 78.2133C15.0181 77.6647 15.4467 77.2361 15.9953 77.2361C16.5439 77.2361 16.9725 77.6647 16.9725 78.2133C16.9725 78.7619 16.5267 79.1905 15.9953 79.1905ZM48.3972 84.0423C48.9287 84.0423 49.3744 84.4709 49.3744 85.0195C49.3744 85.5681 48.9458 85.9967 48.3972 85.9967C47.8486 85.9967 47.42 85.5681 47.42 85.0195C47.42 84.4709 47.8658 84.0423 48.3972 84.0423ZM55.2034 75.5389C55.7348 75.5389 56.1806 75.9675 56.1806 76.5161C56.1806 77.0647 55.752 77.4933 55.2034 77.4933C54.6547 77.4933 54.2261 77.0647 54.2261 76.5161C54.2261 75.9675 54.6719 75.5389 55.2034 75.5389Z" fill="#343534"/>
</svg>
