<svg width="82" height="82" viewBox="0 0 82 82" fill="none" xmlns="http://www.w3.org/2000/svg">
<path d="M35.4736 55.5999C40.4638 55.5999 44.4943 51.5534 44.4943 46.5793C44.4943 41.6051 40.4478 37.5587 35.4736 37.5587C30.4995 37.5587 26.453 41.6051 26.453 46.5793C26.453 51.5534 30.4995 55.5999 35.4736 55.5999ZM35.4736 40.3416C38.9283 40.3416 41.7273 43.1406 41.7273 46.5953C41.7273 50.05 38.9283 52.8489 35.4736 52.8489C32.0189 52.8489 29.22 50.05 29.22 46.5953C29.236 43.1406 32.0189 40.3416 35.4736 40.3416Z" fill="#185908"/>
<path d="M3.48558 38.5661C1.48632 38.934 0.0308681 40.6933 0.0788502 42.7246V50.5776C0.0468621 52.6089 1.48632 54.3682 3.48558 54.7361L11.6105 56.2075C11.6905 56.4314 11.7865 56.6553 11.8824 56.8633L7.1802 63.5168C6.02863 65.1802 6.23655 67.4033 7.66002 68.8268L13.2099 74.3767C14.6334 75.8002 16.8726 75.9921 18.52 74.8565L25.3014 70.1543L25.9572 70.4262L27.4286 78.5512C27.7965 80.5504 29.5558 82.0059 31.5871 81.9579H39.4401C41.4714 81.9899 43.2307 80.5504 43.5986 78.5512L45.07 70.4262L45.7258 70.1543L52.5072 74.8565C54.1706 76.0081 56.3938 75.8002 57.8173 74.3767L62.2796 69.9144C62.8394 69.3866 62.8714 68.5069 62.3276 67.9471C61.7998 67.3873 60.9201 67.3553 60.3603 67.8991L55.834 72.4254C55.3702 72.8893 54.6185 72.9692 54.0747 72.5854L48.5247 68.7308C51.7395 66.8275 54.5065 64.2525 56.6017 61.1657C57.0336 60.5259 56.8576 59.6622 56.2339 59.2304C55.5941 58.7985 54.7304 58.9745 54.2986 59.5982C47.709 69.1947 34.9618 72.3295 24.6777 66.8595C14.3935 61.3896 9.89918 49.1062 14.1536 38.2622C18.408 27.4183 30.1156 21.5005 41.3754 24.5074C41.8552 24.6353 42.367 24.4914 42.7189 24.1395C43.0708 23.7876 43.1987 23.2758 43.0708 22.796C42.9428 22.3162 42.559 21.9483 42.0791 21.8204C37.7928 20.7168 33.2824 20.7168 28.996 21.8204L30.1956 15.1669C30.3235 14.4951 30.8993 14.0153 31.5871 14.0313H36.1933C36.9611 14.0313 37.5848 13.4075 37.5848 12.6398C37.5848 11.8721 36.9611 11.2483 36.1933 11.2483H31.5711C29.5398 11.2163 27.7805 12.6558 27.4126 14.6551L25.9412 22.78L25.2854 23.0519L18.5679 18.2697C16.9046 17.1181 14.6814 17.3261 13.2579 18.7495L7.708 24.2994C6.28453 25.7229 6.0926 27.9621 7.22818 29.6095L11.9304 36.3909C11.8345 36.5988 11.7385 36.8228 11.6585 37.0467L3.48558 38.5661ZM2.86181 50.5136V42.6606C2.84582 41.9888 3.32564 41.397 3.99739 41.2691L10.6349 40.0695C9.53132 44.324 9.53132 48.8023 10.6349 53.0567L3.99739 51.8571C3.34163 51.7452 2.86181 51.1694 2.86181 50.5136ZM41.9672 71.4178L40.7676 78.0553C40.6397 78.7271 40.0639 79.2069 39.3762 79.1909H31.5391C30.8673 79.2069 30.2756 78.7271 30.1476 78.0553L28.9481 71.4178C33.2185 72.5374 37.6968 72.5374 41.9672 71.4178ZM22.5345 68.7468L16.9845 72.5854C16.4407 72.9692 15.689 72.9053 15.2252 72.4254L9.67526 66.8915C9.21144 66.4277 9.13147 65.676 9.51532 65.1322L13.3539 59.5822C15.5771 63.3568 18.7279 66.5237 22.5345 68.7468ZM9.61129 26.2987L15.1612 20.7488C15.625 20.2849 16.3768 20.205 16.9206 20.5888L22.4705 24.4274C18.6639 26.6506 15.4811 29.8334 13.2579 33.6399L9.41936 28.09C9.0355 27.5302 9.11547 26.7785 9.61129 26.2987Z" fill="#343534"/>
<path d="M79.185 0.0847168H43.1025C41.5671 0.0847168 40.3196 1.33225 40.3196 2.86768V15.359C40.3036 16.3506 40.8474 17.2623 41.711 17.7261C42.2708 18.062 42.9266 18.2059 43.5663 18.126C47.5489 28.1062 46.6372 25.7871 48.0447 29.3058C46.7811 29.5777 45.8695 30.6973 45.8695 31.9928V36.1512C45.8695 37.6866 47.117 38.9342 48.6524 38.9342H50.0439V43.0926C50.0439 44.628 51.2914 45.8756 52.8269 45.8756H54.2184V54.2085C54.2184 54.6403 54.4263 55.0561 54.7781 55.312L59.7683 59.0547V63.9168C59.7683 64.6845 60.392 65.3083 61.1598 65.3083C61.9275 65.3083 62.5512 64.6845 62.5512 63.9168V59.0547L67.5414 55.312C67.8932 55.0561 68.1012 54.6403 68.1012 54.2085V45.8756H69.4926C71.0281 45.8756 72.2756 44.628 72.2756 43.0926V38.9342H73.6671C75.2025 38.9342 76.45 37.6866 76.45 36.1512V31.9928C76.45 30.6973 75.5544 29.5937 74.2908 29.3058L78.7692 18.126H79.217C80.7524 18.126 82 16.8784 82 15.343V2.86768C81.968 1.33225 80.7204 0.0847168 79.185 0.0847168ZM65.3182 53.5207L61.1598 56.6396L57.0013 53.5207V45.8916H65.3342V53.5207H65.3182ZM73.6351 36.1672H61.1438C60.3761 36.1672 59.7523 36.791 59.7523 37.5587C59.7523 38.3264 60.3761 38.9502 61.1438 38.9502H69.4766V43.1086H52.8269V38.9502H55.6098C56.3776 38.9502 57.0013 38.3264 57.0013 37.5587C57.0013 36.791 56.3776 36.1672 55.6098 36.1672H48.6684V32.0088H73.6511V36.1672H73.6351ZM71.316 29.2258H51.0036L46.5572 18.126H75.6983L71.316 29.2258ZM79.185 15.359H43.1025V2.86768H79.185V15.359Z" fill="#343534"/>
<path d="M47.2771 8.4176H50.0601C50.8278 8.4176 51.4515 7.79384 51.4515 7.02612C51.4515 6.25841 50.8278 5.63464 50.0601 5.63464H47.2771C46.5094 5.63464 45.8856 6.25841 45.8856 7.02612C45.8856 7.79384 46.5094 8.4176 47.2771 8.4176Z" fill="#185908"/>
<path d="M55.5941 8.4176H75.0268C75.7945 8.4176 76.4183 7.79384 76.4183 7.02612C76.4183 6.25841 75.7945 5.63464 75.0268 5.63464H55.5941C54.8263 5.63464 54.2026 6.25841 54.2026 7.02612C54.2026 7.79384 54.8263 8.4176 55.5941 8.4176Z" fill="#185908"/>
<path d="M27.6845 31.3849C27.3326 30.6972 26.5009 30.4253 25.8292 30.7771C19.9754 33.704 16.7446 39.5578 16.7446 47.283C16.7446 48.0507 17.3683 48.6744 18.136 48.6744C18.9038 48.6744 19.5275 48.0507 19.5275 47.283C19.5275 40.6774 22.1985 35.6873 27.0927 33.2562C27.7485 32.9043 28.0204 32.0726 27.6845 31.3849Z" fill="#185908"/>
<path d="M30.6114 30.6172C31.3799 30.6172 32.0029 29.9942 32.0029 29.2257C32.0029 28.4572 31.3799 27.8342 30.6114 27.8342C29.8429 27.8342 29.2199 28.4572 29.2199 29.2257C29.2199 29.9942 29.8429 30.6172 30.6114 30.6172Z" fill="#185908"/>
</svg>
