<svg width="78" height="78" viewBox="0 0 78 78" fill="none" xmlns="http://www.w3.org/2000/svg">
<path d="M59.2261 40.5991C49.464 40.5991 41.4354 48.1411 40.6599 57.7055H37.1931C36.8737 53.7064 35.2771 50.0723 32.829 47.1832L47.1832 32.829C48.6277 34.0607 50.2395 35.0491 51.9882 35.7941C54.2842 36.7673 56.7171 37.2539 59.2413 37.2539C61.7654 37.2539 64.1983 36.7673 66.4944 35.7941C68.7144 34.8514 70.7063 33.5133 72.4094 31.795C74.1124 30.0768 75.4657 28.0849 76.4085 25.88C77.3816 23.584 77.8682 21.1511 77.8682 18.6269C77.8682 16.3917 77.4729 14.2021 76.6974 12.1189C76.4845 11.5259 75.9067 11.1305 75.268 11.1305C75.0856 11.1305 74.9031 11.161 74.7358 11.2218C74.3557 11.3586 74.0516 11.6475 73.8843 12.0125C73.7171 12.3774 73.7019 12.8032 73.8387 13.1833C74.4926 14.9168 74.8119 16.7566 74.8119 18.6269C74.8119 21.9114 73.7931 25.0437 71.9228 27.6743C70.2198 24.694 67.65 22.4436 64.6241 21.2119C66.4335 19.6761 67.5892 17.3801 67.5892 14.8255C67.5892 10.2182 63.8334 6.46241 59.2261 6.46241C54.6187 6.46241 50.8629 10.2182 50.8629 14.8255C50.8629 17.3801 52.0186 19.6761 53.8281 21.1967C50.8021 22.4284 48.2324 24.6788 46.5293 27.6591C44.659 25.0285 43.6403 21.8962 43.6403 18.6117C43.6403 14.4454 45.2673 10.5375 48.202 7.58763C51.1519 4.63773 55.0597 3.02593 59.2261 3.02593C61.4157 3.02593 63.5293 3.46689 65.506 4.33361C65.7037 4.42485 65.9014 4.47047 66.1142 4.47047C66.7225 4.47047 67.2699 4.12074 67.5132 3.55813C67.8477 2.78264 67.4979 1.8855 66.7377 1.55098C64.3656 0.532198 61.8414 0 59.2261 0C56.7171 0 54.269 0.486581 51.973 1.45974C49.7529 2.4025 47.761 3.74059 46.058 5.45883C44.3549 7.17707 43.0016 9.15381 42.0589 11.3738C41.0857 13.6699 40.5991 16.1028 40.5991 18.6269C40.5991 21.1511 41.0857 23.584 42.0589 25.88C42.8039 27.6287 43.7923 29.2405 45.024 30.685L30.6698 45.0392C27.7808 42.5911 24.1466 40.9945 20.1475 40.6752V37.2083C29.7119 36.4328 37.2539 28.4042 37.2539 18.6421C37.2539 8.36312 28.8908 0 18.6269 0C8.36312 0 0 8.36312 0 18.6269C0 28.389 7.54201 36.4176 17.1064 37.1931V40.6599C7.54201 41.4354 0 49.464 0 59.2261C0 69.4899 8.36312 77.853 18.6269 77.853C28.389 77.853 36.4176 70.311 37.1931 60.7466H40.6599C41.4354 70.311 49.464 77.853 59.2261 77.853C69.4899 77.853 77.853 69.4899 77.853 59.2261C77.853 48.9622 69.4899 40.5991 59.2261 40.5991ZM53.9041 14.8255C53.9041 11.8908 56.2914 9.50354 59.2261 9.50354C62.1608 9.50354 64.548 11.8908 64.548 14.8255C64.548 17.745 62.176 20.1323 59.2565 20.1475C59.2413 20.1475 59.2413 20.1475 59.2261 20.1475C59.2109 20.1475 59.2109 20.1475 59.1957 20.1475C56.2762 20.1323 53.9041 17.745 53.9041 14.8255ZM59.1957 23.1886C59.2109 23.1886 59.2109 23.1886 59.2261 23.1886C59.2413 23.1886 59.2413 23.1886 59.2565 23.1886C63.7574 23.2038 67.7716 25.88 69.7636 30.1072C66.8745 32.753 63.1643 34.2127 59.2261 34.2127C55.2878 34.2127 51.5776 32.753 48.6885 30.1072C50.6653 25.88 54.6948 23.2038 59.1957 23.1886ZM13.305 14.8255C13.305 11.8908 15.6922 9.50354 18.6269 9.50354C21.5616 9.50354 23.9489 11.8908 23.9489 14.8255C23.9489 17.745 21.5768 20.1323 18.6574 20.1475C18.6421 20.1475 18.6421 20.1475 18.6269 20.1475C18.6117 20.1475 18.6117 20.1475 18.5965 20.1475C15.677 20.1323 13.305 17.745 13.305 14.8255ZM18.6269 23.1886C18.6421 23.1886 18.6421 23.1886 18.6574 23.1886C23.143 23.2038 27.1725 25.88 29.1645 30.1072C26.3818 32.6618 22.6869 34.2127 18.6269 34.2127C14.567 34.2127 10.8721 32.6466 8.08941 30.1072C10.0814 25.88 14.0957 23.2038 18.5965 23.1886C18.6117 23.1886 18.6117 23.1886 18.6269 23.1886ZM18.6269 3.04113C27.2181 3.04113 34.2127 10.0357 34.2127 18.6269C34.2127 21.9874 33.1331 25.1198 31.3085 27.6743C29.6054 24.694 27.0357 22.4436 24.025 21.2119C25.8344 19.6761 26.9901 17.3801 26.9901 14.8255C26.9901 10.2182 23.2343 6.46241 18.6269 6.46241C14.0196 6.46241 10.2638 10.2182 10.2638 14.8255C10.2638 17.3801 11.4195 19.6761 13.2289 21.1967C10.203 22.4284 7.63324 24.6788 5.93021 27.6591C4.10553 25.1046 3.04113 21.9874 3.04113 18.6269C3.04113 10.0357 10.0357 3.04113 18.6269 3.04113ZM18.6269 74.8119C10.0357 74.8119 3.04113 67.8173 3.04113 59.2261C3.04113 50.6349 10.0357 43.6403 18.6269 43.6403C27.2181 43.6403 34.2127 50.6349 34.2127 59.2261C34.2127 67.8173 27.2181 74.8119 18.6269 74.8119ZM48.6885 70.7063C50.6805 66.4792 54.7252 63.7878 59.2261 63.7878C63.7269 63.7878 67.7716 66.464 69.7636 70.7063C66.9809 73.2609 63.286 74.8119 59.2261 74.8119C55.1662 74.8119 51.4712 73.2457 48.6885 70.7063ZM59.2261 60.7466C56.2914 60.7466 53.9041 58.3593 53.9041 55.4246C53.9041 52.49 56.2914 50.1027 59.2261 50.1027C62.1608 50.1027 64.548 52.49 64.548 55.4246C64.548 58.3593 62.1608 60.7466 59.2261 60.7466ZM71.9228 68.2734C70.2198 65.2931 67.65 63.0427 64.6393 61.811C66.4488 60.2753 67.6044 57.9792 67.6044 55.4246C67.6044 50.8173 63.8486 47.0615 59.2413 47.0615C54.634 47.0615 50.8782 50.8173 50.8782 55.4246C50.8782 57.9792 52.0338 60.2753 53.8433 61.811C50.8173 63.0427 48.2476 65.2931 46.5445 68.2734C44.7199 65.7189 43.6555 62.6017 43.6555 59.2413C43.6403 50.6349 50.6349 43.6403 59.2261 43.6403C67.8173 43.6403 74.8119 50.6349 74.8119 59.2261C74.8119 62.5865 73.7323 65.7189 71.9228 68.2734Z" fill="#343534"/>
<path d="M26.6859 51.1216C25.9864 50.6502 25.0437 50.8479 24.5723 51.5474L16.6197 63.4838L12.5902 58.3139C12.0732 57.6448 11.1153 57.5384 10.4614 58.0402C9.79237 58.5572 9.68593 59.5151 10.1877 60.169L15.5097 67.0115C15.7986 67.3765 16.2396 67.6045 16.711 67.6045C16.7262 67.6045 16.7414 67.6045 16.7718 67.6045C17.2584 67.5893 17.7145 67.3308 17.9882 66.9355L27.1116 53.2504C27.583 52.5357 27.3853 51.5778 26.6859 51.1216Z" fill="#185908"/>
<path d="M71.6641 8.40887C72.5039 8.40887 73.1847 7.72809 73.1847 6.8883C73.1847 6.04852 72.5039 5.36774 71.6641 5.36774C70.8243 5.36774 70.1436 6.04852 70.1436 6.8883C70.1436 7.72809 70.8243 8.40887 71.6641 8.40887Z" fill="#185908"/>
</svg>
