<svg width="72" height="72" viewBox="0 0 72 72" fill="none" xmlns="http://www.w3.org/2000/svg">
<path d="M36 71C55.33 71 71 55.33 71 36C71 16.67 55.33 1 36 1C16.67 1 1 16.67 1 36C1 55.33 16.67 71 36 71Z" stroke="url(#paint0_linear_4_14)" stroke-width="2" stroke-miterlimit="10"/>
<path d="M36 21C34.5048 21 33.0431 20.5566 31.7999 19.7259C30.5567 18.8952 29.5877 17.7145 29.0155 16.3331C28.4433 14.9517 28.2936 13.4316 28.5853 11.9651C28.877 10.4986 29.597 9.15157 30.6543 8.09428C31.7116 7.037 33.0586 6.31698 34.5251 6.02527C35.9916 5.73357 37.5117 5.88328 38.8931 6.45548C40.2745 7.02768 41.4552 7.99666 42.2859 9.2399C43.1166 10.4831 43.56 11.9448 43.56 13.44C43.5574 15.4442 42.76 17.3656 41.3428 18.7828C39.9256 20.2 38.0042 20.9974 36 21ZM36 7.90001C34.9003 7.90001 33.8254 8.2261 32.911 8.83704C31.9967 9.44798 31.2841 10.3163 30.8632 11.3323C30.4424 12.3482 30.3323 13.4662 30.5468 14.5447C30.7614 15.6232 31.2909 16.6139 32.0685 17.3915C32.8461 18.1691 33.8368 18.6986 34.9153 18.9132C35.9938 19.1277 37.1118 19.0176 38.1277 18.5968C39.1437 18.176 40.012 17.4633 40.623 16.549C41.2339 15.6346 41.56 14.5597 41.56 13.46C41.56 11.9854 40.9742 10.5712 39.9315 9.52849C38.8888 8.48579 37.4746 7.90001 36 7.90001Z" fill="url(#paint1_linear_4_14)"/>
<path d="M36 66.1C34.5048 66.1 33.0431 65.6566 31.7999 64.8259C30.5567 63.9952 29.5877 62.8145 29.0155 61.4331C28.4433 60.0517 28.2936 58.5316 28.5853 57.0651C28.877 55.5986 29.597 54.2515 30.6543 53.1943C31.7116 52.137 33.0586 51.417 34.5251 51.1252C35.9916 50.8335 37.5117 50.9833 38.8931 51.5555C40.2745 52.1277 41.4552 53.0966 42.2859 54.3399C43.1166 55.5831 43.56 57.0448 43.56 58.54C43.5574 60.5442 42.76 62.4656 41.3428 63.8828C39.9256 65.3 38.0042 66.0973 36 66.1ZM36 53C34.9003 53 33.8254 53.3261 32.911 53.937C31.9967 54.548 31.2841 55.4163 30.8632 56.4323C30.4424 57.4482 30.3323 58.5662 30.5468 59.6447C30.7614 60.7232 31.2909 61.7139 32.0685 62.4915C32.8461 63.2691 33.8368 63.7986 34.9153 64.0132C35.9938 64.2277 37.1118 64.1176 38.1277 63.6968C39.1437 63.2759 40.012 62.5633 40.623 61.649C41.2339 60.7346 41.56 59.6596 41.56 58.56C41.56 57.0854 40.9742 55.6712 39.9315 54.6285C38.8888 53.5858 37.4746 53 36 53Z" fill="url(#paint2_linear_4_14)"/>
<path d="M13.46 43.56C11.9639 43.564 10.5003 43.1239 9.25446 42.2957C8.0086 41.4674 7.0365 40.288 6.46124 38.907C5.88597 37.5259 5.7334 36.0052 6.02284 34.5374C6.31228 33.0696 7.03072 31.7207 8.08721 30.6614C9.14369 29.6021 10.4907 28.8801 11.9578 28.5868C13.4248 28.2934 14.9459 28.442 16.3285 29.0136C17.711 29.5852 18.8929 30.5542 19.7245 31.7978C20.5561 33.0415 21 34.5039 21 36C20.9974 38.0008 20.2028 39.9191 18.7899 41.3358C17.377 42.7524 15.4608 43.5521 13.46 43.56ZM13.46 30.44C12.3595 30.4361 11.2826 30.7588 10.3656 31.3673C9.44864 31.9758 8.73289 32.8428 8.309 33.8584C7.88511 34.874 7.77214 35.9926 7.98441 37.0724C8.19668 38.1522 8.72464 39.1448 9.50142 39.9244C10.2782 40.704 11.2689 41.2355 12.3479 41.4517C13.427 41.6678 14.546 41.5589 15.5631 41.1387C16.5802 40.7184 17.4497 40.0058 18.0616 39.091C18.6734 38.1763 19 37.1005 19 36C19 34.5289 18.417 33.1177 17.3786 32.0755C16.3402 31.0334 14.9311 30.4453 13.46 30.44Z" fill="url(#paint3_linear_4_14)"/>
<path d="M58.54 43.56C57.0448 43.56 55.5831 43.1166 54.3399 42.2859C53.0966 41.4552 52.1277 40.2745 51.5555 38.8931C50.9833 37.5117 50.8335 35.9916 51.1252 34.5251C51.417 33.0586 52.137 31.7116 53.1943 30.6543C54.2515 29.597 55.5986 28.877 57.0651 28.5853C58.5316 28.2936 60.0517 28.4433 61.4331 29.0155C62.8145 29.5877 63.9952 30.5567 64.8259 31.7999C65.6566 33.0431 66.1 34.5048 66.1 36C66.0973 38.0042 65.3 39.9256 63.8828 41.3428C62.4656 42.76 60.5442 43.5574 58.54 43.56ZM58.54 30.44C57.4403 30.44 56.3654 30.7661 55.451 31.377C54.5367 31.988 53.824 32.8563 53.4032 33.8723C52.9824 34.8882 52.8723 36.0062 53.0868 37.0847C53.3014 38.1632 53.8309 39.1539 54.6085 39.9315C55.3861 40.7091 56.3767 41.2386 57.4553 41.4532C58.5338 41.6677 59.6517 41.5576 60.6677 41.1368C61.6837 40.716 62.552 40.0033 63.163 39.089C63.7739 38.1746 64.1 37.0997 64.1 36C64.1 34.5254 63.5142 33.1112 62.4715 32.0685C61.4288 31.0258 60.0146 30.44 58.54 30.44Z" fill="url(#paint4_linear_4_14)"/>
<path d="M12.44 39.54L9.58002 36.2L11.1 34.9L12.54 36.59L15.87 33.23L17.29 34.64L12.44 39.54Z" fill="url(#paint5_linear_4_14)"/>
<path d="M26.88 16.34L27.46 14.59L16.8 14.31L16.75 16.31L22.88 16.47C19.3162 18.8637 16.4712 22.1823 14.65 26.07L16.47 26.91C18.1802 23.2746 20.8711 20.1888 24.24 18L22.24 24.12L24.14 24.75L26.84 16.54L26.95 16.49L26.88 16.34Z" fill="url(#paint6_linear_4_14)"/>
<path d="M55.31 26.44L57.05 27.01L57.33 16.36L55.33 16.31L55.17 22.44C52.7801 18.8766 49.4648 16.0314 45.58 14.21L44.73 16C48.3768 17.7095 51.4732 20.4042 53.67 23.78L47.55 21.78L46.93 23.68L55.13 26.38L55.19 26.48L55.31 26.44Z" fill="url(#paint7_linear_4_14)"/>
<path d="M45.1 55.66L44.53 57.41L55.18 57.69L55.24 55.69L49.11 55.53C52.6708 53.1357 55.5125 49.817 57.33 45.93L55.52 45.09C53.8063 48.7261 51.1119 51.8118 47.74 54L49.74 47.88L47.84 47.25L45.15 55.46H45.04L45.1 55.66Z" fill="url(#paint8_linear_4_14)"/>
<path d="M16.68 45.28L14.93 44.7L14.65 55.36H16.65L16.81 49.23C19.2037 52.7938 22.5224 55.6388 26.41 57.46L27.25 55.64C23.6054 53.9318 20.5094 51.241 18.31 47.87L24.44 49.87L25.06 48L16.85 45.31C16.8274 45.2763 16.8106 45.2392 16.8 45.2L16.68 45.28Z" fill="url(#paint9_linear_4_14)"/>
<path d="M37 51.98H35V65.11H37V51.98Z" fill="url(#paint10_linear_4_14)"/>
<path d="M33.09 14.58C33.7085 14.58 34.21 14.0786 34.21 13.46C34.21 12.8414 33.7085 12.34 33.09 12.34C32.4714 12.34 31.97 12.8414 31.97 13.46C31.97 14.0786 32.4714 14.58 33.09 14.58Z" fill="url(#paint11_linear_4_14)"/>
<path d="M36 14.58C36.6186 14.58 37.12 14.0786 37.12 13.46C37.12 12.8414 36.6186 12.34 36 12.34C35.3814 12.34 34.88 12.8414 34.88 13.46C34.88 14.0786 35.3814 14.58 36 14.58Z" fill="url(#paint12_linear_4_14)"/>
<path d="M38.91 14.58C39.5285 14.58 40.03 14.0786 40.03 13.46C40.03 12.8414 39.5285 12.34 38.91 12.34C38.2914 12.34 37.79 12.8414 37.79 13.46C37.79 14.0786 38.2914 14.58 38.91 14.58Z" fill="url(#paint13_linear_4_14)"/>
<path d="M64.33 38.01H52.71V40.01H64.33V38.01Z" fill="url(#paint14_linear_4_14)"/>
<path d="M62.62 33.81H60.62V39.01H62.62V33.81Z" fill="url(#paint15_linear_4_14)"/>
<path d="M59.54 32.2H57.54V39.02H59.54V32.2Z" fill="url(#paint16_linear_4_14)"/>
<path d="M56.46 36H54.46V39.01H56.46V36Z" fill="url(#paint17_linear_4_14)"/>
<defs>
<linearGradient id="paint0_linear_4_14" x1="-2.10745e-08" y1="36" x2="72" y2="36" gradientUnits="userSpaceOnUse">
<stop offset="1" stop-color="#88BD4D"/>
</linearGradient>
<linearGradient id="paint1_linear_4_14" x1="35.244" y1="79.0608" x2="1297.76" y2="385.241" gradientUnits="userSpaceOnUse">
<stop offset="1" stop-color="#88BD4D"/>
</linearGradient>
<linearGradient id="paint2_linear_4_14" x1="-120.946" y1="767.819" x2="1141.57" y2="1074" gradientUnits="userSpaceOnUse">
<stop offset="1" stop-color="#88BD4D"/>
</linearGradient>
<linearGradient id="paint3_linear_4_14" x1="-84.3864" y1="501.545" x2="1178.13" y2="807.725" gradientUnits="userSpaceOnUse">
<stop offset="1" stop-color="#88BD4D"/>
</linearGradient>
<linearGradient id="paint4_linear_4_14" x1="-1.33523" y1="345.355" x2="1261.18" y2="651.535" gradientUnits="userSpaceOnUse">
<stop offset="1" stop-color="#88BD4D"/>
</linearGradient>
<linearGradient id="paint5_linear_4_14" x1="-36.8342" y1="231.932" x2="589.792" y2="417.615" gradientUnits="userSpaceOnUse">
<stop offset="1" stop-color="#88BD4D"/>
</linearGradient>
<linearGradient id="paint6_linear_4_14" x1="-10.97" y1="202.554" x2="1056.67" y2="465.788" gradientUnits="userSpaceOnUse">
<stop offset="1" stop-color="#88BD4D"/>
</linearGradient>
<linearGradient id="paint7_linear_4_14" x1="41.454" y1="113.41" x2="1095.37" y2="365.007" gradientUnits="userSpaceOnUse">
<stop offset="1" stop-color="#88BD4D"/>
</linearGradient>
<linearGradient id="paint8_linear_4_14" x1="-50.574" y1="515.196" x2="1016.33" y2="778.043" gradientUnits="userSpaceOnUse">
<stop offset="1" stop-color="#88BD4D"/>
</linearGradient>
<linearGradient id="paint9_linear_4_14" x1="-100.136" y1="609.075" x2="953.422" y2="861.375" gradientUnits="userSpaceOnUse">
<stop offset="1" stop-color="#88BD4D"/>
</linearGradient>
<linearGradient id="paint10_linear_4_14" x1="15.24" y1="674.473" x2="191.821" y2="680.996" gradientUnits="userSpaceOnUse">
<stop offset="1" stop-color="#88BD4D"/>
</linearGradient>
<linearGradient id="paint11_linear_4_14" x1="32.5972" y1="24.6824" x2="219.637" y2="70.0424" gradientUnits="userSpaceOnUse">
<stop offset="1" stop-color="#88BD4D"/>
</linearGradient>
<linearGradient id="paint12_linear_4_14" x1="35.888" y1="23.1816" x2="222.928" y2="68.5415" gradientUnits="userSpaceOnUse">
<stop offset="1" stop-color="#88BD4D"/>
</linearGradient>
<linearGradient id="paint13_linear_4_14" x1="39.1564" y1="21.6808" x2="226.196" y2="67.0407" gradientUnits="userSpaceOnUse">
<stop offset="1" stop-color="#88BD4D"/>
</linearGradient>
<linearGradient id="paint14_linear_4_14" x1="4.3708" y1="85.63" x2="348.5" y2="570.513" gradientUnits="userSpaceOnUse">
<stop offset="1" stop-color="#88BD4D"/>
</linearGradient>
<linearGradient id="paint15_linear_4_14" x1="53.84" y1="141.19" x2="229.137" y2="157.541" gradientUnits="userSpaceOnUse">
<stop offset="1" stop-color="#88BD4D"/>
</linearGradient>
<linearGradient id="paint16_linear_4_14" x1="50.8" y1="172.624" x2="226.732" y2="185.136" gradientUnits="userSpaceOnUse">
<stop offset="1" stop-color="#88BD4D"/>
</linearGradient>
<linearGradient id="paint17_linear_4_14" x1="46.5" y1="105.501" x2="218.847" y2="133.273" gradientUnits="userSpaceOnUse">
<stop offset="1" stop-color="#88BD4D"/>
</linearGradient>
</defs>
</svg>
