<svg width="72" height="72" viewBox="0 0 72 72" fill="none" xmlns="http://www.w3.org/2000/svg">
<path d="M26.23 31.81H24.32V38.38H27.66V44H30.91V49.59H32.14L35 54.51V58.11H37V54.51L39.86 49.56H41.09V44H44.34V38.38H47.68V31.81H45.77L48.37 22.42H51.55V8.99999H47.68V1.92999L47 1.70999C39.8436 -0.568369 32.1564 -0.568369 25 1.70999L24.3 1.92999V8.99999H20.45V22.4H23.63L26.23 31.81ZM36 52.25L34.45 49.56H37.55L36 52.25ZM39.09 47.56H32.91V44H39.09V47.56ZM42.34 42H29.66V38.38H42.34V42ZM45.68 36.41H26.32V33.81H45.68V36.41ZM43.68 31.84H28.31L25.7 22.42H46.3L43.68 31.84ZM26.32 3.39999C32.6393 1.53984 39.3607 1.53984 45.68 3.39999V8.99999H26.32V3.39999ZM22.45 20.4V11H49.55V13.15H24.39V15.15H49.55V20.4H22.45Z" fill="url(#paint0_linear_4_9)"/>
<path d="M64.19 57.82L64.1 55.82L39.16 57C39.32 57.4237 39.3904 57.8759 39.367 58.3282C39.3435 58.7805 39.2266 59.223 39.0237 59.6279C38.8208 60.0328 38.5362 60.3913 38.1879 60.6808C37.8396 60.9703 37.4352 61.1845 37 61.31C36.8496 61.3605 36.6959 61.4006 36.54 61.43C36.3835 61.4403 36.2265 61.4403 36.07 61.43H35.93C35.6165 61.4287 35.3055 61.3746 35.01 61.27C34.3227 61.0621 33.7205 60.6389 33.292 60.0627C32.8635 59.4866 32.6314 58.788 32.63 58.07C32.6398 57.7031 32.7143 57.3409 32.85 57L7.91001 55.82L7.82001 57.82L27.36 58.72L12.86 61.44L13.23 63.44L30.34 60.23L19.61 66.32L20.61 68.06L32.9 61.06L27.32 69.59L29 70.66L35 61.47V71H37V61.47L43 70.66L44.68 69.57L39.12 61L51.41 68L52.41 66.26L41.67 60.19L58.78 63.4L59.14 61.4L44.65 58.72L64.19 57.82Z" fill="url(#paint1_linear_4_9)"/>
<path d="M36 71C55.33 71 71 55.33 71 36C71 16.67 55.33 1 36 1C16.67 1 1 16.67 1 36C1 55.33 16.67 71 36 71Z" stroke="url(#paint2_linear_4_9)" stroke-width="2" stroke-miterlimit="10"/>
<defs>
<linearGradient id="paint0_linear_4_9" x1="20.45" y1="29.06" x2="51.55" y2="29.06" gradientUnits="userSpaceOnUse">
<stop offset="100%" stop-color="#88BD4D"/>
</linearGradient>
<linearGradient id="paint1_linear_4_9" x1="448.633" y1="1018.38" x2="3626.21" y2="1018.38" gradientUnits="userSpaceOnUse">
<stop offset="100%" stop-color="#88BD4D"/>
</linearGradient>
<linearGradient id="paint2_linear_4_9" x1="1" y1="2521" x2="5041" y2="2521" gradientUnits="userSpaceOnUse">
<stop offset="100%" stop-color="#88BD4D"/>
</linearGradient>
</defs>
</svg>
