<svg width="13" height="14" viewBox="0 0 13 14" fill="none" xmlns="http://www.w3.org/2000/svg">
<path d="M9.34348 14C8.92384 14 8.50776 13.9201 8.10089 13.7609C6.30843 13.0597 4.64465 11.9176 3.28936 10.4581C1.93406 8.99854 0.873539 7.20675 0.222423 5.27642C0.0131871 4.65607 -0.0485604 4.0157 0.0389575 3.37304C0.120941 2.77107 0.337463 2.18667 0.665141 1.68302C0.994266 1.17715 1.43305 0.756406 1.93404 0.466274C2.46828 0.156892 3.05141 0 3.66726 0C3.85879 0 4.02433 0.144123 4.06448 0.345802L4.70211 3.55033C4.73098 3.69544 4.68957 3.84642 4.59215 3.95137L3.5026 5.12469C4.53043 7.32539 6.19822 9.12147 8.24172 10.2284L9.33124 9.055C9.42866 8.95009 9.56889 8.90555 9.70363 8.93658L12.6793 9.62327C12.8666 9.66649 13.0004 9.84477 13.0004 10.051C13.0004 10.7143 12.8547 11.3423 12.5674 11.9176C12.298 12.4571 11.9073 12.9297 11.4375 13.2841C10.9699 13.637 10.4272 13.8702 9.86823 13.9585C9.69307 13.9862 9.51793 14 9.34348 14ZM3.34268 0.894104C2.53034 0.990678 1.80932 1.44921 1.33053 2.18514C0.792114 3.01267 0.666563 4.03049 0.986065 4.9777C2.23787 8.6888 4.93224 11.5904 8.37827 12.9385C9.25779 13.2826 10.2029 13.1474 10.9714 12.5676C11.6547 12.0519 12.0805 11.2755 12.1702 10.4006L9.74951 9.84203L8.61165 11.0674C8.49057 11.1978 8.30659 11.2325 8.15167 11.154C5.73483 9.93128 3.77851 7.82448 2.64309 5.22173C2.5703 5.05486 2.60244 4.85673 2.72353 4.72636L3.86138 3.50098L3.34268 0.894104Z"/>
<path d="M12.5938 7.43719C12.3694 7.43719 12.1875 7.24131 12.1875 6.99971C12.1875 3.62252 9.63623 0.874964 6.50026 0.874964C6.27592 0.874964 6.09402 0.679082 6.09402 0.437482C6.09402 0.195883 6.27592 0 6.50026 0C8.23642 0 9.86864 0.72808 11.0963 2.05015C12.3239 3.37222 13 5.13 13 6.99971C13 7.24131 12.8181 7.43719 12.5938 7.43719Z"/>
<path d="M10.9688 7.43727C10.7445 7.43727 10.5626 7.24139 10.5626 6.99979C10.5626 4.58751 8.74023 2.62496 6.50026 2.62496C6.27592 2.62496 6.09402 2.42908 6.09402 2.18748C6.09402 1.94588 6.27592 1.75 6.50026 1.75C9.18823 1.75 11.3751 4.10505 11.3751 6.99979C11.3751 7.24139 11.1932 7.43727 10.9688 7.43727Z"/>
<path d="M9.34389 7.4371C9.11955 7.4371 8.93766 7.24121 8.93766 6.99961C8.93766 5.55223 7.84425 4.37472 6.50026 4.37472C6.27592 4.37472 6.09402 4.17884 6.09402 3.93724C6.09402 3.69564 6.27592 3.49976 6.50026 3.49976C8.29225 3.49976 9.75012 5.06977 9.75012 6.99961C9.75012 7.24121 9.56826 7.4371 9.34389 7.4371Z"/>
</svg>
