<svg width="30" height="30" viewBox="0 0 30 30" fill="none" xmlns="http://www.w3.org/2000/svg">
<path d="M15 30C23.2843 30 30 23.2843 30 15C30 6.71573 23.2843 0 15 0C6.71573 0 0 6.71573 0 15C0 23.2843 6.71573 30 15 30Z" fill="url(#paint0_linear_2_123)"/>
<path d="M15 10.47C14.8137 10.4706 14.6291 10.4337 14.4573 10.3616C14.2856 10.2894 14.13 10.1835 14 10.05C13.8628 9.92229 13.7538 9.76743 13.6797 9.59526C13.6057 9.4231 13.5683 9.2374 13.57 9.05C13.5591 8.85402 13.592 8.65808 13.6664 8.47644C13.7408 8.2948 13.8548 8.13204 14 8C14.13 7.86654 14.2856 7.76059 14.4573 7.68844C14.6291 7.61629 14.8137 7.57941 15 7.58C15.1865 7.57825 15.3714 7.61461 15.5433 7.68683C15.7153 7.75905 15.8707 7.86561 16 8C16.1353 8.12859 16.2426 8.28384 16.3148 8.45597C16.3871 8.62809 16.4229 8.81334 16.42 9C16.4212 9.18641 16.3845 9.37112 16.3124 9.54299C16.2402 9.71486 16.1339 9.87033 16 10C15.8751 10.1435 15.7217 10.2594 15.5495 10.3403C15.3773 10.4212 15.1902 10.4654 15 10.47V10.47ZM16.17 22.39H13.86V11.77H16.17V22.39Z" fill="white"/>
<defs>
<linearGradient id="paint0_linear_2_123" x1="8.95" y1="-3.94" x2="20.45" y2="32.06" gradientUnits="userSpaceOnUse">
<stop offset="0" stop-color="#D6E6C0"/>
<stop offset="100%" stop-color="#88BD4D"/>
</linearGradient>
</defs>
</svg>
