<svg width="16" height="13" viewBox="0 0 16 13" fill="none" xmlns="http://www.w3.org/2000/svg">
<path d="M14.5938 0.0253906H1.40625C0.631813 0.0253906 0 0.695961 0 1.51953V11.4805C0 12.3012 0.629 12.9746 1.40625 12.9746H14.5938C15.3663 12.9746 16 12.3063 16 11.4805V1.51953C16 0.69875 15.371 0.0253906 14.5938 0.0253906ZM14.3996 1.02148L8.02981 7.78938L1.60497 1.02148H14.3996ZM0.9375 11.2742V1.72104L5.45247 6.47706L0.9375 11.2742ZM1.60041 11.9785L6.11822 7.17834L7.70125 8.84587C7.8845 9.03891 8.18022 9.03828 8.36272 8.84434L9.90625 7.20434L14.3996 11.9785H1.60041ZM15.0625 11.2742L10.5692 6.5L15.0625 1.72579V11.2742Z"/>
</svg>
