<svg width="17" height="17" viewBox="0 0 17 17" fill="none" xmlns="http://www.w3.org/2000/svg">
<path d="M9.57934 13.9077C7.86449 12.728 6.52067 11.0847 5.7048 9.16974C5.37625 8.55198 5.15891 7.88125 5.06273 7.18819C5.01852 6.88352 5.01852 6.57405 5.06273 6.26937C5.12431 5.85538 5.27248 5.45902 5.49755 5.10614C5.72263 4.75326 6.01957 4.4518 6.369 4.2214C6.47483 4.13539 6.59737 4.07228 6.72885 4.03608C6.86033 3.99987 6.9979 3.99136 7.13284 4.01107L7.631 4.12177C7.79705 4.12177 8.02952 4.12177 8.16236 4.65314C8.2952 5.1845 8.61624 6.60148 8.66052 6.74539C8.70027 6.81642 8.72114 6.89646 8.72114 6.97786C8.72114 7.05926 8.70027 7.1393 8.66052 7.21033C8.59408 7.31172 8.52007 7.40794 8.43911 7.49816L8.26199 7.64207C8.10701 7.77491 7.92989 7.94096 7.78598 8.04059C7.64207 8.14022 7.47601 8.27306 7.57565 8.56089C7.86764 9.28893 8.26283 9.97119 8.74908 10.5867C9.29077 11.25 9.94229 11.8154 10.6753 12.2583C10.9188 12.4354 11.0738 12.4354 11.262 12.2583C11.4502 12.0812 12.048 11.6052 12.2694 11.3727C12.4908 11.1402 12.6679 11.2066 12.8893 11.3727C13.1107 11.5387 14.3173 12.3579 14.572 12.5351L14.7491 12.6568C15.8205 11.0906 16.28 9.18558 16.0403 7.30309C15.8007 5.42061 14.8786 3.6915 13.4489 2.44362C12.0192 1.19575 10.1813 0.515873 8.28375 0.532901C6.38615 0.54993 4.56076 1.26268 3.1537 2.53601C1.74665 3.80934 0.855743 5.55472 0.64992 7.4412C0.444098 9.32768 0.937666 11.2241 2.03704 12.7709C3.13641 14.3177 4.76515 15.4073 6.61444 15.8331C8.46372 16.259 10.405 15.9914 12.0701 15.0812C11.183 14.8244 10.3422 14.4283 9.57934 13.9077V13.9077Z" fill="url(#paint0_linear_16_7)"/>
<defs>
<linearGradient id="paint0_linear_16_7" x1="1" y1="8.50554" x2="16" y2="8.50554" gradientUnits="userSpaceOnUse">
<stop offset="1" stop-color="#88BD4D"/>
<stop offset="1" stop-color="#D6E6C0"/>
</linearGradient>
</defs>
</svg>
