<svg width="17" height="17" viewBox="0 0 17 17" fill="none" xmlns="http://www.w3.org/2000/svg">
<path d="M15.9997 8.57141C16.0161 6.84698 15.4377 5.16957 14.362 3.82169C13.2863 2.4738 11.779 1.5378 10.0939 1.17132C8.40875 0.804831 6.64881 1.03026 5.11047 1.80963C3.57212 2.589 2.34935 3.8747 1.64809 5.45019C0.946834 7.02568 0.809936 8.7947 1.26045 10.4593C1.71097 12.1239 2.72138 13.5825 4.1215 14.5892C5.52162 15.596 7.22592 16.0895 8.94736 15.9866C10.6688 15.8838 12.3022 15.1908 13.5725 14.0245H5.3605V7.39018L9.88315 11.2251L14.4058 7.39827V13.1183C15.4337 11.8253 15.9953 10.2232 15.9997 8.57141ZM6.58218 6.36268H13.1922L9.88315 9.16203L6.58218 6.36268Z" fill="#808080"/>
</svg>
