<svg width="30" height="30" viewBox="0 0 30 30" fill="none" xmlns="http://www.w3.org/2000/svg">
<g clip-path="url(#clip0_17_12)">
<path d="M20.47 7.53H9.53V9.87H11.29V11.87H9.53V14H11.29V16H9.53V18.1H11.29V20.1H9.53V22.44H20.47V7.53ZM17.41 12.06C17.1738 12.062 16.9424 11.9936 16.7451 11.8636C16.5479 11.7336 16.3938 11.5479 16.3025 11.33C16.2112 11.1122 16.1868 10.8721 16.2324 10.6403C16.278 10.4086 16.3916 10.1956 16.5586 10.0286C16.7256 9.86156 16.9386 9.74802 17.1703 9.70242C17.4021 9.65683 17.6422 9.68123 17.86 9.77254C18.0779 9.86384 18.2636 10.0179 18.3936 10.2151C18.5236 10.4124 18.592 10.6438 18.59 10.88C18.59 11.193 18.4657 11.4931 18.2444 11.7144C18.0231 11.9357 17.723 12.06 17.41 12.06V12.06Z" fill="url(#paint0_linear_17_12)"/>
<path d="M15 0C12.0333 0 9.13318 0.879735 6.66645 2.52796C4.19971 4.17618 2.27712 6.51886 1.14181 9.25975C0.00649261 12.0006 -0.290557 15.0166 0.288221 17.9264C0.866999 20.8361 2.29561 23.5088 4.3934 25.6066C6.49119 27.7044 9.16393 29.133 12.0736 29.7118C14.9834 30.2906 17.9994 29.9935 20.7403 28.8582C23.4811 27.7229 25.8238 25.8003 27.472 23.3336C29.1203 20.8668 30 17.9667 30 15C30 11.0218 28.4196 7.20644 25.6066 4.3934C22.7936 1.58035 18.9782 0 15 0V0ZM22.53 24.53H7.47V20.13H5.71V18.13H7.47V16H5.71V14H7.47V11.9H5.71V9.9H7.47V5.47H22.53V24.53Z" fill="url(#paint1_linear_17_12)"/>
</g>
<defs>
<linearGradient id="paint0_linear_17_12" x1="8.95" y1="-3.94" x2="20.45" y2="32.06" gradientUnits="userSpaceOnUse">
<stop offset="0" stop-color="#D6E6C0"/>
<stop offset="100%" stop-color="#88BD4D"/>
</linearGradient>
<linearGradient id="paint1_linear_17_12" x1="8.95" y1="-3.94" x2="20.45" y2="32.06" gradientUnits="userSpaceOnUse">
<stop offset="0" stop-color="#D6E6C0"/>
<stop offset="100%" stop-color="#88BD4D"/>
</linearGradient>
<clipPath id="clip0_17_12">
<rect width="30" height="30" fill="white"/>
</clipPath>
</defs>
</svg>
