<svg width="17" height="17" viewBox="0 0 17 17" fill="none" xmlns="http://www.w3.org/2000/svg">
<path d="M9.71854 13.9312C8.04959 12.7793 6.74442 11.1746 5.95663 9.30601C5.64164 8.71323 5.43259 8.06999 5.3389 7.40529C5.29926 7.1083 5.29926 6.80736 5.3389 6.51037C5.40184 6.11486 5.54628 5.73674 5.76305 5.39999C5.97983 5.06324 6.26421 4.77521 6.59817 4.55416C6.70114 4.4727 6.81928 4.41254 6.94573 4.37718C7.07217 4.34182 7.20439 4.33196 7.33468 4.34818C7.50892 4.34818 7.67522 4.43511 7.82572 4.45892C7.97614 4.4816 8.2138 4.45892 8.34049 4.98163C8.4671 5.50434 8.77608 6.87445 8.82359 7.01702C8.85286 7.09088 8.86315 7.1709 8.85351 7.24976C8.84387 7.32862 8.81461 7.40381 8.76841 7.46844C8.68904 7.57918 8.62592 7.65855 8.55486 7.74548C8.48343 7.83279 8.48343 7.81654 8.43581 7.84866C8.38819 7.8789 8.11115 8.14158 7.97648 8.23675C7.84193 8.33161 7.6677 8.45861 7.77881 8.73564C8.05163 9.4616 8.43643 10.1404 8.91925 10.7473C9.44197 11.3803 10.0719 11.9164 10.7804 12.3312C11.0181 12.5055 11.1684 12.5055 11.3506 12.3312C11.5328 12.157 12.1426 11.6897 12.3406 11.468C12.5386 11.2461 12.7207 11.3017 12.9425 11.468C13.1643 11.6343 14.3284 12.4184 14.5264 12.5926L14.7007 12.7192C15.7328 11.2024 16.1731 9.35996 15.9384 7.54043C15.7036 5.72091 14.8101 4.05052 13.4269 2.84532C12.0437 1.64013 10.2667 0.983722 8.4322 1.00031C6.59767 1.01689 4.83285 1.70531 3.47165 2.93532C2.11045 4.16533 1.2473 5.85159 1.04551 7.67507C0.843716 9.49854 1.31729 11.3327 2.37661 12.8306C3.43594 14.3285 5.00754 15.3861 6.79406 15.8034C8.58057 16.2207 10.4581 15.9687 12.0713 15.0951C11.2304 14.8346 10.4363 14.4416 9.71919 13.9309L9.71854 13.9312Z" fill="#666666" />
</svg>
