<svg width="19" height="19" viewBox="0 0 19 19" fill="none" xmlns="http://www.w3.org/2000/svg">
<path d="M9.20999 -2.19802e-06C7.388 -0.00198047 5.60636 0.536495 4.09047 1.5473C2.57458 2.5581 1.39255 3.99582 0.693937 5.67855C-0.00467938 7.36128 -0.188495 9.21342 0.165744 11.0006C0.519984 12.7879 1.39636 14.4299 2.684 15.7189C3.97165 17.0079 5.61269 17.8861 7.39953 18.2423C9.18637 18.5985 11.0387 18.4167 12.7222 17.7199C14.4057 17.0231 15.8447 15.8426 16.8571 14.3278C17.8696 12.813 18.41 11.032 18.41 9.21C18.41 6.76909 17.441 4.428 15.716 2.70108C13.9909 0.974155 11.6509 0.00264809 9.20999 -2.19802e-06V-2.19802e-06ZM15.21 11.41H7.71999V2.81H9.71999V9.41H15.22L15.21 11.41Z" fill="#666666"/>
</svg>
