<svg width="133" height="34" viewBox="0 0 133 34" fill="none" xmlns="http://www.w3.org/2000/svg">
<path d="M111.56 12.74C110.789 13.5143 109.805 14.0423 108.734 14.2572C107.663 14.4721 106.552 14.3641 105.542 13.947C104.532 13.5299 103.668 12.8224 103.06 11.9142C102.453 11.0059 102.129 9.93774 102.129 8.845C102.129 7.75226 102.453 6.6841 103.06 5.77584C103.668 4.86757 104.532 4.16007 105.542 3.74296C106.552 3.32585 107.663 3.2179 108.734 3.43277C109.805 3.64765 110.789 4.17569 111.56 4.95L113.92 2.59C112.683 1.35149 111.106 0.507792 109.389 0.165649C107.672 -0.176494 105.892 -0.00171262 104.274 0.667882C102.657 1.33748 101.274 2.4718 100.301 3.92735C99.3285 5.3829 98.8092 7.09429 98.8092 8.845C98.8092 10.5957 99.3285 12.3071 100.301 13.7626C101.274 15.2182 102.657 16.3525 104.274 17.0221C105.892 17.6917 107.672 17.8665 109.389 17.5244C111.106 17.1822 112.683 16.3385 113.92 15.1L111.56 12.74Z" fill="url(#paint0_linear_2_93)"/>
<path d="M74.52 14.08H61.21V17.22H74.52V14.08Z" fill="url(#paint1_linear_2_93)"/>
<path d="M76.3 0.470001H72.73V17.22H76.3V0.470001Z" fill="url(#paint2_linear_2_93)"/>
<path d="M74.51 0.470001H66.31V3.61H74.51V0.470001Z" fill="url(#paint3_linear_2_93)"/>
<path d="M64.8 0.469999C64.7975 2.89802 64.131 5.27911 62.8724 7.3555C61.6139 9.43189 59.8114 11.1245 57.66 12.25V16C58.9162 15.4782 60.1048 14.8067 61.2 14C63.3672 12.4536 65.1332 10.4116 66.3509 8.04408C67.5685 5.67659 68.2025 3.05228 68.2 0.389999L64.8 0.469999Z" fill="url(#paint4_linear_2_93)"/>
<path d="M46.43 -1.98346e-06C44.6788 -0.00197964 42.9664 0.515635 41.5094 1.48732C40.0525 2.45901 38.9167 3.84109 38.2456 5.45863C37.5745 7.07616 37.3984 8.85643 37.7396 10.5741C38.0807 12.2918 38.9238 13.8696 40.1621 15.1079C41.4004 16.3462 42.9782 17.1893 44.6959 17.5304C46.4136 17.8716 48.1938 17.6955 49.8114 17.0244C51.4289 16.3533 52.811 15.2175 53.7827 13.7606C54.7544 12.3036 55.272 10.5912 55.27 8.84C55.27 6.49548 54.3386 4.247 52.6808 2.58917C51.023 0.931352 48.7745 -1.98346e-06 46.43 -1.98346e-06V-1.98346e-06ZM46.43 14.35C45.3402 14.35 44.2749 14.0268 43.3688 13.4214C42.4627 12.8159 41.7565 11.9554 41.3394 10.9486C40.9224 9.94176 40.8133 8.83389 41.0259 7.76505C41.2385 6.69622 41.7633 5.71443 42.5338 4.94384C43.3044 4.17325 44.2862 3.64848 45.3551 3.43587C46.4239 3.22327 47.5318 3.33238 48.5386 3.74942C49.5454 4.16646 50.406 4.87269 51.0114 5.77881C51.6168 6.68492 51.94 7.75022 51.94 8.84C51.94 10.3013 51.3595 11.7028 50.3262 12.7362C49.2928 13.7695 47.8913 14.35 46.43 14.35V14.35Z" fill="url(#paint5_linear_2_93)"/>
<path d="M12.98 7.27H3.57V10.41H12.98V7.27Z" fill="url(#paint6_linear_2_93)"/>
<path d="M3.57 0.470001H0V7.27H3.57V0.470001Z" fill="url(#paint7_linear_2_93)"/>
<path d="M3.57 10.41H0V17.22H3.57V10.41Z" fill="url(#paint8_linear_2_93)"/>
<path d="M15.07 0.470001H11.5V17.22H15.07V0.470001Z" fill="url(#paint9_linear_2_93)"/>
<path d="M83.63 0.479996H80.06V17.22H83.63V0.479996Z" fill="url(#paint10_linear_2_93)"/>
<path d="M121.92 0.479996H118.35V17.22H121.92V0.479996Z" fill="url(#paint11_linear_2_93)"/>
<path d="M127.78 0.479996L121.92 6.34L124.44 8.86L132.82 0.479996H127.78Z" fill="url(#paint12_linear_2_93)"/>
<path d="M132.81 17.22L124.44 8.85L121.92 11.37L127.77 17.22H132.81Z" fill="url(#paint13_linear_2_93)"/>
<path d="M81.1 12.78L83.62 15.3L91.49 7.44V2.4L81.1 12.78Z" fill="url(#paint14_linear_2_93)"/>
<path d="M91.49 0.470001V2.39C91.49 4.07 91.49 5.76 91.49 7.44V17.22H95.06V0.470001H91.49Z" fill="url(#paint15_linear_2_93)"/>
<path d="M25.34 0.120002C24.1789 0.11858 23.0291 0.346668 21.9565 0.791153C20.8839 1.23564 19.9097 1.88775 19.09 2.71L21.45 5.06C22.1158 4.39454 22.9415 3.91145 23.8478 3.65711C24.7541 3.40278 25.7106 3.38576 26.6254 3.60768C27.5402 3.8296 28.3825 4.28301 29.0716 4.92436C29.7606 5.5657 30.2732 6.37345 30.56 7.27H21.56V10.41H30.64C30.3896 11.341 29.8986 12.1896 29.2162 12.8705C28.5337 13.5515 27.6841 14.0407 26.7526 14.2891C25.821 14.5374 24.8406 14.5361 23.9097 14.2852C22.9789 14.0343 22.1306 13.5428 21.45 12.86L19.09 15.21C20.1179 16.2382 21.3835 16.997 22.7747 17.4191C24.166 17.8413 25.6398 17.9138 27.0658 17.6302C28.4917 17.3467 29.8257 16.7158 30.9496 15.7935C32.0735 14.8712 32.9525 13.6859 33.5088 12.3427C34.0652 10.9995 34.2816 9.5398 34.139 8.09294C33.9964 6.64609 33.4992 5.25673 32.6913 4.04798C31.8835 2.83922 30.7899 1.84837 29.5076 1.16321C28.2254 0.478047 26.7939 0.119731 25.34 0.120002V0.120002Z" fill="url(#paint16_linear_2_93)"/>
<path d="M4.82247 24.4832V30.58H3.78004V24.4832H4.82247ZM4.46748 27.2837V28.1401C4.25712 28.219 4.043 28.2904 3.82512 28.3543C3.611 28.4144 3.38373 28.4632 3.14331 28.5008C2.90665 28.5346 2.64933 28.5515 2.37135 28.5515C1.89051 28.5515 1.47354 28.4688 1.12043 28.3036C0.767318 28.1345 0.494971 27.8809 0.303389 27.5429C0.111807 27.201 0.0160159 26.7709 0.0160159 26.2525V24.4719H1.05845V26.2525C1.05845 26.5906 1.10916 26.8648 1.21059 27.0752C1.31201 27.2855 1.46039 27.4414 1.65573 27.5429C1.85107 27.6405 2.08961 27.6894 2.37135 27.6894C2.64182 27.6894 2.89538 27.6725 3.13204 27.6387C3.37246 27.6011 3.60161 27.5523 3.81948 27.4922C4.04112 27.432 4.25712 27.3626 4.46748 27.2837ZM7.62858 28.929L10.4403 24.4832H11.4884V30.58H10.4403V26.1342L7.62858 30.58H6.59179V24.4832H7.62858V28.929ZM15.6018 29.8362C15.8497 29.8362 16.0789 29.7855 16.2892 29.6841C16.4996 29.5826 16.6724 29.4437 16.8076 29.2671C16.9429 29.0868 17.0199 28.8821 17.0386 28.6529H18.0304C18.0116 29.0135 17.8895 29.3497 17.6641 29.6615C17.4425 29.9696 17.1513 30.2194 16.7907 30.411C16.4301 30.5988 16.0338 30.6927 15.6018 30.6927C15.1435 30.6927 14.7434 30.6119 14.4016 30.4504C14.0635 30.2889 13.7817 30.0672 13.5564 29.7855C13.3347 29.5038 13.1676 29.1807 13.0549 28.8163C12.9459 28.4482 12.8915 28.0594 12.8915 27.6499V27.4133C12.8915 27.0038 12.9459 26.6169 13.0549 26.2525C13.1676 25.8844 13.3347 25.5594 13.5564 25.2777C13.7817 24.9959 14.0635 24.7743 14.4016 24.6128C14.7434 24.4513 15.1435 24.3705 15.6018 24.3705C16.0789 24.3705 16.4958 24.4682 16.8527 24.6635C17.2096 24.8551 17.4894 25.118 17.6923 25.4524C17.8989 25.7829 18.0116 26.1586 18.0304 26.5793H17.0386C17.0199 26.3276 16.9485 26.1004 16.8245 25.8975C16.7043 25.6947 16.539 25.5331 16.3287 25.4129C16.1221 25.289 15.8798 25.227 15.6018 25.227C15.2825 25.227 15.0139 25.2908 14.796 25.4186C14.5819 25.5425 14.411 25.7116 14.2832 25.9257C14.1593 26.1361 14.0691 26.3708 14.0128 26.63C13.9602 26.8855 13.9339 27.1466 13.9339 27.4133V27.6499C13.9339 27.9166 13.9602 28.1796 14.0128 28.4388C14.0654 28.698 14.1536 28.9328 14.2776 29.1431C14.4053 29.3535 14.5763 29.5225 14.7904 29.6503C15.0082 29.7742 15.2787 29.8362 15.6018 29.8362ZM21.6873 24.4832V30.58H20.6393V24.4832H21.6873ZM23.7327 24.4832V25.3284H18.6333V24.4832H23.7327ZM25.6148 26.5793H27.4461C27.9382 26.5793 28.3533 26.6657 28.6913 26.8385C29.0294 27.0076 29.2849 27.2423 29.4577 27.5429C29.6342 27.8396 29.7225 28.1777 29.7225 28.5571C29.7225 28.8389 29.6737 29.1037 29.576 29.3516C29.4783 29.5958 29.3318 29.8099 29.1365 29.994C28.9449 30.1781 28.7064 30.3227 28.4209 30.4279C28.1391 30.5293 27.8142 30.58 27.4461 30.58H24.8541V24.4832H25.8965V29.7235H27.4461C27.7466 29.7235 27.987 29.669 28.1673 29.5601C28.3476 29.4512 28.4772 29.3103 28.5561 29.1375C28.635 28.9647 28.6744 28.7844 28.6744 28.5966C28.6744 28.4125 28.635 28.2322 28.5561 28.0556C28.4772 27.8791 28.3476 27.7326 28.1673 27.6161C27.987 27.4959 27.7466 27.4358 27.4461 27.4358H25.6148V26.5793ZM31.8919 24.4832V30.58H30.8495V24.4832H31.8919ZM34.8445 28.929L37.6562 24.4832H38.7043V30.58H37.6562V26.1342L34.8445 30.58H33.8077V24.4832H34.8445V28.929ZM37.0871 22.2744H37.9324C37.9324 22.5674 37.8647 22.8284 37.7295 23.0576C37.5943 23.283 37.4008 23.4595 37.1491 23.5873C36.8974 23.715 36.5988 23.7788 36.2532 23.7788C35.731 23.7788 35.3178 23.6398 35.0135 23.3619C34.713 23.0801 34.5628 22.7176 34.5628 22.2744H35.408C35.408 22.496 35.4718 22.6913 35.5996 22.8604C35.7273 23.0294 35.9452 23.1139 36.2532 23.1139C36.5537 23.1139 36.7678 23.0294 36.8956 22.8604C37.0233 22.6913 37.0871 22.496 37.0871 22.2744ZM47.179 24.4832V25.3453H44.3616V30.58H43.3192V24.4832H47.179ZM47.6974 27.5992V27.4696C47.6974 27.0301 47.7613 26.6225 47.889 26.2469C48.0167 25.8675 48.2008 25.5388 48.4412 25.2608C48.6816 24.979 48.9727 24.7612 49.3146 24.6072C49.6564 24.4494 50.0396 24.3705 50.4641 24.3705C50.8923 24.3705 51.2774 24.4494 51.6192 24.6072C51.9648 24.7612 52.2578 24.979 52.4982 25.2608C52.7424 25.5388 52.9283 25.8675 53.0561 26.2469C53.1838 26.6225 53.2476 27.0301 53.2476 27.4696V27.5992C53.2476 28.0387 53.1838 28.4463 53.0561 28.822C52.9283 29.1976 52.7424 29.5263 52.4982 29.808C52.2578 30.086 51.9667 30.3039 51.6248 30.4617C51.2867 30.6157 50.9036 30.6927 50.4753 30.6927C50.0471 30.6927 49.6621 30.6157 49.3202 30.4617C48.9784 30.3039 48.6854 30.086 48.4412 29.808C48.2008 29.5263 48.0167 29.1976 47.889 28.822C47.7613 28.4463 47.6974 28.0387 47.6974 27.5992ZM48.7398 27.4696V27.5992C48.7398 27.9035 48.7755 28.1909 48.8469 28.4613C48.9183 28.728 49.0253 28.9647 49.1681 29.1713C49.3146 29.3779 49.4968 29.5413 49.7146 29.6615C49.9325 29.778 50.1861 29.8362 50.4753 29.8362C50.7608 29.8362 51.0106 29.778 51.2248 29.6615C51.4426 29.5413 51.623 29.3779 51.7657 29.1713C51.9085 28.9647 52.0155 28.728 52.0869 28.4613C52.162 28.1909 52.1996 27.9035 52.1996 27.5992V27.4696C52.1996 27.1691 52.162 26.8855 52.0869 26.6188C52.0155 26.3483 51.9066 26.1098 51.7601 25.9031C51.6173 25.6928 51.437 25.5275 51.2191 25.4073C51.005 25.2871 50.7533 25.227 50.4641 25.227C50.1786 25.227 49.9269 25.2871 49.709 25.4073C49.4949 25.5275 49.3146 25.6928 49.1681 25.9031C49.0253 26.1098 48.9183 26.3483 48.8469 26.6188C48.7755 26.8855 48.7398 27.1691 48.7398 27.4696ZM55.5973 25.6552V32.9241H54.5493V24.4832H55.5072L55.5973 25.6552ZM59.7051 27.4809V27.5992C59.7051 28.0425 59.6525 28.4538 59.5473 28.8332C59.4421 29.2089 59.2881 29.5357 59.0853 29.8137C58.8862 30.0917 58.6401 30.3077 58.3471 30.4617C58.0541 30.6157 57.7179 30.6927 57.3385 30.6927C56.9516 30.6927 56.6097 30.6288 56.313 30.5011C56.0162 30.3734 55.7645 30.1874 55.5579 29.9433C55.3513 29.6991 55.186 29.4061 55.062 29.0642C54.9418 28.7224 54.8592 28.3374 54.8141 27.9091V27.278C54.8592 26.8272 54.9437 26.4234 55.0677 26.0666C55.1916 25.7097 55.355 25.4054 55.5579 25.1537C55.7645 24.8983 56.0143 24.7048 56.3073 24.5733C56.6003 24.4381 56.9384 24.3705 57.3216 24.3705C57.7047 24.3705 58.0447 24.4456 58.3415 24.5959C58.6382 24.7424 58.888 24.9527 59.0909 25.227C59.2938 25.5012 59.4459 25.8299 59.5473 26.2131C59.6525 26.5925 59.7051 27.0151 59.7051 27.4809ZM58.657 27.5992V27.4809C58.657 27.1766 58.6251 26.8911 58.5612 26.6244C58.4974 26.3539 58.3978 26.1173 58.2626 25.9144C58.1311 25.7078 57.9621 25.5463 57.7555 25.4298C57.5489 25.3096 57.3028 25.2495 57.0173 25.2495C56.7543 25.2495 56.5252 25.2946 56.3299 25.3847C56.1383 25.4749 55.9749 25.597 55.8396 25.751C55.7044 25.9013 55.5936 26.0741 55.5072 26.2694C55.4245 26.461 55.3626 26.6601 55.3212 26.8667V28.3261C55.3964 28.5891 55.5016 28.837 55.6368 29.0699C55.772 29.299 55.9523 29.485 56.1777 29.6277C56.4031 29.7667 56.6867 29.8362 57.0286 29.8362C57.3103 29.8362 57.5526 29.778 57.7555 29.6615C57.9621 29.5413 58.1311 29.3779 58.2626 29.1713C58.3978 28.9647 58.4974 28.728 58.5612 28.4613C58.6251 28.1909 58.657 27.9035 58.657 27.5992ZM60.7588 27.5992V27.4696C60.7588 27.0301 60.8226 26.6225 60.9504 26.2469C61.0781 25.8675 61.2622 25.5388 61.5026 25.2608C61.743 24.979 62.0341 24.7612 62.376 24.6072C62.7178 24.4494 63.101 24.3705 63.5255 24.3705C63.9537 24.3705 64.3387 24.4494 64.6806 24.6072C65.0262 24.7612 65.3192 24.979 65.5596 25.2608C65.8038 25.5388 65.9897 25.8675 66.1175 26.2469C66.2452 26.6225 66.309 27.0301 66.309 27.4696V27.5992C66.309 28.0387 66.2452 28.4463 66.1175 28.822C65.9897 29.1976 65.8038 29.5263 65.5596 29.808C65.3192 30.086 65.0281 30.3039 64.6862 30.4617C64.3481 30.6157 63.965 30.6927 63.5367 30.6927C63.1085 30.6927 62.7234 30.6157 62.3816 30.4617C62.0398 30.3039 61.7468 30.086 61.5026 29.808C61.2622 29.5263 61.0781 29.1976 60.9504 28.822C60.8226 28.4463 60.7588 28.0387 60.7588 27.5992ZM61.8012 27.4696V27.5992C61.8012 27.9035 61.8369 28.1909 61.9083 28.4613C61.9797 28.728 62.0867 28.9647 62.2295 29.1713C62.376 29.3779 62.5582 29.5413 62.776 29.6615C62.9939 29.778 63.2475 29.8362 63.5367 29.8362C63.8222 29.8362 64.072 29.778 64.2862 29.6615C64.504 29.5413 64.6843 29.3779 64.8271 29.1713C64.9698 28.9647 65.0769 28.728 65.1483 28.4613C65.2234 28.1909 65.261 27.9035 65.261 27.5992V27.4696C65.261 27.1691 65.2234 26.8855 65.1483 26.6188C65.0769 26.3483 64.968 26.1098 64.8215 25.9031C64.6787 25.6928 64.4984 25.5275 64.2805 25.4073C64.0664 25.2871 63.8147 25.227 63.5255 25.227C63.24 25.227 62.9883 25.2871 62.7704 25.4073C62.5563 25.5275 62.376 25.6928 62.2295 25.9031C62.0867 26.1098 61.9797 26.3483 61.9083 26.6188C61.8369 26.8855 61.8012 27.1691 61.8012 27.4696ZM68.3094 24.4832H69.3518L69.2616 26.7653C69.2391 27.3438 69.1734 27.8434 69.0644 28.2641C68.9555 28.6848 68.8165 29.0436 68.6475 29.3404C68.4784 29.6334 68.2887 29.8794 68.0783 30.0785C67.8717 30.2776 67.6576 30.4448 67.436 30.58H66.9176L66.9458 29.7292L67.1599 29.7235C67.2838 29.577 67.4041 29.4268 67.5205 29.2727C67.637 29.115 67.744 28.929 67.8417 28.7149C67.9394 28.497 68.0201 28.2322 68.084 27.9204C68.1516 27.6048 68.1948 27.2198 68.2136 26.7653L68.3094 24.4832ZM68.5686 24.4832H72.2368V30.58H71.1944V25.4467H68.5686V24.4832ZM66.6809 29.7235H73.02V32.3775H71.9776V30.58H67.7234V32.3775H66.6753L66.6809 29.7235Z" fill="#54A433"/>
<defs>
<linearGradient id="paint0_linear_2_93" x1="-13.16" y1="50.21" x2="203.49" y2="-23.97" gradientUnits="userSpaceOnUse">
<stop offset="1" stop-color="#54A433"/>
<stop offset="1" stop-color="#D6E6C0"/>
</linearGradient>
<linearGradient id="paint1_linear_2_93" x1="-141.767" y1="152.585" x2="895.32" y2="-1352.61" gradientUnits="userSpaceOnUse">
<stop offset="1" stop-color="#54A433"/>
<stop offset="1" stop-color="#D6E6C0"/>
</linearGradient>
<linearGradient id="paint2_linear_2_93" x1="13.3252" y1="671.475" x2="872.862" y2="608.749" gradientUnits="userSpaceOnUse">
<stop offset="1" stop-color="#54A433"/>
<stop offset="1" stop-color="#D6E6C0"/>
</linearGradient>
<linearGradient id="paint3_linear_2_93" x1="-90.8021" y1="103.179" x2="1012.25" y2="-883.074" gradientUnits="userSpaceOnUse">
<stop offset="1" stop-color="#54A433"/>
<stop offset="1" stop-color="#D6E6C0"/>
</linearGradient>
<linearGradient id="paint4_linear_2_93" x1="-134.379" y1="553.765" x2="2287.38" y2="-6.11799" gradientUnits="userSpaceOnUse">
<stop offset="1" stop-color="#54A433"/>
<stop offset="1" stop-color="#D6E6C0"/>
</linearGradient>
<linearGradient id="paint5_linear_2_93" x1="-309.173" y1="556.665" x2="3525.53" y2="-756.321" gradientUnits="userSpaceOnUse">
<stop offset="1" stop-color="#54A433"/>
<stop offset="1" stop-color="#D6E6C0"/>
</linearGradient>
<linearGradient id="paint6_linear_2_93" x1="-218.412" y1="69.285" x2="891.096" y2="-1069.18" gradientUnits="userSpaceOnUse">
<stop offset="1" stop-color="#54A433"/>
<stop offset="1" stop-color="#D6E6C0"/>
</linearGradient>
<linearGradient id="paint7_linear_2_93" x1="-92.106" y1="91.046" x2="745.01" y2="-59.4454" gradientUnits="userSpaceOnUse">
<stop offset="1" stop-color="#54A433"/>
<stop offset="1" stop-color="#D6E6C0"/>
</linearGradient>
<linearGradient id="paint8_linear_2_93" x1="-81.2175" y1="161.728" x2="755.926" y2="11.4662" gradientUnits="userSpaceOnUse">
<stop offset="1" stop-color="#54A433"/>
<stop offset="1" stop-color="#D6E6C0"/>
</linearGradient>
<linearGradient id="paint9_linear_2_93" x1="-70.8242" y1="357.078" x2="788.713" y2="294.352" gradientUnits="userSpaceOnUse">
<stop offset="1" stop-color="#54A433"/>
<stop offset="1" stop-color="#D6E6C0"/>
</linearGradient>
<linearGradient id="paint10_linear_2_93" x1="23.4041" y1="708.749" x2="882.959" y2="645.976" gradientUnits="userSpaceOnUse">
<stop offset="1" stop-color="#54A433"/>
<stop offset="1" stop-color="#D6E6C0"/>
</linearGradient>
<linearGradient id="paint11_linear_2_93" x1="76.0455" y1="905.11" x2="935.577" y2="842.347" gradientUnits="userSpaceOnUse">
<stop offset="1" stop-color="#54A433"/>
<stop offset="1" stop-color="#D6E6C0"/>
</linearGradient>
<linearGradient id="paint12_linear_2_93" x1="-14.4391" y1="437.329" x2="2187.32" y2="-543.202" gradientUnits="userSpaceOnUse">
<stop offset="1" stop-color="#54A433"/>
<stop offset="1" stop-color="#D6E6C0"/>
</linearGradient>
<linearGradient id="paint13_linear_2_93" x1="16.5048" y1="514.314" x2="2215.93" y2="-465.492" gradientUnits="userSpaceOnUse">
<stop offset="1" stop-color="#54A433"/>
<stop offset="1" stop-color="#D6E6C0"/>
</linearGradient>
<linearGradient id="paint14_linear_2_93" x1="-77.5553" y1="570.774" x2="2259.59" y2="-73.7507" gradientUnits="userSpaceOnUse">
<stop offset="1" stop-color="#54A433"/>
<stop offset="1" stop-color="#D6E6C0"/>
</linearGradient>
<linearGradient id="paint15_linear_2_93" x1="39.1181" y1="767.788" x2="898.655" y2="705.062" gradientUnits="userSpaceOnUse">
<stop offset="1" stop-color="#54A433"/>
<stop offset="1" stop-color="#D6E6C0"/>
</linearGradient>
<linearGradient id="paint16_linear_2_93" x1="-309.304" y1="443.711" x2="3056.13" y2="-539.901" gradientUnits="userSpaceOnUse">
<stop offset="1" stop-color="#54A433"/>
<stop offset="1" stop-color="#D6E6C0"/>
</linearGradient>
</defs>
</svg>
