<svg width="157" height="39" viewBox="0 0 157 39" fill="none" xmlns="http://www.w3.org/2000/svg">
<path d="M131.12 14.9702C130.214 15.8771 129.059 16.4948 127.802 16.7453C126.545 16.9958 125.242 16.8678 124.057 16.3775C122.873 15.8873 121.861 15.0567 121.148 13.991C120.436 12.9252 120.056 11.6721 120.056 10.3903C120.056 9.10838 120.436 7.85531 121.148 6.78955C121.861 5.7238 122.873 4.89324 124.057 4.40295C125.242 3.91267 126.545 3.78468 127.802 4.03519C129.059 4.28569 130.214 4.90343 131.12 5.81025L133.89 3.04025C132.437 1.58808 130.585 0.59941 128.57 0.199235C126.555 -0.200941 124.466 0.00534332 122.568 0.792C120.67 1.57866 119.048 2.91037 117.907 4.61881C116.765 6.32724 116.156 8.33569 116.156 10.3903C116.156 12.4448 116.765 14.4533 117.907 16.1617C119.048 17.8701 120.67 19.2018 122.568 19.9885C124.466 20.7752 126.555 20.9814 128.57 20.5813C130.585 20.1811 132.437 19.1924 133.89 17.7402L131.12 14.9702Z" fill="url(#paint0_linear_8_56)"/>
<path d="M87.58 16.55H71.94V20.2401H87.58V16.55Z" fill="url(#paint1_linear_8_56)"/>
<path d="M89.68 0.550049H85.49V20.2401H89.68V0.550049Z" fill="url(#paint2_linear_8_56)"/>
<path d="M87.58 0.550049H77.94V4.24005H87.58V0.550049Z" fill="url(#paint3_linear_8_56)"/>
<path d="M76.16 0.550026C76.1537 3.39954 75.3699 6.19332 73.8932 8.63036C72.4166 11.0674 70.3029 13.0554 67.78 14.38V18.81C69.251 18.2218 70.6447 17.4561 71.93 16.53C74.4842 14.7155 76.5675 12.3166 78.0061 9.53333C79.4447 6.75005 80.1969 3.66312 80.2 0.530029L76.16 0.550026Z" fill="url(#paint4_linear_8_56)"/>
<path d="M54.57 7.70233e-05C52.5163 0.00798428 50.5111 0.624312 48.8075 1.77122C47.1039 2.91812 45.7785 4.54416 44.9985 6.44395C44.2185 8.34374 44.019 10.4321 44.4253 12.4452C44.8315 14.4582 45.8252 16.3058 47.2808 17.7545C48.7365 19.2031 50.5888 20.1879 52.6038 20.5845C54.6188 20.981 56.7061 20.7715 58.6022 19.9824C60.4982 19.1933 62.1178 17.8601 63.2565 16.151C64.3952 14.4419 65.0019 12.4337 65 10.3801C64.9987 9.01311 64.7276 7.65984 64.2024 6.39781C63.6772 5.13577 62.9081 3.98979 61.9391 3.02553C60.9702 2.06126 59.8206 1.29767 58.556 0.778504C57.2915 0.25934 55.9369 -0.00518622 54.57 7.70233e-05V7.70233e-05ZM54.57 16.8701C53.2888 16.8701 52.0363 16.4903 50.9709 15.7787C49.9055 15.0671 49.0749 14.0557 48.5842 12.8722C48.0934 11.6887 47.9645 10.3863 48.2138 9.12956C48.463 7.87284 49.0792 6.7182 49.9844 5.81155C50.8896 4.90491 52.0433 4.28697 53.2997 4.03581C54.556 3.78465 55.8586 3.91155 57.0428 4.40047C58.2271 4.88939 59.2398 5.71839 59.953 6.78271C60.6663 7.84702 61.048 9.09888 61.05 10.3801C61.0513 11.2319 60.8846 12.0756 60.5596 12.8629C60.2345 13.6503 59.7574 14.3658 59.1556 14.9686C58.5537 15.5714 57.8389 16.0496 57.0521 16.3759C56.2652 16.7021 55.4218 16.8701 54.57 16.8701V16.8701Z" fill="url(#paint5_linear_8_56)"/>
<path d="M15.25 8.55005H4.19V12.2401H15.25V8.55005Z" fill="url(#paint6_linear_8_56)"/>
<path d="M4.19 0.550049H0V8.54005H4.19V0.550049Z" fill="url(#paint7_linear_8_56)"/>
<path d="M4.19 12.2402H0V20.2402H4.19V12.2402Z" fill="url(#paint8_linear_8_56)"/>
<path d="M17.71 0.550049H13.52V20.2401H17.71V0.550049Z" fill="url(#paint9_linear_8_56)"/>
<path d="M98.29 0.560059H94.1V20.2401H98.29V0.560059Z" fill="url(#paint10_linear_8_56)"/>
<path d="M143.29 0.560059H139.1V20.2401H143.29V0.560059Z" fill="url(#paint11_linear_8_56)"/>
<path d="M150.18 0.560059L143.29 7.45006L146.25 10.4101L156.11 0.560059H150.18Z" fill="url(#paint12_linear_8_56)"/>
<path d="M156.1 20.2402L146.25 10.4001L143.29 13.3602L150.17 20.2402H156.1Z" fill="url(#paint13_linear_8_56)"/>
<path d="M95.32 15.0201L98.29 17.9901L107.53 8.74006V2.81006L95.32 15.0201Z" fill="url(#paint14_linear_8_56)"/>
<path d="M107.53 0.550049V2.81005C107.53 4.81005 107.53 6.76005 107.53 8.74005V20.2401H111.72V0.550049H107.53Z" fill="url(#paint15_linear_8_56)"/>
<path d="M29.79 0.140099C28.4278 0.132375 27.0774 0.393371 25.8162 0.90815C24.555 1.42293 23.4077 2.18138 22.44 3.1401L25.21 5.9101C25.9904 5.12373 26.9604 4.55197 28.0263 4.2501C29.0923 3.94822 30.2181 3.92644 31.2949 4.18684C32.3717 4.44725 33.3631 4.98105 34.1734 5.73663C34.9836 6.49222 35.5852 7.44404 35.92 8.5001H25.34V12.1901H36C35.7064 13.2846 35.1296 14.2824 34.3277 15.083C33.5258 15.8837 32.5271 16.459 31.4322 16.751C30.3373 17.0429 29.1848 17.0413 28.0907 16.7462C26.9966 16.4512 25.9996 15.873 25.2 15.0701L22.43 17.8401C23.6384 19.0475 25.1258 19.9382 26.7606 20.4336C28.3954 20.929 30.1271 21.0137 31.8024 20.6801C33.4777 20.3466 35.0449 19.6051 36.3653 18.5214C37.6857 17.4377 38.7186 16.0451 39.3724 14.467C40.0263 12.8889 40.2809 11.174 40.1139 9.47396C39.9468 7.77396 39.3632 6.14137 38.4146 4.72073C37.4661 3.3001 36.182 2.13523 34.6759 1.32928C33.1698 0.523321 31.4882 0.101137 29.78 0.100098L29.79 0.140099Z" fill="url(#paint16_linear_8_56)"/>
<path d="M37.001 28.8309V36.0002H35.7752V28.8309H37.001ZM36.5836 32.124V33.1312C36.3362 33.224 36.0844 33.3079 35.8282 33.383C35.5764 33.4537 35.3092 33.5111 35.0265 33.5553C34.7482 33.595 34.4456 33.6149 34.1187 33.6149C33.5533 33.6149 33.063 33.5177 32.6478 33.3233C32.2325 33.1246 31.9123 32.8264 31.687 32.4288C31.4617 32.0269 31.3491 31.5211 31.3491 30.9115V28.8177H32.5749V30.9115C32.5749 31.3091 32.6345 31.6315 32.7538 31.8789C32.873 32.1263 33.0475 32.3096 33.2772 32.4288C33.5069 32.5437 33.7874 32.6011 34.1187 32.6011C34.4368 32.6011 34.7349 32.5812 35.0132 32.5415C35.2959 32.4973 35.5654 32.4399 35.8216 32.3692C36.0822 32.2985 36.3362 32.2168 36.5836 32.124ZM40.3008 34.0588L43.6071 28.8309H44.8396V36.0002H43.6071V30.7723L40.3008 36.0002H39.0816V28.8309H40.3008V34.0588ZM49.6765 35.1256C49.9681 35.1256 50.2375 35.066 50.4849 34.9467C50.7323 34.8274 50.9355 34.664 51.0945 34.4564C51.2535 34.2444 51.3441 34.0036 51.3661 33.7342H52.5323C52.5102 34.1582 52.3667 34.5536 52.1016 34.9202C51.841 35.2824 51.4987 35.5762 51.0746 35.8015C50.6505 36.0223 50.1845 36.1328 49.6765 36.1328C49.1376 36.1328 48.6672 36.0378 48.2652 35.8478C47.8676 35.6579 47.5363 35.3973 47.2713 35.066C47.0107 34.7347 46.8141 34.3548 46.6816 33.9263C46.5535 33.4934 46.4894 33.0362 46.4894 32.5547V32.2764C46.4894 31.795 46.5535 31.34 46.6816 30.9115C46.8141 30.4786 47.0107 30.0965 47.2713 29.7652C47.5363 29.4339 47.8676 29.1733 48.2652 28.9833C48.6672 28.7934 49.1376 28.6984 49.6765 28.6984C50.2375 28.6984 50.7278 28.8133 51.1475 29.043C51.5671 29.2683 51.8962 29.5775 52.1348 29.9706C52.3777 30.3593 52.5102 30.8011 52.5323 31.2958H51.3661C51.3441 30.9998 51.2601 30.7326 51.1144 30.4941C50.973 30.2555 50.7786 30.0656 50.5313 29.9242C50.2883 29.7785 50.0034 29.7056 49.6765 29.7056C49.3011 29.7056 48.9852 29.7807 48.729 29.9308C48.4772 30.0766 48.2762 30.2754 48.126 30.5272C47.9803 30.7746 47.8743 31.0506 47.808 31.3554C47.7462 31.6558 47.7152 31.9628 47.7152 32.2764V32.5547C47.7152 32.8684 47.7462 33.1776 47.808 33.4824C47.8698 33.7872 47.9736 34.0633 48.1194 34.3106C48.2696 34.558 48.4706 34.7568 48.7224 34.907C48.9786 35.0527 49.2966 35.1256 49.6765 35.1256ZM56.8326 28.8309V36.0002H55.6001V28.8309H56.8326ZM59.2378 28.8309V29.8248H53.2413V28.8309H59.2378ZM61.4509 31.2958H63.6043C64.183 31.2958 64.6711 31.3974 65.0687 31.6006C65.4662 31.7994 65.7666 32.0755 65.9698 32.4288C66.1774 32.7778 66.2812 33.1754 66.2812 33.6215C66.2812 33.9528 66.2238 34.2642 66.1089 34.5558C65.9941 34.8429 65.8218 35.0947 65.5921 35.3111C65.3668 35.5276 65.0863 35.6977 64.7506 35.8213C64.4193 35.9406 64.0372 36.0002 63.6043 36.0002H60.5564V28.8309H61.7822V34.9931H63.6043C63.9577 34.9931 64.2404 34.929 64.4525 34.8009C64.6645 34.6728 64.8169 34.5072 64.9096 34.304C65.0024 34.1008 65.0488 33.8888 65.0488 33.6679C65.0488 33.4515 65.0024 33.2394 64.9096 33.0318C64.8169 32.8242 64.6645 32.6519 64.4525 32.515C64.2404 32.3736 63.9577 32.3029 63.6043 32.3029H61.4509V31.2958ZM68.8322 28.8309V36.0002H67.6064V28.8309H68.8322ZM72.3042 34.0588L75.6106 28.8309H76.843V36.0002H75.6106V30.7723L72.3042 36.0002H71.0851V28.8309H72.3042V34.0588ZM74.9414 26.2336H75.9353C75.9353 26.5781 75.8558 26.8851 75.6967 27.1546C75.5377 27.4196 75.3102 27.6272 75.0143 27.7774C74.7183 27.9276 74.3671 28.0027 73.9607 28.0027C73.3467 28.0027 72.8608 27.8392 72.503 27.5124C72.1496 27.1811 71.9729 26.7548 71.9729 26.2336H72.9668C72.9668 26.4942 73.0419 26.7239 73.1921 26.9227C73.3423 27.1214 73.5985 27.2208 73.9607 27.2208C74.3141 27.2208 74.5659 27.1214 74.7161 26.9227C74.8663 26.7239 74.9414 26.4942 74.9414 26.2336ZM86.8085 28.8309V29.8447H83.4955V36.0002H82.2697V28.8309H86.8085ZM87.4181 32.4951V32.3427C87.4181 31.8259 87.4932 31.3466 87.6434 30.9049C87.7936 30.4587 88.01 30.0722 88.2927 29.7453C88.5754 29.414 88.9178 29.1578 89.3197 28.9767C89.7217 28.7912 90.1723 28.6984 90.6714 28.6984C91.175 28.6984 91.6278 28.7912 92.0298 28.9767C92.4362 29.1578 92.7807 29.414 93.0634 29.7453C93.3505 30.0722 93.5692 30.4587 93.7194 30.9049C93.8696 31.3466 93.9447 31.8259 93.9447 32.3427V32.4951C93.9447 33.0119 93.8696 33.4912 93.7194 33.9329C93.5692 34.3747 93.3505 34.7612 93.0634 35.0925C92.7807 35.4194 92.4384 35.6756 92.0364 35.8611C91.6388 36.0422 91.1883 36.1328 90.6847 36.1328C90.1811 36.1328 89.7283 36.0422 89.3264 35.8611C88.9244 35.6756 88.5798 35.4194 88.2927 35.0925C88.01 34.7612 87.7936 34.3747 87.6434 33.9329C87.4932 33.4912 87.4181 33.0119 87.4181 32.4951ZM88.6439 32.3427V32.4951C88.6439 32.8529 88.6859 33.1908 88.7698 33.5089C88.8537 33.8225 88.9796 34.1008 89.1475 34.3438C89.3197 34.5867 89.534 34.7789 89.7902 34.9202C90.0464 35.0571 90.3446 35.1256 90.6847 35.1256C91.0204 35.1256 91.3142 35.0571 91.5659 34.9202C91.8222 34.7789 92.0342 34.5867 92.202 34.3438C92.3699 34.1008 92.4958 33.8225 92.5797 33.5089C92.6681 33.1908 92.7122 32.8529 92.7122 32.4951V32.3427C92.7122 31.9893 92.6681 31.6558 92.5797 31.3422C92.4958 31.0241 92.3677 30.7436 92.1954 30.5007C92.0276 30.2533 91.8155 30.059 91.5593 29.9176C91.3075 29.7762 91.0116 29.7056 90.6714 29.7056C90.3357 29.7056 90.0398 29.7762 89.7836 29.9176C89.5318 30.059 89.3197 30.2533 89.1475 30.5007C88.9796 30.7436 88.8537 31.0241 88.7698 31.3422C88.6859 31.6558 88.6439 31.9893 88.6439 32.3427ZM96.7077 30.2091V38.7567H95.4753V28.8309H96.6017L96.7077 30.2091ZM101.538 32.356V32.4951C101.538 33.0163 101.476 33.5 101.353 33.9462C101.229 34.3879 101.048 34.7722 100.809 35.0991C100.575 35.426 100.286 35.68 99.9412 35.8611C99.5966 36.0422 99.2013 36.1328 98.7551 36.1328C98.3001 36.1328 97.8982 36.0577 97.5492 35.9075C97.2002 35.7573 96.9043 35.5386 96.6613 35.2515C96.4184 34.9644 96.224 34.6198 96.0782 34.2179C95.9369 33.8159 95.8397 33.3631 95.7867 32.8595V32.1174C95.8397 31.5873 95.9391 31.1125 96.0849 30.6928C96.2306 30.2732 96.4228 29.9154 96.6613 29.6194C96.9043 29.3191 97.198 29.0916 97.5426 28.937C97.8871 28.7779 98.2847 28.6984 98.7353 28.6984C99.1858 28.6984 99.5856 28.7868 99.9346 28.9635C100.284 29.1357 100.577 29.3831 100.816 29.7056C101.054 30.028 101.233 30.4145 101.353 30.8651C101.476 31.3113 101.538 31.8082 101.538 32.356ZM100.306 32.4951V32.356C100.306 31.9982 100.268 31.6624 100.193 31.3488C100.118 31.0308 100.001 30.7525 99.8418 30.5139C99.6872 30.271 99.4884 30.081 99.2455 29.9441C99.0025 29.8027 98.7132 29.7321 98.3775 29.7321C98.0682 29.7321 97.7988 29.7851 97.5691 29.8911C97.3438 29.9971 97.1516 30.1407 96.9926 30.3218C96.8336 30.4985 96.7033 30.7017 96.6017 30.9314C96.5045 31.1567 96.4316 31.3908 96.383 31.6337V33.3499C96.4714 33.6591 96.5951 33.9506 96.7541 34.2245C96.9131 34.4939 97.1251 34.7126 97.3902 34.8805C97.6552 35.0439 97.9887 35.1256 98.3907 35.1256C98.722 35.1256 99.0069 35.0571 99.2455 34.9202C99.4884 34.7789 99.6872 34.5867 99.8418 34.3438C100.001 34.1008 100.118 33.8225 100.193 33.5089C100.268 33.1908 100.306 32.8529 100.306 32.4951ZM102.777 32.4951V32.3427C102.777 31.8259 102.852 31.3466 103.002 30.9049C103.153 30.4587 103.369 30.0722 103.652 29.7453C103.934 29.414 104.277 29.1578 104.679 28.9767C105.081 28.7912 105.531 28.6984 106.03 28.6984C106.534 28.6984 106.987 28.7912 107.389 28.9767C107.795 29.1578 108.14 29.414 108.422 29.7453C108.71 30.0722 108.928 30.4587 109.078 30.9049C109.229 31.3466 109.304 31.8259 109.304 32.3427V32.4951C109.304 33.0119 109.229 33.4912 109.078 33.9329C108.928 34.3747 108.71 34.7612 108.422 35.0925C108.14 35.4194 107.797 35.6756 107.395 35.8611C106.998 36.0422 106.547 36.1328 106.044 36.1328C105.54 36.1328 105.087 36.0422 104.685 35.8611C104.283 35.6756 103.939 35.4194 103.652 35.0925C103.369 34.7612 103.153 34.3747 103.002 33.9329C102.852 33.4912 102.777 33.0119 102.777 32.4951ZM104.003 32.3427V32.4951C104.003 32.8529 104.045 33.1908 104.129 33.5089C104.213 33.8225 104.339 34.1008 104.506 34.3438C104.679 34.5867 104.893 34.7789 105.149 34.9202C105.405 35.0571 105.704 35.1256 106.044 35.1256C106.379 35.1256 106.673 35.0571 106.925 34.9202C107.181 34.7789 107.393 34.5867 107.561 34.3438C107.729 34.1008 107.855 33.8225 107.939 33.5089C108.027 33.1908 108.071 32.8529 108.071 32.4951V32.3427C108.071 31.9893 108.027 31.6558 107.939 31.3422C107.855 31.0241 107.727 30.7436 107.554 30.5007C107.387 30.2533 107.175 30.059 106.918 29.9176C106.667 29.7762 106.371 29.7056 106.03 29.7056C105.695 29.7056 105.399 29.7762 105.143 29.9176C104.891 30.059 104.679 30.2533 104.506 30.5007C104.339 30.7436 104.213 31.0241 104.129 31.3422C104.045 31.6558 104.003 31.9893 104.003 32.3427ZM111.656 28.8309H112.882L112.776 31.5145C112.749 32.1947 112.672 32.7822 112.544 33.277C112.416 33.7717 112.252 34.1936 112.053 34.5425C111.855 34.8871 111.632 35.1764 111.384 35.4105C111.141 35.6447 110.89 35.8412 110.629 36.0002H110.019L110.052 34.9997L110.304 34.9931C110.45 34.8208 110.591 34.6441 110.728 34.463C110.865 34.2775 110.991 34.0588 111.106 33.807C111.221 33.5508 111.316 33.2394 111.391 32.8728C111.47 32.5017 111.521 32.049 111.543 31.5145L111.656 28.8309ZM111.961 28.8309H116.274V36.0002H115.048V29.964H111.961V28.8309ZM109.741 34.9931H117.195V38.1139H115.969V36.0002H110.967V38.1139H109.734L109.741 34.9931Z" fill="#54A433"/>
<defs>
<linearGradient id="paint0_linear_8_56" x1="-15.47" y1="59.0203" x2="239.17" y2="-28.1698" gradientUnits="userSpaceOnUse">
<stop offset="1" stop-color="#54A433"/>
<stop offset="1" stop-color="#D6E6C0"/>
</linearGradient>
<linearGradient id="paint1_linear_8_56" x1="-208.485" y1="630.825" x2="1223.97" y2="-1448.06" gradientUnits="userSpaceOnUse">
<stop offset="1" stop-color="#54A433"/>
<stop offset="1" stop-color="#D6E6C0"/>
</linearGradient>
<linearGradient id="paint2_linear_8_56" x1="3.53355" y1="3184.42" x2="1189.27" y2="3098.03" gradientUnits="userSpaceOnUse">
<stop offset="1" stop-color="#54A433"/>
<stop offset="1" stop-color="#D6E6C0"/>
</linearGradient>
<linearGradient id="paint3_linear_8_56" x1="-139.056" y1="565.342" x2="1384.33" y2="-797.409" gradientUnits="userSpaceOnUse">
<stop offset="1" stop-color="#54A433"/>
<stop offset="1" stop-color="#D6E6C0"/>
</linearGradient>
<linearGradient id="paint4_linear_8_56" x1="-198.132" y1="2857.51" x2="3153.87" y2="2077.7" gradientUnits="userSpaceOnUse">
<stop offset="1" stop-color="#54A433"/>
<stop offset="1" stop-color="#D6E6C0"/>
</linearGradient>
<linearGradient id="paint5_linear_8_56" x1="-434.136" y1="3149.83" x2="4857.28" y2="1338.02" gradientUnits="userSpaceOnUse">
<stop offset="1" stop-color="#54A433"/>
<stop offset="1" stop-color="#D6E6C0"/>
</linearGradient>
<linearGradient id="paint6_linear_8_56" x1="-302.504" y1="517.143" x2="1230.08" y2="-1055.55" gradientUnits="userSpaceOnUse">
<stop offset="1" stop-color="#54A433"/>
<stop offset="1" stop-color="#D6E6C0"/>
</linearGradient>
<linearGradient id="paint7_linear_8_56" x1="-127.041" y1="1041.41" x2="1027.76" y2="834.054" gradientUnits="userSpaceOnUse">
<stop offset="1" stop-color="#54A433"/>
<stop offset="1" stop-color="#D6E6C0"/>
</linearGradient>
<linearGradient id="paint8_linear_8_56" x1="-112.041" y1="1138.08" x2="1042.85" y2="930.969" gradientUnits="userSpaceOnUse">
<stop offset="1" stop-color="#54A433"/>
<stop offset="1" stop-color="#D6E6C0"/>
</linearGradient>
<linearGradient id="paint9_linear_8_56" x1="-100.071" y1="2750.26" x2="1085.66" y2="2663.86" gradientUnits="userSpaceOnUse">
<stop offset="1" stop-color="#54A433"/>
<stop offset="1" stop-color="#D6E6C0"/>
</linearGradient>
<linearGradient id="paint10_linear_8_56" x1="15.9564" y1="3234.77" x2="1201.69" y2="3148.33" gradientUnits="userSpaceOnUse">
<stop offset="1" stop-color="#54A433"/>
<stop offset="1" stop-color="#D6E6C0"/>
</linearGradient>
<linearGradient id="paint11_linear_8_56" x1="80.7335" y1="3506.36" x2="1266.46" y2="3419.92" gradientUnits="userSpaceOnUse">
<stop offset="1" stop-color="#54A433"/>
<stop offset="1" stop-color="#D6E6C0"/>
</linearGradient>
<linearGradient id="paint12_linear_8_56" x1="-45.1641" y1="1733.08" x2="2997.73" y2="377.016" gradientUnits="userSpaceOnUse">
<stop offset="1" stop-color="#54A433"/>
<stop offset="1" stop-color="#D6E6C0"/>
</linearGradient>
<linearGradient id="paint13_linear_8_56" x1="-2.48793" y1="1836.7" x2="3037.8" y2="481.489" gradientUnits="userSpaceOnUse">
<stop offset="1" stop-color="#54A433"/>
<stop offset="1" stop-color="#D6E6C0"/>
</linearGradient>
<linearGradient id="paint14_linear_8_56" x1="-123.849" y1="2528.76" x2="3104.92" y2="1639.52" gradientUnits="userSpaceOnUse">
<stop offset="1" stop-color="#54A433"/>
<stop offset="1" stop-color="#D6E6C0"/>
</linearGradient>
<linearGradient id="paint15_linear_8_56" x1="35.2944" y1="3317.53" x2="1221.03" y2="3231.13" gradientUnits="userSpaceOnUse">
<stop offset="1" stop-color="#54A433"/>
<stop offset="1" stop-color="#D6E6C0"/>
</linearGradient>
<linearGradient id="paint16_linear_8_56" x1="-431.198" y1="2994.71" x2="4217.04" y2="1636.45" gradientUnits="userSpaceOnUse">
<stop offset="1" stop-color="#54A433"/>
<stop offset="1" stop-color="#D6E6C0"/>
</linearGradient>
</defs>
</svg>
