<svg width="72" height="72" viewBox="0 0 72 72" fill="none" xmlns="http://www.w3.org/2000/svg">
<path d="M36 35.05C39.9599 35.05 43.17 31.8399 43.17 27.88C43.17 23.9201 39.9599 20.71 36 20.71C32.0401 20.71 28.83 23.9201 28.83 27.88C28.83 31.8399 32.0401 35.05 36 35.05Z" stroke="url(#paint0_linear_4_34)" stroke-width="2" stroke-miterlimit="10"/>
<path d="M37 1H35V10.13H37V1Z" fill="url(#paint1_linear_4_34)"/>
<path d="M37 61.87H35V71H37V61.87Z" fill="url(#paint2_linear_4_34)"/>
<path d="M10.13 35H1V37H10.13V35Z" fill="url(#paint3_linear_4_34)"/>
<path d="M71 35H61.87V37H71V35Z" fill="url(#paint4_linear_4_34)"/>
<path d="M36 71C55.33 71 71 55.33 71 36C71 16.67 55.33 1 36 1C16.67 1 1 16.67 1 36C1 55.33 16.67 71 36 71Z" stroke="url(#paint5_linear_4_34)" stroke-width="2" stroke-miterlimit="10"/>
<path d="M36 35.06C40.957 35.0584 45.7184 36.9942 49.2681 40.4542C52.8178 43.9142 54.8748 48.6245 55 53.58C58.4224 49.889 60.6937 45.2798 61.5356 40.3172C62.3774 35.3547 61.7533 30.2543 59.7397 25.6411C57.7261 21.028 54.4104 17.1024 50.199 14.3456C45.9876 11.5887 41.0635 10.1203 36.03 10.1203C30.9965 10.1203 26.0723 11.5887 21.861 14.3456C17.6496 17.1024 14.3339 21.028 12.3203 25.6411C10.3066 30.2543 9.68252 35.3547 10.5244 40.3172C11.3663 45.2798 13.6376 49.889 17.06 53.58C17.1849 48.6349 19.2335 43.9335 22.7704 40.4751C26.3072 37.0167 31.0533 35.074 36 35.06V35.06Z" stroke="url(#paint6_linear_4_34)" stroke-width="2" stroke-miterlimit="10"/>
<path d="M36 61.87C39.5684 61.879 43.0997 61.1467 46.3703 59.7197C49.6409 58.2927 52.5796 56.202 55 53.58C54.7273 48.7333 52.6099 44.1748 49.0822 40.8401C45.5546 37.5053 40.8843 35.6473 36.03 35.6473C31.1756 35.6473 26.5054 37.5053 22.9778 40.8401C19.4501 44.1748 17.3327 48.7333 17.06 53.58C19.4736 56.1945 22.4025 58.2809 25.6622 59.7076C28.9219 61.1344 32.4417 61.8707 36 61.87V61.87Z" stroke="url(#paint7_linear_4_34)" stroke-width="2" stroke-miterlimit="10"/>
<defs>
<linearGradient id="paint0_linear_4_34" x1="27.83" y1="27.88" x2="44.17" y2="27.88" gradientUnits="userSpaceOnUse">
<stop offset="100%" stop-color="#88BD4D"/>
</linearGradient>
<linearGradient id="paint1_linear_4_34" x1="41.24" y1="-32.3245" x2="225.334" y2="-21.027" gradientUnits="userSpaceOnUse">
<stop offset="100%" stop-color="#88BD4D"/>
</linearGradient>
<linearGradient id="paint2_linear_4_34" x1="9.62" y1="543.934" x2="193.714" y2="555.232" gradientUnits="userSpaceOnUse">
<stop offset="100%" stop-color="#88BD4D"/>
</linearGradient>
<linearGradient id="paint3_linear_4_34" x1="-62.91" y1="99.96" x2="257.165" y2="509.291" gradientUnits="userSpaceOnUse">
<stop offset="100%" stop-color="#88BD4D"/>
</linearGradient>
<linearGradient id="paint4_linear_4_34" x1="38.4059" y1="68.34" x2="358.481" y2="477.671" gradientUnits="userSpaceOnUse">
<stop offset="100%" stop-color="#88BD4D"/>
</linearGradient>
<linearGradient id="paint5_linear_4_34" x1="1" y1="2521" x2="5041" y2="2521" gradientUnits="userSpaceOnUse">
<stop offset="100%" stop-color="#88BD4D"/>
</linearGradient>
<linearGradient id="paint6_linear_4_34" x1="482.546" y1="1426.91" x2="3263.06" y2="1426.91" gradientUnits="userSpaceOnUse">
<stop offset="100%" stop-color="#88BD4D"/>
</linearGradient>
<linearGradient id="paint7_linear_4_34" x1="363.452" y1="1306.4" x2="2402.35" y2="1306.4" gradientUnits="userSpaceOnUse">
<stop offset="100%" stop-color="#88BD4D"/>
</linearGradient>
</defs>
</svg>
