<svg width="72" height="72" viewBox="0 0 72 72" fill="none" xmlns="http://www.w3.org/2000/svg">
<path d="M36 71C55.33 71 71 55.33 71 36C71 16.67 55.33 1 36 1C16.67 1 1 16.67 1 36C1 55.33 16.67 71 36 71Z" stroke="url(#paint0_linear_4_44)" stroke-width="2" stroke-miterlimit="10"/>
<path d="M36 49.33C43.3619 49.33 49.33 43.362 49.33 36C49.33 28.6381 43.3619 22.67 36 22.67C28.638 22.67 22.67 28.6381 22.67 36C22.67 43.362 28.638 49.33 36 49.33Z" stroke="url(#paint1_linear_4_44)" stroke-width="2" stroke-miterlimit="10"/>
<path d="M36 39.04C37.679 39.04 39.04 37.6789 39.04 36C39.04 34.321 37.679 32.96 36 32.96C34.3211 32.96 32.96 34.321 32.96 36C32.96 37.6789 34.3211 39.04 36 39.04Z" stroke="url(#paint2_linear_4_44)" stroke-width="2" stroke-miterlimit="10"/>
<path d="M61.87 40.7H55.61C55.5403 40.7005 55.4728 40.7244 55.4183 40.7679C55.3639 40.8115 55.3257 40.8721 55.31 40.94C54.839 42.7745 54.1083 44.5323 53.14 46.16C53.0994 46.215 53.0775 46.2816 53.0775 46.35C53.0775 46.4184 53.0994 46.485 53.14 46.54L57.62 51L51 57.62L46.57 53.19C46.515 53.1494 46.4484 53.1275 46.38 53.1275C46.3116 53.1275 46.245 53.1494 46.19 53.19C44.5623 54.1583 42.8045 54.889 40.97 55.36C40.9021 55.3757 40.8415 55.4139 40.7979 55.4683C40.7544 55.5228 40.7305 55.5903 40.73 55.66V61.92H31.3V55.61C31.2996 55.5403 31.2756 55.4728 31.2321 55.4183C31.1885 55.3639 31.1279 55.3257 31.06 55.31C29.2255 54.839 27.4678 54.1083 25.84 53.14C25.785 53.0994 25.7184 53.0775 25.65 53.0775C25.5816 53.0775 25.515 53.0994 25.46 53.14L21 57.62L14.38 51L18.81 46.57C18.8631 46.5236 18.8975 46.4594 18.9067 46.3894C18.9159 46.3195 18.8993 46.2486 18.86 46.19C17.8917 44.5623 17.161 42.8045 16.69 40.97C16.6743 40.9021 16.6361 40.8415 16.5817 40.7979C16.5272 40.7544 16.4597 40.7305 16.39 40.73H10.13V31.3H16.39C16.4597 31.2996 16.5272 31.2756 16.5817 31.2321C16.6361 31.1885 16.6743 31.1279 16.69 31.06C17.161 29.2255 17.8917 27.4678 18.86 25.84C18.8938 25.7798 18.9072 25.7102 18.8982 25.6417C18.8892 25.5732 18.8582 25.5095 18.81 25.46L14.38 21L21 14.38L25.43 18.81C25.4795 18.8582 25.5432 18.8892 25.6117 18.8982C25.6802 18.9072 25.7498 18.8938 25.81 18.86C27.4378 17.8917 29.1955 17.161 31.03 16.69C31.0979 16.6743 31.1585 16.6361 31.2021 16.5817C31.2456 16.5272 31.2696 16.4597 31.27 16.39V10.13H40.67V16.39C40.6705 16.4597 40.6944 16.5272 40.7379 16.5817C40.7815 16.6361 40.8421 16.6743 40.91 16.69C42.7445 17.161 44.5023 17.8917 46.13 18.86C46.1903 18.8938 46.2598 18.9072 46.3283 18.8982C46.3968 18.8892 46.4605 18.8582 46.51 18.81L51 14.38L57.62 21L53.19 25.43C53.1494 25.485 53.1275 25.5516 53.1275 25.62C53.1275 25.6884 53.1494 25.755 53.19 25.81C54.1583 27.4378 54.889 29.1955 55.36 31.03C55.3757 31.0979 55.4139 31.1585 55.4683 31.2021C55.5228 31.2456 55.5903 31.2696 55.66 31.27H61.92L61.87 40.7Z" stroke="url(#paint3_linear_4_44)" stroke-width="2" stroke-miterlimit="10"/>
<defs>
<linearGradient id="paint0_linear_4_44" x1="-2.10745e-08" y1="36" x2="72" y2="36" gradientUnits="userSpaceOnUse">
<stop offset="100%" stop-color="#88BD4D"/>
</linearGradient>
<linearGradient id="paint1_linear_4_44" x1="600.392" y1="22.67" x2="1364.47" y2="22.67" gradientUnits="userSpaceOnUse">
<stop offset="100%" stop-color="#88BD4D"/>
</linearGradient>
<linearGradient id="paint2_linear_4_44" x1="227.277" y1="32.96" x2="276.403" y2="32.96" gradientUnits="userSpaceOnUse">
<stop offset="100%" stop-color="#88BD4D"/>
</linearGradient>
<linearGradient id="paint3_linear_4_44" x1="482.973" y1="10.13" x2="3266.17" y2="10.13" gradientUnits="userSpaceOnUse">
<stop offset="100%" stop-color="#88BD4D"/>
</linearGradient>
</defs>
</svg>
