<svg width="19" height="19" viewBox="0 0 19 19" fill="none" xmlns="http://www.w3.org/2000/svg">
<path d="M18.41 9.21C18.4303 7.0786 17.7155 5.00532 16.3859 3.33934C15.0563 1.67335 13.1933 0.51645 11.1104 0.0634752C9.02764 -0.3895 6.85236 -0.110874 4.95096 0.852429C3.04957 1.81573 1.53822 3.40485 0.671469 5.35216C-0.195285 7.29947 -0.364491 9.48598 0.192348 11.5435C0.749186 13.6009 1.99805 15.4037 3.7286 16.648C5.45916 17.8924 7.56567 18.5024 9.69337 18.3752C11.8211 18.2481 13.84 17.3916 15.41 15.95H5.26001V7.75L10.85 12.49L16.44 7.76V14.83C17.7105 13.2318 18.4046 11.2517 18.41 9.21V9.21ZM6.77001 6.48H14.94L10.85 9.94L6.77001 6.48Z" fill="#666666"/>
</svg>
