<svg width="14" height="14" viewBox="0 0 14 14" fill="none" xmlns="http://www.w3.org/2000/svg">
<path d="M7.75 11.66C6.20093 10.5943 4.98701 9.10981 4.25001 7.38C3.95322 6.82196 3.75689 6.21606 3.67001 5.59C3.63007 5.31477 3.63007 5.03523 3.67001 4.76C3.72563 4.38603 3.85947 4.02798 4.0628 3.70921C4.26612 3.39045 4.53435 3.11812 4.85001 2.91C4.9456 2.8323 5.05629 2.77529 5.17507 2.74259C5.29384 2.70988 5.41811 2.70219 5.54001 2.72L5.99001 2.82C6.14001 2.82 6.35001 2.82 6.47001 3.3C6.59001 3.78 6.88001 5.06 6.92001 5.19C6.95592 5.25417 6.97477 5.32647 6.97477 5.4C6.97477 5.47353 6.95592 5.54583 6.92001 5.61C6.85999 5.70159 6.79314 5.7885 6.72001 5.87L6.56001 6C6.42001 6.12 6.26001 6.27 6.13001 6.36C6.00001 6.45 5.85001 6.57 5.94001 6.83C6.20378 7.48766 6.56076 8.10397 7.00001 8.66C7.48933 9.25919 8.07788 9.76994 8.74 10.17C8.96 10.33 9.10001 10.33 9.27001 10.17C9.44001 10.01 9.98001 9.58 10.18 9.37C10.38 9.16 10.54 9.22 10.74 9.37C10.94 9.52 12.03 10.26 12.26 10.42L12.42 10.53C13.3879 9.11514 13.8029 7.3943 13.5864 5.69379C13.37 3.99328 12.537 2.43132 11.2455 1.30407C9.95405 0.176828 8.29382 -0.437329 6.57966 -0.421947C4.86549 -0.406564 3.21656 0.237288 1.94552 1.38753C0.674475 2.53777 -0.130307 4.11443 -0.316234 5.81855C-0.50216 7.52267 -0.0563034 9.23578 0.936796 10.633C1.9299 12.0303 3.40119 13.0146 5.07171 13.3993C6.74223 13.7839 8.49583 13.5422 10 12.72C9.19862 12.488 8.43916 12.1302 7.75 11.66V11.66Z" fill="url(#paint0_linear_2_117)"/>
<defs>
<linearGradient id="paint0_linear_2_117" x1="5.19081e-06" y1="6.78" x2="13.55" y2="6.78" gradientUnits="userSpaceOnUse">
<stop offset="1" stop-color="#88BD4D"/>
<stop offset="1" stop-color="#D6E6C0"/>
</linearGradient>
</defs>
</svg>
