<svg width="77" height="48" viewBox="0 0 77 48" fill="none" xmlns="http://www.w3.org/2000/svg">
<g clip-path="url(#clip0)">
<path d="M0.0613708 27.0828L0.125105 14.0238H5.04681L5.14595 17.2319H8.39404V8.29634H12.8224V11.2757L14.8855 11.1601L14.8902 16.0855L17.907 16.3945V23.6789L21.0913 23.6458V20.2113H25.2246V23.6458H27.5875L27.4671 11.1601L37.3318 11.0468L37.6268 23.417H40.8749V18.6072H42.9404V15.8567H45.5983V19.5225H47.6661V23.6458H52.3896V17.6896H62.7263V23.877H66.5645V11.7333H75.4236V29.1445H0.125105L0.0613708 27.0828Z" fill="#DFF2D7"/>
<path d="M47.7086 24.1719L64.1662 16.1516C63.6184 15.0273 62.9978 13.9399 62.3085 12.8962L47.0288 22.983C47.2817 23.3637 47.5088 23.7609 47.7086 24.1719Z" fill="#367527"/>
<path d="M46.2026 21.8908L60.0424 9.90748C59.221 8.96087 58.3387 8.06887 57.401 7.23718L45.2419 20.9189C45.582 21.2227 45.9029 21.5472 46.2026 21.8908Z" fill="#367527"/>
<path d="M44.1655 20.0839L54.4314 4.93251C53.3912 4.22896 52.3062 3.59385 51.1834 3.03122L43.0041 19.3998C43.4055 19.6027 43.7934 19.8312 44.1655 20.0839Z" fill="#367527"/>
<path d="M41.7412 18.8714L47.7063 1.5734C46.5392 1.17276 45.3479 0.846575 44.1395 0.596802H44.1088L40.4004 18.5246H40.4335C40.8761 18.6133 41.3128 18.7291 41.7412 18.8714Z" fill="#367527"/>
<path d="M48.7496 29.1421C48.7673 28.7917 48.7673 28.4405 48.7496 28.0901L67.0272 27.0002C67.0579 27.5074 67.1216 28.3519 67.1641 29.1421H48.7496Z" fill="#367527"/>
<path d="M9.57903 29.1421C9.57903 28.3094 9.57902 27.472 9.6522 26.644L27.9109 27.9815C27.883 28.3678 27.8775 28.7553 27.8944 29.1421H9.57903Z" fill="#367527"/>
<path d="M48.5726 26.7478L66.5457 23.2637C66.3059 22.0334 65.9866 20.8199 65.5896 19.631L48.2256 25.4363C48.3694 25.8655 48.4853 26.3036 48.5726 26.7478Z" fill="#367527"/>
<path d="M29.6766 22.8816L14.5243 12.6037C13.8176 13.6449 13.1805 14.7316 12.617 15.8567L28.9944 24.0445C29.1957 23.6422 29.4236 23.2537 29.6766 22.8816Z" fill="#367527"/>
<path d="M31.4847 20.8458L19.5145 7.00128C18.5658 7.82042 17.6716 8.7006 16.8376 9.6362L30.5122 21.8035C30.8149 21.4633 31.1398 21.1433 31.4847 20.8458Z" fill="#367527"/>
<path d="M28.1044 26.6086C28.1963 26.1636 28.3161 25.7247 28.4632 25.2947L11.1582 19.3219C10.7545 20.4935 10.4257 21.6895 10.1739 22.9028V22.9264L28.1139 26.6299L28.1044 26.6086Z" fill="#367527"/>
<path d="M36.3474 18.4822L32.8822 0.516602C31.6502 0.750868 30.435 1.06608 29.2446 1.46017L35.035 18.8171C35.4645 18.6763 35.9029 18.5644 36.3474 18.4822Z" fill="#367527"/>
<path d="M39.0526 18.3241L40.3816 0.0754828C39.1293 -0.015717 37.8723 -0.0243853 36.6189 0.0495345L37.6929 18.3147C38.1459 18.2883 38.6 18.2915 39.0526 18.3241Z" fill="#367527"/>
<path d="M33.7697 19.3432L25.7675 2.88731C24.6423 3.43491 23.5534 4.05423 22.5076 4.74143L32.5777 20.0225C32.9602 19.771 33.3583 19.5441 33.7697 19.3432Z" fill="#367527"/>
<path d="M28.7017 29.1421C28.7017 29.0289 28.7017 28.918 28.7017 28.8048C28.7892 26.2997 29.8466 23.9265 31.651 22.1853C33.4553 20.4441 35.8656 19.4709 38.3739 19.4709C40.8822 19.4709 43.2926 20.4441 45.0969 22.1853C46.9012 23.9265 47.9586 26.2997 48.0462 28.8048C48.0462 28.918 48.0462 29.0289 48.0462 29.1421H49.7269C49.7269 29.0289 49.7269 28.918 49.7269 28.8048C49.6839 25.8236 48.4686 22.979 46.3437 20.886C44.2189 18.793 41.3551 17.6196 38.3716 17.6196C35.388 17.6196 32.5243 18.793 30.3994 20.886C28.2745 22.979 27.0593 25.8236 27.0162 28.8048C27.0162 28.918 27.0162 29.0289 27.0162 29.1421H28.7017Z" fill="#367527"/>
<path d="M33.0474 29.1421C33.0332 28.9747 33.0238 28.8072 33.0238 28.6373C33.0238 27.2215 33.5866 25.8637 34.5884 24.8626C35.5902 23.8615 36.9489 23.2991 38.3657 23.2991C39.7824 23.2991 41.1412 23.8615 42.1429 24.8626C43.1447 25.8637 43.7075 27.2215 43.7075 28.6373C43.7075 28.8072 43.7075 28.9747 43.6816 29.1421H46.9344C46.9344 28.9747 46.9509 28.8072 46.9509 28.6373C46.9136 26.3881 45.9933 24.2437 44.3884 22.6663C42.7835 21.0889 40.6226 20.2049 38.3716 20.2049C36.1205 20.2049 33.9596 21.0889 32.3548 22.6663C30.7499 24.2437 29.8296 26.3881 29.7922 28.6373C29.7922 28.8072 29.7922 28.9747 29.8088 29.1421H33.0474Z" fill="#6AB256"/>
<path d="M9.24855 45.6216H6.3333V41.7529H2.90581V45.6216H0V35.5301H2.90581V39.1015H6.3333V35.5301H9.24855V45.6216Z" fill="black"/>
<path d="M14.5125 45.8032C13.9508 45.8087 13.3922 45.7193 12.8602 45.539C12.3956 45.3822 11.9653 45.138 11.5926 44.8195C11.2714 44.5422 10.9817 44.2306 10.7286 43.8901C10.4963 43.5685 10.3037 43.22 10.155 42.8522L12.6572 41.6421C12.7801 42.0617 13.034 42.4312 13.3818 42.6965C13.7359 42.9754 14.175 43.1245 14.6258 43.1188C15.5874 43.1188 16.2444 42.7004 16.5969 41.8638H13.3181V39.1911H16.5402C16.1736 38.4347 15.5354 38.0565 14.6258 38.0565C14.1746 38.0505 13.7351 38.2005 13.3818 38.4811C13.0357 38.743 12.7819 39.1082 12.6572 39.5238L10.155 38.2995C10.493 37.4807 11.035 36.762 11.7295 36.2118C12.4329 35.6457 13.3606 35.3634 14.5125 35.365C16.0374 35.365 17.2964 35.8485 18.2894 36.8157C19.2824 37.7829 19.782 39.0355 19.7883 40.5735C19.7883 42.1068 19.2871 43.3601 18.2847 44.3336C17.7864 44.8185 17.1958 45.1984 16.5478 45.4509C15.8998 45.7033 15.2077 45.8231 14.5125 45.8032Z" fill="black"/>
<path d="M29.3036 44.3478C28.2823 45.2867 26.9452 45.8078 25.5574 45.8078C24.1697 45.8078 22.8326 45.2867 21.8113 44.3478C20.8088 43.3743 20.3076 42.1209 20.3076 40.5876C20.3076 39.0543 20.8088 37.801 21.8113 36.8275C22.8333 35.8901 24.1702 35.37 25.5574 35.37C26.9447 35.37 28.2815 35.8901 29.3036 36.8275C30.3076 37.801 30.8088 39.0543 30.8073 40.5876C30.8057 42.1209 30.3045 43.3743 29.3036 44.3478ZM23.8956 42.3875C24.1076 42.6165 24.3646 42.7992 24.6506 42.9241C24.9366 43.0491 25.2453 43.1136 25.5574 43.1136C25.8696 43.1136 26.1783 43.0491 26.4643 42.9241C26.7503 42.7992 27.0073 42.6165 27.2193 42.3875C27.6329 41.8787 27.8587 41.2432 27.8587 40.5876C27.8587 39.9321 27.6329 39.2965 27.2193 38.7878C27.0073 38.5588 26.7503 38.3761 26.4643 38.2512C26.1783 38.1262 25.8696 38.0617 25.5574 38.0617C25.2453 38.0617 24.9366 38.1262 24.6506 38.2512C24.3646 38.3761 24.1076 38.5588 23.8956 38.7878C23.482 39.2965 23.2562 39.9321 23.2562 40.5876C23.2562 41.2432 23.482 41.8787 23.8956 42.3875Z" fill="black"/>
<path d="M35.0208 47.4827V43.1093C35.4582 43.0442 35.8542 42.8147 36.1279 42.4677C36.3875 42.128 36.5693 41.5241 36.6755 40.6136L37.2657 35.5301H44.758V42.9583H45.5912V47.4827H42.6854V45.6216H37.9266V47.4827H35.0208ZM39.5672 40.84C39.4913 41.6313 39.1599 42.3765 38.623 42.9631H41.8451V38.198H39.8764L39.5672 40.84Z" fill="black"/>
<path d="M49.3468 45.6216H46.5567V35.5301H49.4601V40.9155L52.7979 35.5301H55.7887V45.6216H52.8853V39.9035L49.3468 45.6216Z" fill="black"/>
<path d="M62.1031 45.8032C61.4078 45.825 60.7152 45.707 60.0664 45.4562C59.4176 45.2053 58.8259 44.8268 58.3263 44.343C57.3239 43.3696 56.8226 42.1162 56.8226 40.5829C56.8226 39.0496 57.3215 37.7915 58.3192 36.8086C59.3154 35.8415 60.5743 35.3579 62.0961 35.3579C63.2456 35.3579 64.1757 35.6386 64.8791 36.2047C65.5736 36.755 66.1156 37.4737 66.4536 38.2924L63.9514 39.5167C63.8234 39.1089 63.5769 38.7484 63.2433 38.4811C62.925 38.2029 62.5165 38.0495 62.0937 38.0494C61.7769 38.0393 61.4618 38.0991 61.1709 38.2247C60.88 38.3503 60.6204 38.5385 60.4106 38.776C59.9928 39.2828 59.7643 39.9191 59.7643 40.5758C59.7643 41.2325 59.9928 41.8688 60.4106 42.3757C60.6201 42.6135 60.8796 42.802 61.1706 42.9276C61.4616 43.0533 61.7769 43.1129 62.0937 43.1022C62.5165 43.1021 62.925 42.9488 63.2433 42.6706C63.5774 42.4037 63.8241 42.0431 63.9514 41.635L66.4536 42.8451C66.304 43.2125 66.1115 43.5609 65.88 43.883C65.6269 44.2235 65.3372 44.5351 65.016 44.8125C64.6419 45.1314 64.21 45.3757 63.7437 45.5319C63.2158 45.7131 62.6613 45.8048 62.1031 45.8032Z" fill="black"/>
<path d="M76.5 45.6216H72.9592L70.8017 42.0667L70.2706 42.8215V45.6216H67.3671V35.5301H70.2729V39.3044L72.7893 35.5301H76.3418L72.7184 40.2196L76.5 45.6216Z" fill="black"/>
</g>
<defs>
<clipPath id="clip0">
<rect width="76.5" height="47.4828" fill="white"/>
</clipPath>
</defs>
</svg>
