<svg width="157" height="154" viewBox="0 0 157 154" fill="none" xmlns="http://www.w3.org/2000/svg">
<path d="M131.12 129.59C130.214 130.497 129.059 131.115 127.802 131.365C126.545 131.616 125.242 131.488 124.057 130.997C122.873 130.507 121.861 129.676 121.148 128.611C120.436 127.545 120.056 126.292 120.056 125.01C120.056 123.728 120.436 122.475 121.148 121.409C121.861 120.344 122.873 119.513 124.057 119.023C125.242 118.532 126.545 118.404 127.802 118.655C129.059 118.905 130.214 119.523 131.12 120.43L133.89 117.66C132.437 116.208 130.585 115.219 128.57 114.819C126.555 114.419 124.466 114.625 122.568 115.412C120.67 116.198 119.048 117.53 117.907 119.239C116.765 120.947 116.156 122.955 116.156 125.01C116.156 127.065 116.765 129.073 117.907 130.781C119.048 132.49 120.67 133.822 122.568 134.608C124.466 135.395 126.555 135.601 128.57 135.201C130.585 134.801 132.437 133.812 133.89 132.36L131.12 129.59Z" fill="url(#paint0_linear_7_9)"/>
<path d="M87.58 131.17H71.94V134.86H87.58V131.17Z" fill="url(#paint1_linear_7_9)"/>
<path d="M89.68 115.17H85.49V134.86H89.68V115.17Z" fill="url(#paint2_linear_7_9)"/>
<path d="M87.58 115.17H77.94V118.86H87.58V115.17Z" fill="url(#paint3_linear_7_9)"/>
<path d="M76.16 115.17C76.1536 118.02 75.3699 120.813 73.8932 123.25C72.4165 125.687 70.3029 127.675 67.78 129V133.43C69.251 132.842 70.6446 132.076 71.93 131.15C74.4842 129.336 76.5675 126.937 78.0061 124.153C79.4447 121.37 80.1969 118.283 80.2 115.15L76.16 115.17Z" fill="url(#paint4_linear_7_9)"/>
<path d="M54.57 114.62C52.5163 114.628 50.5111 115.244 48.8075 116.391C47.104 117.538 45.7785 119.164 44.9985 121.064C44.2185 122.964 44.0191 125.052 44.4253 127.065C44.8315 129.078 45.8252 130.926 47.2808 132.374C48.7365 133.823 50.5888 134.808 52.6038 135.204C54.6188 135.601 56.7062 135.391 58.6022 134.602C60.4982 133.813 62.1179 132.48 63.2566 130.771C64.3953 129.062 65.002 127.054 65 125C64.9987 123.633 64.7277 122.28 64.2024 121.018C63.6772 119.756 62.9081 118.61 61.9392 117.645C60.9703 116.681 59.8206 115.918 58.5561 115.398C57.2915 114.879 55.937 114.615 54.57 114.62V114.62ZM54.57 131.49C53.2888 131.49 52.0364 131.11 50.9709 130.399C49.9055 129.687 49.075 128.676 48.5842 127.492C48.0935 126.309 47.9646 125.006 48.2138 123.749C48.463 122.493 49.0792 121.338 49.9844 120.431C50.8897 119.525 52.0434 118.907 53.2997 118.656C54.556 118.405 55.8586 118.531 57.0429 119.02C58.2271 119.509 59.2398 120.338 59.9531 121.403C60.6663 122.467 61.048 123.719 61.05 125C61.0513 125.852 60.8847 126.696 60.5596 127.483C60.2346 128.27 59.7574 128.986 59.1556 129.589C58.5537 130.191 57.8389 130.67 57.0521 130.996C56.2653 131.322 55.4218 131.49 54.57 131.49V131.49Z" fill="url(#paint5_linear_7_9)"/>
<path d="M15.25 123.17H4.19V126.86H15.25V123.17Z" fill="url(#paint6_linear_7_9)"/>
<path d="M4.19 115.17H0V123.16H4.19V115.17Z" fill="url(#paint7_linear_7_9)"/>
<path d="M4.19 126.86H0V134.86H4.19V126.86Z" fill="url(#paint8_linear_7_9)"/>
<path d="M17.71 115.17H13.52V134.86H17.71V115.17Z" fill="url(#paint9_linear_7_9)"/>
<path d="M98.29 115.18H94.1V134.86H98.29V115.18Z" fill="url(#paint10_linear_7_9)"/>
<path d="M143.29 115.18H139.1V134.86H143.29V115.18Z" fill="url(#paint11_linear_7_9)"/>
<path d="M150.18 115.18L143.29 122.07L146.25 125.03L156.11 115.18H150.18Z" fill="url(#paint12_linear_7_9)"/>
<path d="M156.1 134.86L146.25 125.02L143.29 127.98L150.17 134.86H156.1Z" fill="url(#paint13_linear_7_9)"/>
<path d="M95.32 129.64L98.29 132.61L107.53 123.36V117.43L95.32 129.64Z" fill="url(#paint14_linear_7_9)"/>
<path d="M107.53 115.17V117.43C107.53 119.43 107.53 121.38 107.53 123.36V134.86H111.72V115.17H107.53Z" fill="url(#paint15_linear_7_9)"/>
<path d="M29.79 114.76C28.4278 114.752 27.0774 115.013 25.8162 115.528C24.555 116.043 23.4077 116.801 22.44 117.76L25.21 120.53C25.9904 119.744 26.9604 119.172 28.0263 118.87C29.0923 118.568 30.2181 118.546 31.2949 118.807C32.3717 119.067 33.3631 119.601 34.1734 120.357C34.9836 121.112 35.5852 122.064 35.92 123.12H25.34V126.81H36C35.7064 127.904 35.1296 128.902 34.3277 129.703C33.5258 130.504 32.5271 131.079 31.4322 131.371C30.3373 131.663 29.1848 131.661 28.0907 131.366C26.9966 131.071 25.9996 130.493 25.2 129.69L22.43 132.46C23.6384 133.667 25.1258 134.558 26.7606 135.054C28.3954 135.549 30.1271 135.634 31.8024 135.3C33.4777 134.966 35.0449 134.225 36.3653 133.141C37.6857 132.058 38.7186 130.665 39.3724 129.087C40.0263 127.509 40.2809 125.794 40.1139 124.094C39.9468 122.394 39.3632 120.761 38.4146 119.341C37.4661 117.92 36.182 116.755 34.6759 115.949C33.1698 115.143 31.4882 114.721 29.78 114.72L29.79 114.76Z" fill="url(#paint16_linear_7_9)"/>
<path d="M37.0011 143.451V150.62H35.7753V143.451H37.0011ZM36.5836 146.744V147.751C36.3363 147.844 36.0845 147.928 35.8283 148.003C35.5765 148.073 35.3092 148.131 35.0265 148.175C34.7482 148.215 34.4456 148.235 34.1188 148.235C33.5533 148.235 33.063 148.137 32.6478 147.943C32.2326 147.744 31.9123 147.446 31.687 147.049C31.4617 146.647 31.3491 146.141 31.3491 145.531V143.437H32.5749V145.531C32.5749 145.929 32.6345 146.251 32.7538 146.499C32.8731 146.746 33.0476 146.929 33.2773 147.049C33.507 147.163 33.7875 147.221 34.1188 147.221C34.4368 147.221 34.735 147.201 35.0133 147.161C35.296 147.117 35.5654 147.06 35.8216 146.989C36.0823 146.918 36.3363 146.837 36.5836 146.744ZM40.3008 148.679L43.6072 143.451H44.8396V150.62H43.6072V145.392L40.3008 150.62H39.0816V143.451H40.3008V148.679ZM49.6766 149.745C49.9681 149.745 50.2376 149.686 50.4849 149.566C50.7323 149.447 50.9355 149.284 51.0945 149.076C51.2535 148.864 51.3441 148.623 51.3662 148.354H52.5324C52.5103 148.778 52.3667 149.173 52.1017 149.54C51.841 149.902 51.4987 150.196 51.0746 150.421C50.6506 150.642 50.1845 150.753 49.6766 150.753C49.1376 150.753 48.6672 150.658 48.2652 150.468C47.8677 150.278 47.5364 150.017 47.2713 149.686C47.0107 149.354 46.8141 148.975 46.6816 148.546C46.5535 148.113 46.4895 147.656 46.4895 147.174V146.896C46.4895 146.415 46.5535 145.96 46.6816 145.531C46.8141 145.098 47.0107 144.716 47.2713 144.385C47.5364 144.054 47.8677 143.793 48.2652 143.603C48.6672 143.413 49.1376 143.318 49.6766 143.318C50.2376 143.318 50.7279 143.433 51.1475 143.663C51.5672 143.888 51.8963 144.197 52.1348 144.59C52.3777 144.979 52.5103 145.421 52.5324 145.916H51.3662C51.3441 145.62 51.2602 145.352 51.1144 145.114C50.973 144.875 50.7787 144.685 50.5313 144.544C50.2884 144.398 50.0034 144.325 49.6766 144.325C49.3011 144.325 48.9852 144.4 48.729 144.551C48.4773 144.696 48.2763 144.895 48.1261 145.147C47.9803 145.394 47.8743 145.67 47.808 145.975C47.7462 146.276 47.7153 146.583 47.7153 146.896V147.174C47.7153 147.488 47.7462 147.797 47.808 148.102C47.8699 148.407 47.9737 148.683 48.1195 148.93C48.2696 149.178 48.4706 149.377 48.7224 149.527C48.9786 149.672 49.2967 149.745 49.6766 149.745ZM56.8326 143.451V150.62H55.6002V143.451H56.8326ZM59.2378 143.451V144.445H53.2413V143.451H59.2378ZM61.4509 145.916H63.6044C64.183 145.916 64.6711 146.017 65.0687 146.22C65.4663 146.419 65.7666 146.695 65.9698 147.049C66.1774 147.398 66.2813 147.795 66.2813 148.241C66.2813 148.573 66.2238 148.884 66.109 149.176C65.9941 149.463 65.8219 149.714 65.5922 149.931C65.3669 150.147 65.0864 150.317 64.7507 150.441C64.4194 150.56 64.0373 150.62 63.6044 150.62H60.5564V143.451H61.7822V149.613H63.6044C63.9577 149.613 64.2405 149.549 64.4525 149.421C64.6645 149.293 64.8169 149.127 64.9097 148.924C65.0024 148.721 65.0488 148.509 65.0488 148.288C65.0488 148.071 65.0024 147.859 64.9097 147.652C64.8169 147.444 64.6645 147.272 64.4525 147.135C64.2405 146.993 63.9577 146.923 63.6044 146.923H61.4509V145.916ZM68.8323 143.451V150.62H67.6064V143.451H68.8323ZM72.3043 148.679L75.6106 143.451H76.8431V150.62H75.6106V145.392L72.3043 150.62H71.0851V143.451H72.3043V148.679ZM74.9414 140.853H75.9353C75.9353 141.198 75.8558 141.505 75.6968 141.774C75.5377 142.039 75.3103 142.247 75.0143 142.397C74.7183 142.547 74.3672 142.622 73.9608 142.622C73.3468 142.622 72.8608 142.459 72.503 142.132C72.1497 141.801 71.973 141.375 71.973 140.853H72.9669C72.9669 141.114 73.042 141.344 73.1921 141.542C73.3423 141.741 73.5985 141.841 73.9608 141.841C74.3141 141.841 74.5659 141.741 74.7161 141.542C74.8663 141.344 74.9414 141.114 74.9414 140.853ZM86.8085 143.451V144.464H83.4955V150.62H82.2697V143.451H86.8085ZM87.4181 147.115V146.962C87.4181 146.446 87.4932 145.966 87.6434 145.525C87.7936 145.078 88.01 144.692 88.2927 144.365C88.5755 144.034 88.9178 143.778 89.3198 143.596C89.7217 143.411 90.1723 143.318 90.6715 143.318C91.175 143.318 91.6278 143.411 92.0298 143.596C92.4362 143.778 92.7807 144.034 93.0635 144.365C93.3506 144.692 93.5692 145.078 93.7194 145.525C93.8696 145.966 93.9447 146.446 93.9447 146.962V147.115C93.9447 147.632 93.8696 148.111 93.7194 148.553C93.5692 148.994 93.3506 149.381 93.0635 149.712C92.7807 150.039 92.4384 150.295 92.0364 150.481C91.6389 150.662 91.1883 150.753 90.6847 150.753C90.1812 150.753 89.7284 150.662 89.3264 150.481C88.9244 150.295 88.5799 150.039 88.2927 149.712C88.01 149.381 87.7936 148.994 87.6434 148.553C87.4932 148.111 87.4181 147.632 87.4181 147.115ZM88.6439 146.962V147.115C88.6439 147.473 88.6859 147.811 88.7698 148.129C88.8537 148.442 88.9796 148.721 89.1475 148.964C89.3198 149.206 89.534 149.399 89.7902 149.54C90.0464 149.677 90.3446 149.745 90.6847 149.745C91.0204 149.745 91.3142 149.677 91.566 149.54C91.8222 149.399 92.0342 149.206 92.2021 148.964C92.3699 148.721 92.4958 148.442 92.5798 148.129C92.6681 147.811 92.7123 147.473 92.7123 147.115V146.962C92.7123 146.609 92.6681 146.276 92.5798 145.962C92.4958 145.644 92.3677 145.363 92.1954 145.12C92.0276 144.873 91.8156 144.679 91.5594 144.537C91.3076 144.396 91.0116 144.325 90.6715 144.325C90.3358 144.325 90.0398 144.396 89.7836 144.537C89.5318 144.679 89.3198 144.873 89.1475 145.12C88.9796 145.363 88.8537 145.644 88.7698 145.962C88.6859 146.276 88.6439 146.609 88.6439 146.962ZM96.7077 144.829V153.376H95.4753V143.451H96.6017L96.7077 144.829ZM101.538 146.976V147.115C101.538 147.636 101.476 148.12 101.353 148.566C101.229 149.008 101.048 149.392 100.809 149.719C100.575 150.046 100.286 150.3 99.9412 150.481C99.5967 150.662 99.2013 150.753 98.7552 150.753C98.3002 150.753 97.8982 150.677 97.5492 150.527C97.2003 150.377 96.9043 150.158 96.6614 149.871C96.4184 149.584 96.224 149.24 96.0783 148.838C95.9369 148.436 95.8397 147.983 95.7867 147.479V146.737C95.8397 146.207 95.9391 145.732 96.0849 145.313C96.2307 144.893 96.4228 144.535 96.6614 144.239C96.9043 143.939 97.1981 143.711 97.5426 143.557C97.8872 143.398 98.2847 143.318 98.7353 143.318C99.1859 143.318 99.5856 143.407 99.9346 143.583C100.284 143.755 100.577 144.003 100.816 144.325C101.054 144.648 101.233 145.034 101.353 145.485C101.476 145.931 101.538 146.428 101.538 146.976ZM100.306 147.115V146.976C100.306 146.618 100.268 146.282 100.193 145.969C100.118 145.651 100.001 145.372 99.8418 145.134C99.6872 144.891 99.4884 144.701 99.2455 144.564C99.0025 144.422 98.7132 144.352 98.3775 144.352C98.0683 144.352 97.7988 144.405 97.5691 144.511C97.3438 144.617 97.1517 144.76 96.9927 144.942C96.8336 145.118 96.7033 145.321 96.6017 145.551C96.5045 145.776 96.4317 146.011 96.3831 146.253V147.97C96.4714 148.279 96.5951 148.57 96.7541 148.844C96.9131 149.114 97.1252 149.332 97.3902 149.5C97.6553 149.664 97.9888 149.745 98.3907 149.745C98.722 149.745 99.007 149.677 99.2455 149.54C99.4884 149.399 99.6872 149.206 99.8418 148.964C100.001 148.721 100.118 148.442 100.193 148.129C100.268 147.811 100.306 147.473 100.306 147.115ZM102.777 147.115V146.962C102.777 146.446 102.852 145.966 103.002 145.525C103.153 145.078 103.369 144.692 103.652 144.365C103.934 144.034 104.277 143.778 104.679 143.596C105.081 143.411 105.531 143.318 106.03 143.318C106.534 143.318 106.987 143.411 107.389 143.596C107.795 143.778 108.14 144.034 108.422 144.365C108.71 144.692 108.928 145.078 109.078 145.525C109.229 145.966 109.304 146.446 109.304 146.962V147.115C109.304 147.632 109.229 148.111 109.078 148.553C108.928 148.994 108.71 149.381 108.422 149.712C108.14 150.039 107.797 150.295 107.395 150.481C106.998 150.662 106.547 150.753 106.044 150.753C105.54 150.753 105.087 150.662 104.685 150.481C104.283 150.295 103.939 150.039 103.652 149.712C103.369 149.381 103.153 148.994 103.002 148.553C102.852 148.111 102.777 147.632 102.777 147.115ZM104.003 146.962V147.115C104.003 147.473 104.045 147.811 104.129 148.129C104.213 148.442 104.339 148.721 104.507 148.964C104.679 149.206 104.893 149.399 105.149 149.54C105.405 149.677 105.704 149.745 106.044 149.745C106.379 149.745 106.673 149.677 106.925 149.54C107.181 149.399 107.393 149.206 107.561 148.964C107.729 148.721 107.855 148.442 107.939 148.129C108.027 147.811 108.071 147.473 108.071 147.115V146.962C108.071 146.609 108.027 146.276 107.939 145.962C107.855 145.644 107.727 145.363 107.554 145.12C107.387 144.873 107.175 144.679 106.918 144.537C106.667 144.396 106.371 144.325 106.03 144.325C105.695 144.325 105.399 144.396 105.143 144.537C104.891 144.679 104.679 144.873 104.507 145.12C104.339 145.363 104.213 145.644 104.129 145.962C104.045 146.276 104.003 146.609 104.003 146.962ZM111.656 143.451H112.882L112.776 146.134C112.749 146.814 112.672 147.402 112.544 147.897C112.416 148.391 112.252 148.813 112.053 149.162C111.855 149.507 111.632 149.796 111.384 150.03C111.141 150.264 110.89 150.461 110.629 150.62H110.019L110.052 149.619L110.304 149.613C110.45 149.441 110.591 149.264 110.728 149.083C110.865 148.897 110.991 148.679 111.106 148.427C111.221 148.171 111.316 147.859 111.391 147.493C111.47 147.121 111.521 146.669 111.543 146.134L111.656 143.451ZM111.961 143.451H116.274V150.62H115.048V144.584H111.961V143.451ZM109.741 149.613H117.195V152.734H115.969V150.62H110.967V152.734H109.734L109.741 149.613Z" fill="#54A433"/>


<g class="circle">
  <path d="M71.91 21.44C73.5263 23.8441 74.8206 26.4496 75.76 29.19C76.3941 29.1175 77.0318 29.0808 77.67 29.08H78C76.2384 23.6522 73.1891 18.7316 69.1124 14.7386C65.0358 10.7455 60.0531 7.79874 54.59 6.14999C53.74 6.63999 52.9 7.14999 52.08 7.68999C60.1831 9.61843 67.2628 14.5275 71.91 21.44Z" fill="url(#paint17_linear_7_9)"/>
  <path d="M72.4 29.91C73.1075 29.6831 73.829 29.5027 74.56 29.37C71.7832 24.4009 67.8529 20.172 63.1002 17.0395C58.3474 13.9069 52.9113 11.9625 47.25 11.37C46.52 12.01 45.81 12.66 45.12 13.37C50.6833 13.6433 56.0909 15.2987 60.8539 18.1865C65.6169 21.0743 69.5851 25.1035 72.4 29.91V29.91Z" fill="url(#paint18_linear_7_9)"/>
  <path d="M79.06 29.15C79.7957 29.2077 80.5272 29.3113 81.25 29.46C80.5265 23.8014 78.4598 18.3981 75.2223 13.7011C71.9849 9.00411 67.6707 5.1498 62.64 2.46001C61.72 2.76667 60.81 3.10001 59.91 3.46001C64.9919 5.80439 69.4064 9.38319 72.7512 13.8703C76.096 18.3574 78.2648 23.6102 79.06 29.15V29.15Z" fill="url(#paint19_linear_7_9)"/>
  <path d="M66.24 33.44C66.7753 32.9664 67.3362 32.5224 67.92 32.11C61.7153 27.3487 54.1209 24.7528 46.3 24.72C42.7663 24.7209 39.2531 25.257 35.88 26.31C35.46 27.19 35.08 28.08 34.71 28.99C38.412 27.5802 42.3386 26.8518 46.3 26.84C53.4828 26.8427 60.474 29.1568 66.24 33.44Z" fill="url(#paint20_linear_7_9)"/>
  <path d="M69.33 31.24C69.974 30.8806 70.6423 30.5665 71.33 30.3C68.0032 26.3466 63.854 23.1665 59.1717 20.9817C54.4895 18.7969 49.3869 17.6599 44.22 17.65C43.22 17.65 42.22 17.7 41.22 17.79C40.62 18.56 40.04 19.34 39.48 20.15C41.0655 19.9088 42.6663 19.7818 44.27 19.77C49.0199 19.8054 53.7086 20.8457 58.0277 22.8226C62.3469 24.7995 66.1987 27.6681 69.33 31.24V31.24Z" fill="url(#paint21_linear_7_9)"/>
  <path d="M55.87 33.16C58.6872 33.7125 61.4203 34.6302 64 35.89C64.4415 35.301 64.9191 34.7399 65.43 34.21C62.5412 32.7527 59.4657 31.6995 56.29 31.08C54.0333 30.6384 51.7395 30.4141 49.44 30.41C43.6567 30.417 37.9646 31.8528 32.87 34.59C32.63 35.51 32.42 36.45 32.24 37.39C37.4215 34.2202 43.3759 32.5387 49.45 32.53C51.6051 32.5373 53.7546 32.7482 55.87 33.16V33.16Z" fill="url(#paint22_linear_7_9)"/>
  <path d="M82.33 21.06C82.8735 23.9566 83.0249 26.9131 82.78 29.85C83.4912 30.0755 84.1862 30.3495 84.86 30.67C85.4158 24.9826 84.5833 19.2452 82.434 13.9502C80.2847 8.65529 76.8827 3.96092 72.52 0.270004C71.52 0.380004 70.52 0.530004 69.59 0.700004C76.2352 5.65296 80.7812 12.918 82.33 21.06V21.06Z" fill="url(#paint23_linear_7_9)"/>
  <path d="M91.55 24.49C90.9653 27.4455 89.983 30.3082 88.63 33C89.1913 33.4729 89.7223 33.9806 90.22 34.52C92.8817 29.4614 94.2726 23.8311 94.2726 18.115C94.2726 12.3989 92.8817 6.76859 90.22 1.71001C89.28 1.44001 88.33 1.20001 87.36 0.990005C91.6282 8.03057 93.1219 16.4082 91.55 24.49Z" fill="url(#paint24_linear_7_9)"/>
  <path d="M103.27 40.54C100.655 42.2927 97.8026 43.6632 94.8 44.61C94.8 45.16 94.88 45.72 94.88 46.29C94.88 46.47 94.88 46.65 94.88 46.83C98.2908 45.8062 101.53 44.2794 104.49 42.3C110.996 37.9054 115.849 31.4651 118.28 24C117.82 23.15 117.28 22.33 116.8 21.51C114.752 29.2867 109.943 36.0515 103.27 40.54V40.54Z" fill="url(#paint25_linear_7_9)"/>
  <path d="M94.17 41.4C94.3726 42.1126 94.5296 42.8374 94.64 43.57C99.6701 40.8996 103.985 37.0593 107.22 32.3726C110.455 27.6858 112.516 22.2901 113.23 16.64C112.62 15.9 111.98 15.19 111.32 14.49C110.92 20.0467 109.143 25.4164 106.149 30.1145C103.155 34.8126 99.0381 38.6911 94.17 41.4V41.4Z" fill="url(#paint26_linear_7_9)"/>
  <path d="M104 45.39C101.065 46.6299 97.9663 47.4415 94.8 47.8C94.7365 48.5402 94.6229 49.2752 94.46 50C100.112 49.4153 105.542 47.4826 110.292 44.3644C115.043 41.2461 118.975 37.0334 121.76 32.08C121.46 31.16 121.13 30.25 120.76 29.36C117.289 36.5492 111.337 42.242 104 45.39V45.39Z" fill="url(#paint27_linear_7_9)"/>
  <path d="M85.85 31.15C86.5013 31.5064 87.1292 31.9039 87.73 32.34C89.3549 26.8607 89.6278 21.0693 88.5254 15.4615C87.4229 9.85365 84.9781 4.59648 81.4 0.14C80.4 0.07 79.4 0.02 78.4 0C82.1757 4.13743 84.8362 9.16783 86.1308 14.6174C87.4254 20.0671 87.3115 25.7565 85.8 31.15H85.85Z" fill="url(#paint28_linear_7_9)"/>
  <path d="M103.65 51C101.584 51.3992 99.4843 51.6001 97.38 51.6C96.291 51.5952 95.2029 51.5351 94.12 51.42C93.8969 52.1019 93.6331 52.7697 93.33 53.42C94.6569 53.5884 95.9925 53.6785 97.33 53.69C99.5955 53.6878 101.856 53.4702 104.08 53.04C111.702 51.5974 118.632 47.6735 123.79 41.88C123.7 40.88 123.58 39.96 123.43 39.02C118.493 45.2636 111.47 49.5172 103.65 51V51Z" fill="url(#paint29_linear_7_9)"/>
  <path d="M62.19 38.79C62.5086 38.1276 62.8693 37.4862 63.27 36.87C57.8343 35.3452 52.1135 35.1377 46.5817 36.2646C41.0498 37.3915 35.8661 39.8204 31.46 43.35C31.4 44.35 31.36 45.29 31.36 46.27C37.4581 40.7272 45.4093 37.6666 53.65 37.69C56.5321 37.6884 59.4024 38.0582 62.19 38.79V38.79Z" fill="url(#paint30_linear_7_9)"/>
  <path d="M90.93 35.33C91.3969 35.8934 91.8245 36.4881 92.21 37.11C94.3902 34.4209 96.1564 31.4211 97.45 28.21C100.425 20.8182 100.806 12.6361 98.53 5.00001C97.65 4.55001 96.76 4.13001 95.85 3.74001C97.7829 8.99791 98.3454 14.6613 97.4847 20.1967C96.6239 25.7321 94.3682 30.9573 90.93 35.38V35.33Z" fill="url(#paint31_linear_7_9)"/>
  <path d="M99.18 31.59C97.4503 34.1422 95.3699 36.438 93 38.41C93.3333 39.0584 93.6271 39.7262 93.88 40.41C98.3345 36.8472 101.856 32.255 104.142 27.0289C106.427 21.8028 107.408 16.0994 107 10.41C106.24 9.8 105.47 9.21 104.67 8.64C105.724 16.7048 103.769 24.875 99.18 31.59V31.59Z" fill="url(#paint32_linear_7_9)"/>
  <path d="M61.51 52.17C61.2579 51.4867 61.0475 50.7888 60.88 50.08C55.9856 52.7993 51.8036 56.6375 48.6753 61.2812C45.5471 65.9249 43.5613 71.2425 42.88 76.8C43.5 77.5133 44.14 78.2033 44.8 78.87C45.1898 73.3925 46.917 68.0942 49.8303 63.4392C52.7435 58.7843 56.7539 54.9149 61.51 52.17V52.17Z" fill="url(#paint33_linear_7_9)"/>
  <path d="M76.92 63.47C76.1991 63.4395 75.481 63.3627 74.77 63.24C75.3825 68.7987 77.289 74.1365 80.3368 78.8253C83.3845 83.5142 87.4887 87.4236 92.32 90.24C93.21 89.95 94.09 89.62 94.96 89.24C90.0759 86.7461 85.8775 83.0929 82.7326 78.6003C79.5876 74.1077 77.5918 68.9127 76.92 63.47V63.47Z" fill="url(#paint34_linear_7_9)"/>
  <path d="M83.2 62.58C82.507 62.8201 81.7987 63.0138 81.08 63.16C83.6878 68.1214 87.4331 72.395 92.0094 75.6313C96.5857 78.8676 101.863 80.9746 107.41 81.78C108.13 81.17 108.83 80.54 109.52 79.89C104.052 79.3762 98.7935 77.5296 94.2049 74.5118C89.6164 71.494 85.8377 67.3971 83.2 62.58V62.58Z" fill="url(#paint35_linear_7_9)"/>
  <path d="M84.17 71.9C82.3989 69.2514 81.0181 66.3618 80.07 63.32C79.3543 63.4221 78.6329 63.4789 77.91 63.49C79.4942 68.8692 82.3477 73.789 86.2303 77.8351C90.1128 81.8813 94.9107 84.9353 100.22 86.74C101.04 86.28 101.84 85.8 102.63 85.29C95.086 83.1518 88.5449 78.4072 84.17 71.9Z" fill="url(#paint36_linear_7_9)"/>
  <path d="M93.12 67.8C90.466 65.9924 88.088 63.8097 86.06 61.32C85.4137 61.672 84.7457 61.9826 84.06 62.25C87.354 66.4385 91.556 69.8244 96.3492 72.1526C101.142 74.4807 106.401 75.6902 111.73 75.69C112.31 75.69 112.88 75.69 113.46 75.61C114.05 74.89 114.62 74.14 115.17 73.38C107.373 74.2235 99.532 72.2438 93.07 67.8H93.12Z" fill="url(#paint37_linear_7_9)"/>
  <path d="M102.39 55.69C99.1778 55.6799 95.9842 55.2015 92.91 54.27C92.5729 54.9185 92.192 55.5433 91.77 56.14C97.155 57.8629 102.876 58.2598 108.448 57.297C114.019 56.3342 119.276 54.0402 123.77 50.61C123.86 49.67 123.91 48.72 123.94 47.76C117.934 52.8925 110.29 55.7055 102.39 55.69V55.69Z" fill="url(#paint38_linear_7_9)"/>
  <path d="M91.16 57C90.7048 57.5769 90.2138 58.1246 89.69 58.64C94.9103 61.4664 100.754 62.9444 106.69 62.94C112.052 62.9374 117.342 61.713 122.16 59.36C122.42 58.46 122.66 57.54 122.87 56.61C117.94 59.3637 112.387 60.8063 106.74 60.8C101.316 60.8082 95.9709 59.5045 91.16 57V57Z" fill="url(#paint39_linear_7_9)"/>
  <path d="M97.28 64.1C94.2965 62.8908 91.5067 61.2499 89 59.23C88.4548 59.7189 87.8767 60.1699 87.27 60.58C90.0459 62.8739 93.1592 64.7257 96.5 66.07C100.699 67.7623 105.183 68.6347 109.71 68.64C112.82 68.629 115.914 68.2019 118.91 67.37C119.34 66.53 119.75 65.67 120.13 64.8C116.774 65.9259 113.259 66.5033 109.72 66.51C105.457 66.5098 101.234 65.6917 97.28 64.1V64.1Z" fill="url(#paint40_linear_7_9)"/>
  <path d="M73.34 62.94C72.6416 62.7544 71.9539 62.5307 71.28 62.27C70.705 67.8197 71.4437 73.4268 73.4362 78.6383C75.4287 83.8498 78.6192 88.5195 82.75 92.27C83.68 92.17 84.6 92.03 85.52 91.88C81.2555 88.4391 77.9107 83.9945 75.7851 78.944C73.6595 73.8935 72.8194 68.3948 73.34 62.94V62.94Z" fill="url(#paint41_linear_7_9)"/>
  <path d="M52.43 42.38C54.4938 41.9891 56.5895 41.7916 58.69 41.79C59.47 41.79 60.25 41.86 61.04 41.92C61.2232 41.2022 61.4537 40.4973 61.73 39.81C60.73 39.72 59.67 39.67 58.65 39.67C56.4183 39.6665 54.1914 39.8774 52 40.3C44.0928 41.7997 36.9385 45.9644 31.73 52.1C31.85 53.0667 32 54.0267 32.18 54.98C37.1291 48.4089 44.3484 43.9168 52.43 42.38V42.38Z" fill="url(#paint42_linear_7_9)"/>
  <path d="M56.9 61.74C58.595 59.272 60.613 57.0422 62.9 55.11C62.5293 54.4833 62.1954 53.8355 61.9 53.17C57.5721 56.7276 54.155 61.2661 51.9323 66.4088C49.7097 71.5514 48.7456 77.1501 49.12 82.74C49.87 83.33 50.63 83.9 51.42 84.44C50.4292 76.4589 52.3771 68.39 56.9 61.74V61.74Z" fill="url(#paint43_linear_7_9)"/>
  <path d="M60.49 45.65C60.5139 44.9196 60.5841 44.1915 60.7 43.47C55.1101 44.1658 49.7685 46.1916 45.1229 49.3774C40.4773 52.5632 36.6631 56.8162 34 61.78C34.32 62.68 34.66 63.57 35 64.44C37.3712 59.4499 40.9391 55.1233 45.3862 51.8451C49.8333 48.5669 55.0218 46.4388 60.49 45.65V45.65Z" fill="url(#paint44_linear_7_9)"/>
  <path d="M60.68 48.94C60.5674 48.2216 60.5006 47.4968 60.48 46.77C55.144 48.5155 50.2972 51.4996 46.3361 55.4781C42.3749 59.4566 39.4121 64.3165 37.69 69.66C38.17 70.48 38.69 71.28 39.19 72.07C40.5958 66.7457 43.292 61.8498 47.0403 57.8155C50.7885 53.7812 55.4732 50.7328 60.68 48.94V48.94Z" fill="url(#paint45_linear_7_9)"/>
  <path d="M70.35 61.85C69.6913 61.5416 69.0533 61.1909 68.44 60.8C66.8321 66.1529 66.5094 71.8096 67.4981 77.3106C68.4867 82.8116 70.7589 88.0019 74.13 92.46C75.06 92.53 75.99 92.57 76.94 92.59C73.4151 88.3937 70.9716 83.398 69.8228 78.0394C68.6741 72.6808 68.8551 67.1225 70.35 61.85V61.85Z" fill="url(#paint46_linear_7_9)"/>
  <path d="M67.55 60.2C66.9611 59.7692 66.3999 59.3016 65.87 58.8C63.2832 63.7614 61.9033 69.2632 61.8425 74.8581C61.7817 80.4531 63.0416 85.9835 65.52 91C66.42 91.2533 67.33 91.4733 68.25 91.66C65.5633 86.8753 64.0943 81.5034 63.9722 76.0174C63.8502 70.5314 65.0788 65.0995 67.55 60.2V60.2Z" fill="url(#paint47_linear_7_9)"/>
  <path d="M65.12 58.05C64.6278 57.527 64.1701 56.9725 63.75 56.39C61.6296 59.0349 59.908 61.9761 58.64 65.12C55.7007 72.4001 55.2818 80.4543 57.45 88C58.3 88.41 59.17 88.79 60.04 89.15C57.4196 81.5986 57.6221 73.3537 60.61 65.94C61.7372 63.1122 63.2553 60.4563 65.12 58.05V58.05Z" fill="url(#paint48_linear_7_9)"/>
  <path d="M117.34 8.92001C118.61 8.92001 119.64 7.89026 119.64 6.62001C119.64 5.34975 118.61 4.32001 117.34 4.32001C116.07 4.32001 115.04 5.34975 115.04 6.62001C115.04 7.89026 116.07 8.92001 117.34 8.92001Z" fill="url(#paint49_linear_7_9)"/>
  <path d="M38.04 88.22C39.3103 88.22 40.34 87.1903 40.34 85.92C40.34 84.6497 39.3103 83.62 38.04 83.62C36.7697 83.62 35.74 84.6497 35.74 85.92C35.74 87.1903 36.7697 88.22 38.04 88.22Z" fill="url(#paint50_linear_7_9)"/>
</g>
<defs>
<linearGradient id="paint0_linear_7_9" x1="-15.47" y1="173.64" x2="239.17" y2="86.45" gradientUnits="userSpaceOnUse">
<stop offset="1" stop-color="#54A433"/>
<stop offset="1" stop-color="#D6E6C0"/>
</linearGradient>
<linearGradient id="paint1_linear_7_9" x1="-208.485" y1="745.445" x2="1223.97" y2="-1333.44" gradientUnits="userSpaceOnUse">
<stop offset="1" stop-color="#54A433"/>
<stop offset="1" stop-color="#D6E6C0"/>
</linearGradient>
<linearGradient id="paint2_linear_7_9" x1="3.53355" y1="3299.04" x2="1189.27" y2="3212.65" gradientUnits="userSpaceOnUse">
<stop offset="1" stop-color="#54A433"/>
<stop offset="1" stop-color="#D6E6C0"/>
</linearGradient>
<linearGradient id="paint3_linear_7_9" x1="-139.056" y1="679.962" x2="1384.33" y2="-682.789" gradientUnits="userSpaceOnUse">
<stop offset="1" stop-color="#54A433"/>
<stop offset="1" stop-color="#D6E6C0"/>
</linearGradient>
<linearGradient id="paint4_linear_7_9" x1="-198.132" y1="2972.13" x2="3153.87" y2="2192.32" gradientUnits="userSpaceOnUse">
<stop offset="1" stop-color="#54A433"/>
<stop offset="1" stop-color="#D6E6C0"/>
</linearGradient>
<linearGradient id="paint5_linear_7_9" x1="-434.136" y1="3264.45" x2="4857.28" y2="1452.64" gradientUnits="userSpaceOnUse">
<stop offset="1" stop-color="#54A433"/>
<stop offset="1" stop-color="#D6E6C0"/>
</linearGradient>
<linearGradient id="paint6_linear_7_9" x1="-302.504" y1="631.763" x2="1230.08" y2="-940.928" gradientUnits="userSpaceOnUse">
<stop offset="1" stop-color="#54A433"/>
<stop offset="1" stop-color="#D6E6C0"/>
</linearGradient>
<linearGradient id="paint7_linear_7_9" x1="-127.041" y1="1156.03" x2="1027.76" y2="948.674" gradientUnits="userSpaceOnUse">
<stop offset="1" stop-color="#54A433"/>
<stop offset="1" stop-color="#D6E6C0"/>
</linearGradient>
<linearGradient id="paint8_linear_7_9" x1="-112.041" y1="1252.7" x2="1042.85" y2="1045.59" gradientUnits="userSpaceOnUse">
<stop offset="1" stop-color="#54A433"/>
<stop offset="1" stop-color="#D6E6C0"/>
</linearGradient>
<linearGradient id="paint9_linear_7_9" x1="-100.071" y1="2864.88" x2="1085.66" y2="2778.48" gradientUnits="userSpaceOnUse">
<stop offset="1" stop-color="#54A433"/>
<stop offset="1" stop-color="#D6E6C0"/>
</linearGradient>
<linearGradient id="paint10_linear_7_9" x1="15.9565" y1="3349.39" x2="1201.69" y2="3262.95" gradientUnits="userSpaceOnUse">
<stop offset="1" stop-color="#54A433"/>
<stop offset="1" stop-color="#D6E6C0"/>
</linearGradient>
<linearGradient id="paint11_linear_7_9" x1="80.7335" y1="3620.98" x2="1266.46" y2="3534.54" gradientUnits="userSpaceOnUse">
<stop offset="1" stop-color="#54A433"/>
<stop offset="1" stop-color="#D6E6C0"/>
</linearGradient>
<linearGradient id="paint12_linear_7_9" x1="-45.1641" y1="1847.7" x2="2997.73" y2="491.636" gradientUnits="userSpaceOnUse">
<stop offset="1" stop-color="#54A433"/>
<stop offset="1" stop-color="#D6E6C0"/>
</linearGradient>
<linearGradient id="paint13_linear_7_9" x1="-2.48792" y1="1951.32" x2="3037.8" y2="596.109" gradientUnits="userSpaceOnUse">
<stop offset="1" stop-color="#54A433"/>
<stop offset="1" stop-color="#D6E6C0"/>
</linearGradient>
<linearGradient id="paint14_linear_7_9" x1="-123.849" y1="2643.38" x2="3104.92" y2="1754.14" gradientUnits="userSpaceOnUse">
<stop offset="1" stop-color="#54A433"/>
<stop offset="1" stop-color="#D6E6C0"/>
</linearGradient>
<linearGradient id="paint15_linear_7_9" x1="35.2944" y1="3432.15" x2="1221.03" y2="3345.75" gradientUnits="userSpaceOnUse">
<stop offset="1" stop-color="#54A433"/>
<stop offset="1" stop-color="#D6E6C0"/>
</linearGradient>
<linearGradient id="paint16_linear_7_9" x1="-431.198" y1="3109.33" x2="4217.04" y2="1751.07" gradientUnits="userSpaceOnUse">
<stop offset="1" stop-color="#54A433"/>
<stop offset="1" stop-color="#D6E6C0"/>
</linearGradient>
<linearGradient id="paint17_linear_7_9" x1="265.92" y1="1578.4" x2="3673.37" y2="-1787.12" gradientUnits="userSpaceOnUse">
<stop offset="1" stop-color="#54A433"/>
<stop offset="1" stop-color="#D6E6C0"/>
</linearGradient>
<linearGradient id="paint18_linear_7_9" x1="264.154" y1="1259.48" x2="2861.6" y2="-2361.65" gradientUnits="userSpaceOnUse">
<stop offset="1" stop-color="#54A433"/>
<stop offset="1" stop-color="#D6E6C0"/>
</linearGradient>
<linearGradient id="paint19_linear_7_9" x1="267.335" y1="1890.3" x2="4008.26" y2="-705.747" gradientUnits="userSpaceOnUse">
<stop offset="1" stop-color="#54A433"/>
<stop offset="1" stop-color="#D6E6C0"/>
</linearGradient>
<linearGradient id="paint20_linear_7_9" x1="297.069" y1="616.285" x2="1005.18" y2="-1751.39" gradientUnits="userSpaceOnUse">
<stop offset="1" stop-color="#54A433"/>
<stop offset="1" stop-color="#D6E6C0"/>
</linearGradient>
<linearGradient id="paint21_linear_7_9" x1="269.756" y1="929.267" x2="1850.21" y2="-2322.66" gradientUnits="userSpaceOnUse">
<stop offset="1" stop-color="#54A433"/>
<stop offset="1" stop-color="#D6E6C0"/>
</linearGradient>
<linearGradient id="paint22_linear_7_9" x1="343.23" y1="515.66" x2="810.98" y2="-1437.04" gradientUnits="userSpaceOnUse">
<stop offset="1" stop-color="#54A433"/>
<stop offset="1" stop-color="#D6E6C0"/>
</linearGradient>
<linearGradient id="paint23_linear_7_9" x1="258.082" y1="2212.17" x2="3602.61" y2="721.174" gradientUnits="userSpaceOnUse">
<stop offset="1" stop-color="#54A433"/>
<stop offset="1" stop-color="#D6E6C0"/>
</linearGradient>
<linearGradient id="paint24_linear_7_9" x1="213.792" y1="2673" x2="1952.22" y2="2358.34" gradientUnits="userSpaceOnUse">
<stop offset="1" stop-color="#54A433"/>
<stop offset="1" stop-color="#D6E6C0"/>
</linearGradient>
<linearGradient id="paint25_linear_7_9" x1="914.252" y1="2518.06" x2="4581.4" y2="-467.538" gradientUnits="userSpaceOnUse">
<stop offset="1" stop-color="#54A433"/>
<stop offset="1" stop-color="#D6E6C0"/>
</linearGradient>
<linearGradient id="paint26_linear_7_9" x1="672.832" y1="2731.43" x2="4391.57" y2="591.368" gradientUnits="userSpaceOnUse">
<stop offset="1" stop-color="#54A433"/>
<stop offset="1" stop-color="#D6E6C0"/>
</linearGradient>
<linearGradient id="paint27_linear_7_9" x1="1143.6" y1="2147.44" x2="4162.81" y2="-1358.36" gradientUnits="userSpaceOnUse">
<stop offset="1" stop-color="#54A433"/>
<stop offset="1" stop-color="#D6E6C0"/>
</linearGradient>
<linearGradient id="paint28_linear_7_9" x1="240.352" y1="2455.9" x2="2821.05" y2="1699.99" gradientUnits="userSpaceOnUse">
<stop offset="1" stop-color="#54A433"/>
<stop offset="1" stop-color="#D6E6C0"/>
</linearGradient>
<linearGradient id="paint29_linear_7_9" x1="1355.59" y1="1594.77" x2="3185.66" y2="-1741.08" gradientUnits="userSpaceOnUse">
<stop offset="1" stop-color="#54A433"/>
<stop offset="1" stop-color="#D6E6C0"/>
</linearGradient>
<linearGradient id="paint30_linear_7_9" x1="400.559" y1="807.636" x2="1459.06" y2="-1958.51" gradientUnits="userSpaceOnUse">
<stop offset="1" stop-color="#54A433"/>
<stop offset="1" stop-color="#D6E6C0"/>
</linearGradient>
<linearGradient id="paint31_linear_7_9" x1="289.229" y1="2798.81" x2="2517.36" y2="2267.24" gradientUnits="userSpaceOnUse">
<stop offset="1" stop-color="#54A433"/>
<stop offset="1" stop-color="#D6E6C0"/>
</linearGradient>
<linearGradient id="paint32_linear_7_9" x1="462.165" y1="2826.32" x2="3639.86" y2="1588.9" gradientUnits="userSpaceOnUse">
<stop offset="1" stop-color="#54A433"/>
<stop offset="1" stop-color="#D6E6C0"/>
</linearGradient>
<linearGradient id="paint33_linear_7_9" x1="518.131" y1="2581.01" x2="4176.01" y2="503.034" gradientUnits="userSpaceOnUse">
<stop offset="1" stop-color="#54A433"/>
<stop offset="1" stop-color="#D6E6C0"/>
</linearGradient>
<linearGradient id="paint34_linear_7_9" x1="994.828" y1="3053.49" x2="4658.99" y2="647.928" gradientUnits="userSpaceOnUse">
<stop offset="1" stop-color="#54A433"/>
<stop offset="1" stop-color="#D6E6C0"/>
</linearGradient>
<linearGradient id="paint35_linear_7_9" x1="1439.94" y1="2237.36" x2="4184.7" y2="-1331.85" gradientUnits="userSpaceOnUse">
<stop offset="1" stop-color="#54A433"/>
<stop offset="1" stop-color="#D6E6C0"/>
</linearGradient>
<linearGradient id="paint36_linear_7_9" x1="1239.75" y1="2695.26" x2="4693.65" y2="-505.407" gradientUnits="userSpaceOnUse">
<stop offset="1" stop-color="#54A433"/>
<stop offset="1" stop-color="#D6E6C0"/>
</linearGradient>
<linearGradient id="paint37_linear_7_9" x1="1577.65" y1="1692.75" x2="3329.23" y2="-1636.47" gradientUnits="userSpaceOnUse">
<stop offset="1" stop-color="#54A433"/>
<stop offset="1" stop-color="#D6E6C0"/>
</linearGradient>
<linearGradient id="paint38_linear_7_9" x1="1506.61" y1="1142.59" x2="2445.54" y2="-1496.14" gradientUnits="userSpaceOnUse">
<stop offset="1" stop-color="#54A433"/>
<stop offset="1" stop-color="#D6E6C0"/>
</linearGradient>
<linearGradient id="paint39_linear_7_9" x1="1618.29" y1="761.266" x2="2006.8" y2="-1026.77" gradientUnits="userSpaceOnUse">
<stop offset="1" stop-color="#54A433"/>
<stop offset="1" stop-color="#D6E6C0"/>
</linearGradient>
<linearGradient id="paint40_linear_7_9" x1="1645.16" y1="1121.15" x2="2465.9" y2="-1394.9" gradientUnits="userSpaceOnUse">
<stop offset="1" stop-color="#54A433"/>
<stop offset="1" stop-color="#D6E6C0"/>
</linearGradient>
<linearGradient id="paint41_linear_7_9" x1="694.007" y1="3302.87" x2="3874.38" y2="1959.97" gradientUnits="userSpaceOnUse">
<stop offset="1" stop-color="#54A433"/>
<stop offset="1" stop-color="#D6E6C0"/>
</linearGradient>
<linearGradient id="paint42_linear_7_9" x1="457.73" y1="1188.23" x2="2425.41" y2="-2196.84" gradientUnits="userSpaceOnUse">
<stop offset="1" stop-color="#54A433"/>
<stop offset="1" stop-color="#D6E6C0"/>
</linearGradient>
<linearGradient id="paint43_linear_7_9" x1="459.123" y1="2947.52" x2="3585.27" y2="1731.11" gradientUnits="userSpaceOnUse">
<stop offset="1" stop-color="#54A433"/>
<stop offset="1" stop-color="#D6E6C0"/>
</linearGradient>
<linearGradient id="paint44_linear_7_9" x1="495.643" y1="1690.45" x2="3577.99" y2="-1755.4" gradientUnits="userSpaceOnUse">
<stop offset="1" stop-color="#54A433"/>
<stop offset="1" stop-color="#D6E6C0"/>
</linearGradient>
<linearGradient id="paint45_linear_7_9" x1="521.17" y1="2141.61" x2="4169.65" y2="-769.104" gradientUnits="userSpaceOnUse">
<stop offset="1" stop-color="#54A433"/>
<stop offset="1" stop-color="#D6E6C0"/>
</linearGradient>
<linearGradient id="paint46_linear_7_9" x1="471.933" y1="3397.48" x2="2885.43" y2="2730.78" gradientUnits="userSpaceOnUse">
<stop offset="1" stop-color="#54A433"/>
<stop offset="1" stop-color="#D6E6C0"/>
</linearGradient>
<linearGradient id="paint47_linear_7_9" x1="300.983" y1="3388.83" x2="1918.16" y2="3111.89" gradientUnits="userSpaceOnUse">
<stop offset="1" stop-color="#54A433"/>
<stop offset="1" stop-color="#D6E6C0"/>
</linearGradient>
<linearGradient id="paint48_linear_7_9" x1="361.922" y1="3246.89" x2="2579.02" y2="2709.89" gradientUnits="userSpaceOnUse">
<stop offset="1" stop-color="#54A433"/>
<stop offset="1" stop-color="#D6E6C0"/>
</linearGradient>
<linearGradient id="paint49_linear_7_9" x1="230.868" y1="406.958" x2="905.504" y2="-185.338" gradientUnits="userSpaceOnUse">
<stop offset="1" stop-color="#54A433"/>
<stop offset="1" stop-color="#D6E6C0"/>
</linearGradient>
<linearGradient id="paint50_linear_7_9" x1="173.648" y1="511.42" x2="848.284" y2="-80.922" gradientUnits="userSpaceOnUse">
<stop offset="1" stop-color="#54A433"/>
<stop offset="1" stop-color="#D6E6C0"/>
</linearGradient>
</defs>
</svg>
