<?xml version="1.0" standalone="no"?>
<!DOCTYPE svg PUBLIC "-//W3C//DTD SVG 20010904//EN"
 "http://www.w3.org/TR/2001/REC-SVG-20010904/DTD/svg10.dtd">
<svg version="1.0" xmlns="http://www.w3.org/2000/svg"
 width="700.000000pt" height="700.000000pt" viewBox="0 0 700.000000 700.000000"
 preserveAspectRatio="xMidYMid meet">
<metadata>
Created by potrace 1.14, written by Peter Selinger 2001-2017
</metadata>
<g transform="translate(0.000000,700.000000) scale(0.100000,-0.100000)"
fill="#000000" stroke="none">
<path d="M3626 6934 c223 -264 389 -571 490 -907 26 -89 72 -296 80 -367 3
-25 9 -76 14 -115 9 -78 6 -403 -5 -480 -13 -105 -48 -283 -67 -349 -21 -75
-23 -71 37 -103 17 -9 42 -25 57 -36 30 -22 36 -21 43 9 2 11 11 44 19 74 8
30 18 69 21 85 19 98 35 193 40 238 4 29 8 70 11 92 9 71 11 357 3 450 -41
507 -217 978 -517 1387 -56 76 -58 77 -102 79 -25 0 -75 2 -112 4 l-67 3 55
-64z"/>
<path d="M2991 6963 c-47 -7 -86 -15 -88 -17 -3 -2 29 -30 69 -62 97 -77 287
-268 372 -374 148 -186 291 -431 375 -644 29 -73 86 -245 95 -287 3 -13 10
-42 16 -64 43 -171 64 -369 63 -602 l0 -172 41 -14 c22 -8 57 -22 77 -30 l35
-16 4 52 c10 148 0 522 -14 546 -2 3 -7 33 -10 66 -15 149 -101 452 -182 642
-90 211 -231 446 -380 633 -104 131 -339 360 -366 358 -13 -1 -61 -8 -107 -15z"/>
<path d="M4250 6914 c0 -4 12 -28 28 -53 120 -200 237 -532 287 -817 36 -208
41 -546 9 -754 -25 -170 -64 -332 -115 -477 -34 -98 -107 -271 -122 -291 -8
-10 6 -29 52 -73 l62 -60 54 114 c96 202 161 404 210 657 52 264 52 664 0 955
-37 205 -122 464 -219 667 l-45 95 -83 17 c-46 10 -91 20 -100 22 -10 3 -18 2
-18 -2z"/>
<path d="M2286 6784 c-141 -49 -140 -41 -18 -104 229 -120 421 -260 602 -440
150 -149 203 -210 292 -337 181 -256 346 -620 402 -888 3 -11 12 -56 21 -100
9 -44 18 -89 20 -101 3 -16 13 -21 37 -22 18 -1 54 -5 81 -10 l47 -9 -5 51
c-3 28 -8 58 -10 66 -2 8 -7 31 -10 50 -3 19 -20 89 -37 155 -17 66 -33 130
-35 143 -3 12 -9 25 -14 28 -5 3 -9 13 -9 23 0 42 -136 348 -218 491 -182 317
-465 629 -768 846 -96 69 -286 184 -300 183 -5 0 -40 -11 -78 -25z"/>
<path d="M4880 6712 c0 -4 9 -34 20 -66 37 -105 79 -283 101 -428 29 -193 31
-595 4 -698 -2 -8 -7 -35 -10 -60 -11 -80 -55 -263 -86 -360 -81 -249 -192
-472 -342 -684 -27 -37 -51 -74 -53 -81 -3 -7 16 -41 42 -75 54 -71 44 -74
128 44 157 221 273 444 363 701 13 39 26 77 28 85 2 8 15 58 29 110 25 96 39
167 61 305 28 182 28 533 0 725 -11 74 -47 248 -67 321 -15 56 -26 80 -42 87
-115 55 -176 80 -176 74z"/>
<path d="M6457 6665 c-156 -40 -178 -247 -33 -322 41 -21 120 -18 160 6 48 30
68 56 81 108 33 129 -79 241 -208 208z"/>
<path d="M1655 6475 c-54 -33 -83 -56 -74 -59 7 -3 63 -19 123 -36 389 -112
756 -331 1057 -630 248 -248 424 -510 555 -830 46 -113 53 -125 75 -123 13 1
50 3 82 4 35 1 57 6 57 14 0 23 -93 244 -154 366 -278 552 -749 997 -1316
1242 -121 52 -274 107 -299 107 -9 0 -57 -25 -106 -55z"/>
<path d="M5547 6294 c16 -108 9 -508 -12 -629 -41 -237 -78 -378 -147 -554
-130 -334 -307 -601 -575 -868 l-152 -153 32 -70 32 -70 80 68 c202 173 360
352 495 558 191 294 323 633 385 994 29 172 36 263 35 455 -1 88 -1 166 -2
173 -1 12 -93 90 -151 127 l-28 18 8 -49z"/>
<path d="M1184 6127 c-6 -6 -39 -38 -74 -70 -34 -32 -61 -59 -59 -61 2 -2 40
-6 84 -10 99 -8 145 -14 211 -27 28 -5 64 -12 80 -15 123 -22 318 -83 469
-147 464 -196 853 -518 1123 -927 42 -63 79 -119 82 -123 4 -4 39 1 78 12 39
10 73 17 76 13 19 -18 1 29 -31 82 -135 227 -363 494 -568 666 -27 23 -61 52
-75 63 -14 12 -86 63 -162 113 -312 209 -685 360 -1035 419 -143 23 -187 26
-199 12z"/>
<path d="M6040 5875 c-1 -45 -10 -111 -36 -270 -28 -170 -116 -431 -214 -630
-129 -263 -267 -460 -469 -665 -162 -165 -322 -292 -509 -404 -42 -26 -61 -43
-58 -52 3 -8 11 -44 18 -79 6 -36 15 -65 18 -65 4 0 55 29 113 63 679 408
1143 1091 1270 1867 3 14 8 43 11 65 7 39 5 42 -68 120 -73 78 -75 79 -76 50z"/>
<path d="M778 5662 c-31 -3 -42 -11 -79 -60 -23 -31 -54 -72 -68 -91 l-25 -33
54 6 c132 15 163 17 295 18 172 2 252 -5 450 -38 246 -41 517 -135 755 -261
89 -47 293 -178 346 -222 17 -14 53 -44 80 -66 27 -22 102 -92 168 -156 l118
-117 67 31 c36 17 68 32 70 33 13 11 -214 245 -329 339 -428 350 -926 555
-1480 611 -69 7 -361 11 -422 6z"/>
<path d="M6441 5308 c-8 -29 -32 -102 -54 -163 -247 -681 -800 -1238 -1467
-1480 -58 -21 -109 -42 -114 -47 -6 -4 -10 -42 -10 -83 -1 -90 -5 -88 125 -41
158 56 393 165 468 215 14 10 73 49 131 87 455 299 811 746 1010 1271 l43 113
-51 87 c-28 48 -54 89 -59 90 -5 2 -15 -20 -22 -49z"/>
<path d="M929 5125 c-2 -2 -31 -5 -64 -8 -131 -12 -357 -56 -458 -89 l-69 -23
-39 -87 c-21 -49 -39 -92 -39 -97 0 -5 39 4 87 20 130 44 269 77 443 104 135
20 183 23 370 20 118 -2 229 -6 245 -9 17 -3 66 -10 110 -16 338 -48 696 -188
1011 -394 l110 -73 30 26 c16 14 45 38 64 53 32 24 33 27 15 34 -11 4 -22 10
-25 14 -25 32 -247 168 -396 243 -258 131 -599 235 -854 263 -30 3 -66 8 -80
11 -28 6 -456 14 -461 8z"/>
<path d="M6711 4675 c-168 -314 -420 -599 -746 -843 -84 -62 -283 -176 -423
-240 -183 -85 -492 -174 -682 -197 -30 -4 -57 -9 -59 -11 -2 -2 -8 -28 -12
-57 -4 -28 -11 -65 -14 -80 l-6 -28 58 5 c154 15 411 77 583 139 581 213 1055
597 1373 1115 l57 92 -26 78 c-48 140 -43 139 -103 27z"/>
<path d="M1190 4697 c-3 -3 -39 -7 -80 -11 -273 -23 -559 -99 -825 -219 -187
-84 -170 -70 -189 -154 -23 -93 -29 -133 -21 -133 3 0 23 11 43 24 214 135
638 282 897 311 33 4 71 9 85 12 45 9 433 11 505 3 39 -5 93 -11 120 -15 28
-3 58 -8 67 -11 19 -6 41 -10 89 -18 113 -18 338 -90 484 -153 l100 -43 52 58
c29 31 52 60 53 63 0 7 -124 65 -232 108 -159 63 -405 128 -575 152 -43 6 -89
13 -103 15 -36 6 -465 16 -470 11z"/>
<path d="M1668 4316 c-1 -2 -66 -6 -143 -10 -77 -3 -156 -8 -175 -11 -241 -38
-345 -62 -505 -114 -280 -91 -520 -215 -757 -389 l-87 -64 0 -111 c0 -103 1
-109 17 -95 199 174 447 330 684 431 177 76 448 153 603 172 28 4 57 8 65 10
63 16 389 23 505 11 33 -4 85 -9 115 -12 45 -5 219 -37 328 -61 12 -3 22 -1
22 5 0 5 16 38 35 71 l34 62 -23 9 c-42 16 -244 56 -331 66 -27 3 -56 7 -63
10 -8 2 -78 7 -155 10 -78 3 -147 7 -154 9 -6 2 -13 2 -15 1z"/>
<path d="M6898 3992 c-310 -379 -791 -681 -1293 -812 -44 -11 -93 -23 -110
-25 -16 -3 -52 -10 -80 -15 -58 -11 -127 -19 -240 -29 -77 -7 -385 -7 -414 0
-9 3 -25 -22 -46 -73 l-33 -77 67 -7 c151 -17 463 -9 621 17 36 6 74 12 85 14
149 22 399 97 572 171 98 42 283 136 325 165 14 11 29 19 32 19 8 0 171 115
246 173 95 75 114 91 233 209 l109 106 -6 74 c-4 40 -10 90 -14 110 l-7 38
-47 -58z"/>
<path d="M1869 3996 c-2 -2 -34 -6 -72 -10 -147 -13 -366 -56 -512 -102 -438
-136 -821 -370 -1136 -693 l-121 -123 6 -42 c15 -109 18 -128 25 -153 l7 -27
38 50 c99 131 296 323 439 429 34 25 69 52 78 59 46 37 226 143 342 199 178
87 375 158 532 192 11 3 34 8 50 11 17 4 37 8 45 9 14 2 115 18 190 30 19 4
131 8 249 11 118 2 216 6 219 8 2 2 5 10 6 18 1 7 10 37 20 66 10 29 15 56 12
60 -7 6 -410 14 -417 8z"/>
<path d="M2209 3716 c-2 -2 -22 -6 -44 -9 -789 -112 -1507 -596 -1913 -1289
l-51 -87 36 -96 c19 -52 38 -95 42 -95 3 0 26 39 51 87 199 383 522 729 900
965 267 167 619 300 934 352 37 7 39 9 43 54 2 20 5 56 7 80 4 41 3 46 -5 38z"/>
<path d="M2105 3429 c-44 -16 -93 -35 -110 -41 -105 -40 -308 -151 -467 -254
-202 -132 -467 -382 -620 -586 -189 -250 -289 -436 -419 -779 -5 -14 -6 -34
-2 -45 11 -27 97 -163 103 -164 3 0 14 30 24 68 73 261 232 572 418 819 65 86
300 334 369 390 256 204 446 318 710 422 l105 42 -6 47 c-3 26 -5 62 -5 80 0
17 -4 32 -10 31 -5 0 -46 -14 -90 -30z"/>
<path d="M6930 3334 c-107 -88 -297 -207 -455 -285 -268 -132 -565 -218 -850
-246 -147 -15 -565 -6 -595 12 -3 2 -33 7 -65 10 -33 4 -63 9 -66 11 -3 2 -19
6 -35 9 -16 3 -69 15 -119 28 l-90 23 -42 -70 c-33 -55 -39 -72 -29 -78 35
-19 296 -80 401 -94 22 -3 49 -7 61 -9 39 -8 218 -19 314 -19 102 0 329 12
339 18 3 2 29 6 58 10 360 43 847 240 1156 468 53 39 67 56 68 76 0 15 3 62 5
105 3 42 4 77 2 77 -2 -1 -28 -21 -58 -46z"/>
<path d="M2130 3148 c-405 -244 -763 -630 -984 -1060 -98 -191 -202 -473 -232
-633 -10 -50 -9 -44 -17 -80 -9 -42 -16 -82 -23 -137 -6 -46 -6 -46 61 -117
37 -39 71 -71 75 -71 4 0 10 35 14 77 51 561 340 1151 763 1553 110 105 228
199 369 292 l122 81 -10 31 c-6 17 -15 50 -21 74 -6 23 -15 42 -21 42 -6 0
-49 -24 -96 -52z"/>
<path d="M2270 2948 c-84 -75 -210 -200 -270 -268 -36 -41 -67 -77 -70 -80
-35 -33 -186 -255 -246 -362 -172 -307 -300 -698 -329 -1008 -4 -41 -9 -91
-11 -110 -7 -58 -6 -348 1 -367 6 -18 155 -133 166 -127 3 1 2 29 -2 61 -8 61
-5 480 4 523 3 14 8 43 11 65 13 95 19 126 42 225 115 493 387 950 773 1294
l43 38 -37 74 c-20 41 -37 74 -38 74 -1 0 -18 -15 -37 -32z"/>
<path d="M2378 2643 c-235 -322 -406 -723 -468 -1098 -6 -38 -13 -83 -16 -100
-21 -121 -28 -553 -11 -635 3 -14 8 -52 12 -85 11 -104 68 -362 83 -376 10 -9
171 -79 182 -79 5 0 0 25 -10 55 -43 125 -89 345 -107 505 -10 94 -10 411 0
508 44 420 208 856 449 1189 l59 82 -47 58 c-26 32 -50 59 -54 61 -4 2 -37
-37 -72 -85z"/>
<path d="M6865 2697 c-67 -38 -264 -123 -361 -156 -82 -28 -267 -78 -319 -86
-11 -2 -47 -8 -80 -14 -59 -10 -91 -14 -210 -26 -69 -7 -331 -8 -390 -1 -22 2
-71 7 -110 11 -225 22 -534 109 -772 220 l-102 47 -33 -37 c-18 -21 -41 -47
-50 -58 -10 -11 -18 -23 -18 -27 0 -15 238 -122 393 -176 173 -60 393 -111
557 -129 36 -4 79 -9 95 -11 59 -7 381 -7 455 0 256 24 548 94 770 186 152 63
169 72 180 104 14 46 41 168 38 172 -2 2 -22 -7 -43 -19z"/>
<path d="M2588 2513 c-119 -267 -160 -381 -204 -559 -30 -125 -32 -134 -39
-189 -3 -22 -8 -47 -10 -55 -2 -8 -7 -46 -11 -85 -3 -38 -8 -79 -10 -90 -6
-27 -6 -366 0 -435 6 -79 22 -203 32 -255 2 -11 7 -33 9 -50 27 -149 130 -467
198 -605 32 -65 32 -65 94 -81 33 -10 79 -20 101 -24 l40 -6 -48 93 c-89 173
-163 377 -209 581 -29 127 -34 157 -46 257 -17 136 -22 369 -10 505 23 285
110 615 222 853 19 39 33 76 31 81 -3 7 -114 101 -120 101 -2 0 -11 -17 -20
-37z"/>
<path d="M4293 2472 c-34 -26 -62 -49 -62 -52 0 -7 87 -74 173 -133 228 -158
483 -281 749 -361 274 -83 504 -115 802 -110 110 1 211 5 225 7 14 3 52 8 85
12 49 5 172 28 326 61 22 5 34 22 68 95 22 48 41 92 41 97 0 5 -44 -4 -97 -20
-54 -15 -111 -31 -128 -34 -16 -3 -61 -11 -100 -19 -156 -31 -303 -42 -500
-39 -147 2 -265 12 -341 28 -12 2 -37 7 -55 10 -274 43 -587 161 -846 317 -93
56 -249 165 -259 180 -9 14 -16 11 -81 -39z"/>
<path d="M2786 2341 c-24 -87 -53 -219 -65 -296 -6 -38 -13 -86 -17 -105 -13
-78 -13 -505 1 -615 61 -472 223 -896 476 -1248 l52 -74 106 -2 106 -2 -26 28
c-115 126 -283 407 -376 633 -65 155 -137 409 -158 555 -4 28 -9 61 -11 75
-13 88 -19 186 -18 330 0 144 10 335 19 350 2 3 6 27 9 54 4 28 14 82 22 120
9 39 17 78 19 87 2 9 8 33 14 53 8 32 7 38 -7 44 -9 3 -42 20 -73 38 l-57 32
-16 -57z"/>
<path d="M4062 2333 l-72 -35 47 -57 c79 -94 219 -238 293 -301 14 -12 36 -30
48 -41 119 -102 356 -256 521 -338 227 -114 541 -214 776 -247 28 -3 59 -8 70
-10 48 -9 211 -18 335 -18 l134 -1 62 80 62 80 -232 0 c-265 0 -308 4 -521 46
-464 93 -912 332 -1257 671 -52 51 -116 118 -143 149 l-50 57 -73 -35z"/>
<path d="M3018 2278 c-19 -53 -14 -455 8 -613 67 -489 256 -935 558 -1320 78
-99 79 -101 208 -232 82 -83 95 -92 122 -89 196 25 189 19 109 86 -103 87
-258 254 -355 385 -208 278 -344 562 -428 895 -59 235 -76 389 -73 665 l1 190
-57 17 c-31 9 -64 20 -73 23 -8 3 -18 0 -20 -7z"/>
<path d="M3838 2246 l-78 -21 49 -88 c197 -351 512 -683 867 -914 220 -144
476 -260 719 -329 88 -24 258 -62 310 -68 l50 -7 73 67 c40 37 70 70 65 74 -4
4 -34 10 -66 14 -157 16 -444 89 -611 156 -327 129 -621 323 -861 565 -165
166 -256 280 -370 465 -32 52 -61 98 -64 101 -3 3 -41 -3 -83 -15z"/>
<path d="M3286 2187 c22 -175 50 -306 100 -467 194 -623 598 -1147 1155 -1498
l67 -42 88 31 c49 17 93 34 97 39 5 4 -27 27 -70 50 -315 173 -608 435 -830
745 -147 205 -282 479 -357 725 -32 105 -73 288 -82 361 -3 30 -10 58 -14 62
-4 5 -25 11 -46 13 -22 2 -55 6 -76 9 -36 5 -36 5 -32 -28z"/>
<path d="M3548 2202 l-27 -3 15 -52 c9 -29 36 -104 61 -167 137 -346 324 -632
588 -896 203 -204 452 -383 700 -504 142 -69 292 -130 319 -130 8 0 52 22 96
49 93 56 94 52 -25 91 -444 144 -829 414 -1172 822 -33 40 -126 175 -173 252
-88 146 -214 422 -235 516 -7 30 -7 31 -63 28 -32 -2 -69 -4 -84 -6z"/>
<path d="M430 658 c-137 -69 -127 -259 16 -314 140 -53 278 89 220 227 -26 63
-97 109 -165 109 -15 0 -47 -10 -71 -22z"/>
</g>
</svg>
