<svg width="76" height="76" viewBox="0 0 76 76" fill="none" xmlns="http://www.w3.org/2000/svg">
<path d="M37.6835 53.4865C31.651 53.4865 26.743 58.3944 26.743 64.4269C26.743 70.4593 31.651 75.3673 37.6835 75.3673C43.7159 75.3673 48.6239 70.4593 48.6239 64.4269C48.6239 58.3944 43.7159 53.4865 37.6835 53.4865ZM33.0338 71.5533C33.6416 69.5324 35.5258 68.0737 37.6835 68.0737C39.8412 68.0737 41.7253 69.5324 42.3331 71.5533C40.996 72.4346 39.4005 72.9361 37.6835 72.9361C35.9664 72.9361 34.3709 72.4194 33.0338 71.5533ZM35.2523 63.2113C35.2523 61.8741 36.3463 60.7801 37.6835 60.7801C39.0206 60.7801 40.1147 61.8741 40.1147 63.2113C40.1147 64.5484 39.0206 65.6425 37.6835 65.6425C36.3463 65.6425 35.2523 64.5484 35.2523 63.2113ZM44.2477 69.8363C43.5791 68.4535 42.5155 67.3139 41.1783 66.5694C42.014 65.7032 42.5459 64.518 42.5459 63.2113C42.5459 60.5369 40.3578 58.3489 37.6835 58.3489C35.0091 58.3489 32.8211 60.5369 32.8211 63.2113C32.8211 64.518 33.3377 65.6881 34.1886 66.5694C32.8514 67.2987 31.7878 68.4384 31.1192 69.8363C29.9036 68.3624 29.1742 66.4782 29.1742 64.4269C29.1742 59.7316 32.9882 55.9177 37.6835 55.9177C42.3787 55.9177 46.1927 59.7316 46.1927 64.4269C46.1927 66.4782 45.4633 68.3624 44.2477 69.8363Z" fill="#343534"/>
<path d="M37.6837 0C31.6512 0 26.7432 4.90799 26.7432 10.9404C26.7432 12.3536 27.0167 13.7059 27.5182 14.9519C26.8952 14.7392 26.2266 14.5872 25.5276 14.5872C23.5219 14.5872 21.8808 16.2283 21.8808 18.234V21.2426C21.8808 23.4611 20.6956 25.558 18.7962 26.6977C17.0032 27.7765 15.6357 29.4631 14.9823 31.4537L14.9519 31.5449L0 30.2837V51.0553H37.6837C39.6894 51.0553 41.3305 49.4142 41.3305 47.4085C41.3305 46.9222 41.2393 46.4664 41.0569 46.0561C42.6068 45.6306 43.7617 44.2327 43.7617 42.5461C43.7617 41.604 43.397 40.7682 42.8196 40.1149C43.397 39.4615 43.7617 38.6257 43.7617 37.6837C43.7617 36.7416 43.397 35.9058 42.8196 35.2524C43.397 34.5991 43.7617 33.7633 43.7617 32.8212C43.7617 30.8155 42.1206 29.1744 40.1149 29.1744H34.0368C32.6997 29.1744 31.6056 28.0804 31.6056 26.7432V20.6652C31.6056 20.4373 31.5601 20.2094 31.5297 19.9815C33.2923 21.1819 35.4044 21.8808 37.6837 21.8808C43.7161 21.8808 48.6241 16.9728 48.6241 10.9404C48.6241 4.90799 43.7161 0 37.6837 0ZM14.5872 48.6241H2.4312V32.9276L14.5872 33.9457V48.6241ZM34.0368 31.6056H40.1149C40.7834 31.6056 41.3305 32.1527 41.3305 32.8212C41.3305 33.4898 40.7834 34.0368 40.1149 34.0368H31.6056V36.4681H40.1149C40.7834 36.4681 41.3305 37.0151 41.3305 37.6837C41.3305 38.3522 40.7834 38.8993 40.1149 38.8993H31.6056V41.3305H40.1149C40.7834 41.3305 41.3305 41.8775 41.3305 42.5461C41.3305 43.2146 40.7834 43.7617 40.1149 43.7617H31.6056V46.1929H37.6837C38.3522 46.1929 38.8993 46.7399 38.8993 47.4085C38.8993 48.077 38.3522 48.6241 37.6837 48.6241H17.0184V33.0188L17.2919 32.2134C17.7782 30.7699 18.7507 29.5543 20.0574 28.7794C22.671 27.1991 24.312 24.312 24.312 21.2426V18.234C24.312 17.5654 24.8591 17.0184 25.5276 17.0184C27.5334 17.0184 29.1744 18.6595 29.1744 20.6652V26.7432C29.1744 29.4176 31.3625 31.6056 34.0368 31.6056ZM37.6837 19.4496C32.9884 19.4496 29.1744 15.6357 29.1744 10.9404C29.1744 6.24515 32.9884 2.4312 37.6837 2.4312C42.3789 2.4312 46.1929 6.24515 46.1929 10.9404C46.1929 15.6357 42.3789 19.4496 37.6837 19.4496Z" fill="#343534"/>
<path d="M64.4269 26.7434C58.3944 26.7434 53.4865 31.6514 53.4865 37.6838C53.4865 43.7162 58.3944 48.6242 64.4269 48.6242C70.4593 48.6242 75.3673 43.7162 75.3673 37.6838C75.3673 31.6514 70.4593 26.7434 64.4269 26.7434ZM64.4269 46.193C59.7316 46.193 55.9177 42.3791 55.9177 37.6838C55.9177 32.9886 59.7316 29.1746 64.4269 29.1746C69.1221 29.1746 72.9361 32.9886 72.9361 37.6838C72.9361 42.3791 69.1221 46.193 64.4269 46.193Z" fill="#343534"/>
<path d="M68.0736 34.0369V38.8993H65.6424V31.6057H63.2112V38.8993H60.78V36.4681H58.3488V41.3305H70.5048V34.0369H68.0736Z" fill="#185908"/>
<path d="M36.4679 9.72491H38.8991V12.1561H36.4679V9.72491Z" fill="#185908"/>
<path d="M41.3304 9.72491H43.7616V12.1561H41.3304V9.72491Z" fill="#185908"/>
<path d="M31.6056 9.72491H34.0368V12.1561H31.6056V9.72491Z" fill="#185908"/>
<path d="M63.3936 21.3034L65.0194 23.8866L66.8276 14.8152L64.442 14.3441L63.7886 17.6111C60.6433 13.4476 56.7077 10.3478 51.5566 7.93182L50.5234 10.1351C56.1911 12.779 60.2786 16.3347 63.3936 21.3034Z" fill="#185908"/>
<path d="M7.93176 23.7955L10.135 24.8288C12.779 19.1762 16.3194 15.104 21.3034 11.9738L23.8865 10.3479L14.8151 8.53973L14.3441 10.9254L17.611 11.5787C13.4476 14.7089 10.3326 18.6596 7.93176 23.7955Z" fill="#185908"/>
<path d="M11.9736 54.064L10.3477 51.4809L8.53949 60.5523L10.9251 61.0234L11.5785 57.7564C14.7239 61.9199 18.6594 65.0197 23.8105 67.4357L24.8437 65.2324C19.176 62.5885 15.0885 59.0328 11.9736 54.064Z" fill="#185908"/>
<path d="M67.4354 51.572L65.2321 50.5388C62.5882 56.1913 59.0477 60.2636 54.0637 63.3937L51.4806 65.0196L60.552 66.8278L61.0231 64.4422L57.7561 63.7888C61.9196 60.6586 65.0346 56.7079 67.4354 51.572Z" fill="#185908"/>
</svg>
