<svg width="91" height="92" viewBox="0 0 91 92" fill="none" xmlns="http://www.w3.org/2000/svg">
<path d="M56.0119 37.6015L42.4645 50.3963L35.9731 43.7166C35.258 42.9828 34.0727 42.964 33.32 43.679C32.5862 44.394 32.5674 45.5794 33.2824 46.332L41.0721 54.3288C41.7871 55.0626 42.9725 55.0814 43.7252 54.3852L58.6273 40.3298C58.9848 39.9911 59.1918 39.5207 59.2106 39.0127C59.2294 38.5235 59.0413 38.0343 58.7026 37.6768C57.9688 36.9241 56.7645 36.8865 56.0119 37.6015Z" fill="#343534"/>
<path d="M45.9644 17.9201C30.4789 17.9201 17.91 30.5079 17.91 45.9745C17.91 61.4599 30.4978 74.0289 45.9644 74.0289C61.4498 74.0289 74.0188 61.4411 74.0188 45.9745C74.0188 30.5079 61.431 17.9201 45.9644 17.9201ZM45.9644 70.2846C32.5487 70.2846 21.6543 59.3714 21.6543 45.9745C21.6543 32.5776 32.5487 21.6833 45.9644 21.6833C59.3801 21.6833 70.2744 32.5588 70.2744 45.9933C70.2744 59.4278 59.3801 70.2846 45.9644 70.2846Z" fill="#185908"/>
<path d="M84.5744 35.6446L85.1953 24.5056C85.233 23.753 84.8378 23.0568 84.1605 22.7181L74.2445 17.6943L69.2395 7.79718C68.9008 7.13863 68.2046 6.72468 67.452 6.76231L56.2942 7.36442L46.9992 1.21165C46.3783 0.797697 45.5692 0.797697 44.9295 1.21165L35.6345 7.3456L24.4955 6.7435C23.7429 6.70587 23.0467 7.101 22.708 7.77837L17.6842 17.6943L7.76822 22.7181C7.10967 23.0568 6.69572 23.753 6.73335 24.5056L7.35427 35.6446L1.22031 44.9208C0.806364 45.5417 0.806364 46.3508 1.22031 46.9905L7.33546 56.3044L6.71453 67.4434C6.6769 68.196 7.07203 68.8922 7.7494 69.2309L17.6653 74.2547L22.6892 84.1706C23.0279 84.8292 23.724 85.2431 24.4767 85.2055L35.6156 84.5846L44.9107 90.7185C45.5316 91.1513 46.3595 91.1513 46.9804 90.7185L56.2754 84.5846L67.4144 85.2055C68.167 85.2431 68.8632 84.848 69.2019 84.1706L74.2257 74.2547L84.1417 69.2309C84.8002 68.8922 85.2142 68.196 85.1765 67.4434L84.5556 56.3044L90.6896 47.0094C91.1035 46.3884 91.1035 45.5605 90.6896 44.9396L84.5744 35.6446ZM81.0747 54.7615C80.8489 55.1002 80.736 55.4953 80.7736 55.9092L81.3569 66.4461L71.9866 71.1877C71.6291 71.3759 71.3469 71.6581 71.1587 72.0156L66.4171 81.3859L55.8803 80.8026C55.4851 80.7838 55.0712 80.8967 54.7325 81.1036L45.9643 86.8989L37.1774 81.1036C36.8763 80.8967 36.5188 80.7838 36.1425 80.7838H36.0484L25.5115 81.3671L20.77 71.9968C20.5818 71.6393 20.2996 71.357 19.9421 71.1689L10.553 66.4461L11.1363 55.9092C11.1551 55.5141 11.0422 55.1002 10.8352 54.7615L5.03992 45.9745L10.8352 37.1875C11.061 36.8488 11.1739 36.4537 11.1363 36.0397L10.553 25.5029L19.9232 20.7613C20.2807 20.5731 20.563 20.2909 20.7511 19.9334L25.4927 10.5631L36.0296 11.1464C36.4247 11.1652 36.8387 11.0523 37.1774 10.8453L45.9643 5.05007L54.7513 10.8642C55.09 11.09 55.4851 11.2028 55.8991 11.1652L66.436 10.5819L71.1775 19.9522C71.3657 20.3097 71.6479 20.5919 72.0054 20.7801L81.3757 25.5217L80.7924 36.0586C80.7736 36.4537 80.8865 36.8676 81.0935 37.2063L86.8888 45.9933L81.0747 54.7615Z" fill="#343534"/>
</svg>
