<svg width="157" height="40" viewBox="0 0 157 40" fill="none" xmlns="http://www.w3.org/2000/svg">
<path d="M131.12 15.59C130.214 16.497 129.059 17.115 127.802 17.365C126.545 17.616 125.242 17.488 124.057 16.997C122.873 16.507 121.861 15.676 121.148 14.611C120.436 13.545 120.056 12.292 120.056 11.01C120.056 9.728 120.436 8.475 121.148 7.409C121.861 6.344 122.873 5.513 124.057 5.023C125.242 4.532 126.545 4.404 127.802 4.655C129.059 4.905 130.214 5.523 131.12 6.43L133.89 3.66C132.437 2.208 130.585 1.219 128.57 0.818999C126.555 0.418999 124.466 0.625001 122.568 1.412C120.67 2.198 119.048 3.53 117.907 5.239C116.765 6.947 116.156 8.955 116.156 11.01C116.156 13.065 116.765 15.073 117.907 16.781C119.048 18.49 120.67 19.822 122.568 20.608C124.466 21.395 126.555 21.601 128.57 21.201C130.585 20.801 132.437 19.812 133.89 18.36L131.12 15.59Z" fill="url(#paint0_linear_9_124)"/>
<path d="M87.58 17.17H71.94V20.86H87.58V17.17Z" fill="url(#paint1_linear_9_124)"/>
<path d="M89.68 1.17H85.49V20.86H89.68V1.17Z" fill="url(#paint2_linear_9_124)"/>
<path d="M87.58 1.17H77.94V4.86H87.58V1.17Z" fill="url(#paint3_linear_9_124)"/>
<path d="M76.16 1.17C76.1536 4.02 75.3699 6.813 73.8932 9.25C72.4165 11.687 70.3029 13.675 67.78 15V19.43C69.251 18.842 70.6446 18.076 71.93 17.15C74.4842 15.336 76.5675 12.937 78.0061 10.153C79.4447 7.37 80.1969 4.283 80.2 1.15L76.16 1.17Z" fill="url(#paint4_linear_9_124)"/>
<path d="M54.57 0.620004C52.5163 0.628004 50.5111 1.244 48.8075 2.391C47.104 3.538 45.7785 5.164 44.9985 7.064C44.2185 8.964 44.0191 11.052 44.4253 13.065C44.8315 15.078 45.8252 16.926 47.2808 18.374C48.7365 19.823 50.5888 20.808 52.6038 21.204C54.6188 21.601 56.7062 21.391 58.6022 20.602C60.4982 19.813 62.1179 18.48 63.2566 16.771C64.3953 15.062 65.002 13.054 65 11C64.9987 9.633 64.7277 8.28 64.2024 7.018C63.6772 5.756 62.9081 4.61 61.9392 3.645C60.9703 2.681 59.8206 1.918 58.5561 1.398C57.2915 0.879004 55.937 0.615004 54.57 0.620004ZM54.57 17.49C53.2888 17.49 52.0364 17.11 50.9709 16.399C49.9055 15.687 49.075 14.676 48.5842 13.492C48.0935 12.309 47.9646 11.006 48.2138 9.749C48.463 8.493 49.0792 7.338 49.9844 6.431C50.8897 5.525 52.0434 4.907 53.2997 4.656C54.556 4.405 55.8586 4.531 57.0429 5.02C58.2271 5.509 59.2398 6.338 59.9531 7.403C60.6663 8.467 61.048 9.719 61.05 11C61.0513 11.852 60.8847 12.696 60.5596 13.483C60.2346 14.27 59.7574 14.986 59.1556 15.589C58.5537 16.191 57.8389 16.67 57.0521 16.996C56.2653 17.322 55.4218 17.49 54.57 17.49Z" fill="url(#paint5_linear_9_124)"/>
<path d="M15.25 9.17H4.19V12.86H15.25V9.17Z" fill="url(#paint6_linear_9_124)"/>
<path d="M4.19 1.17H0V9.16H4.19V1.17Z" fill="url(#paint7_linear_9_124)"/>
<path d="M4.19 12.86H0V20.86H4.19V12.86Z" fill="url(#paint8_linear_9_124)"/>
<path d="M17.71 1.17H13.52V20.86H17.71V1.17Z" fill="url(#paint9_linear_9_124)"/>
<path d="M98.29 1.18H94.1V20.86H98.29V1.18Z" fill="url(#paint10_linear_9_124)"/>
<path d="M143.29 1.18H139.1V20.86H143.29V1.18Z" fill="url(#paint11_linear_9_124)"/>
<path d="M150.18 1.18L143.29 8.07L146.25 11.03L156.11 1.18H150.18Z" fill="url(#paint12_linear_9_124)"/>
<path d="M156.1 20.86L146.25 11.02L143.29 13.98L150.17 20.86H156.1Z" fill="url(#paint13_linear_9_124)"/>
<path d="M95.32 15.64L98.29 18.61L107.53 9.36V3.43L95.32 15.64Z" fill="url(#paint14_linear_9_124)"/>
<path d="M107.53 1.17V3.43C107.53 5.43 107.53 7.38 107.53 9.36V20.86H111.72V1.17H107.53Z" fill="url(#paint15_linear_9_124)"/>
<path d="M29.79 0.760002C28.4278 0.752002 27.0774 1.013 25.8162 1.528C24.555 2.043 23.4077 2.801 22.44 3.76L25.21 6.53C25.9904 5.744 26.9604 5.172 28.0263 4.87C29.0923 4.568 30.2181 4.546 31.2949 4.807C32.3717 5.067 33.3631 5.601 34.1734 6.357C34.9836 7.112 35.5852 8.064 35.92 9.12H25.34V12.81H36C35.7064 13.904 35.1296 14.902 34.3277 15.703C33.5258 16.504 32.5271 17.079 31.4322 17.371C30.3373 17.663 29.1848 17.661 28.0907 17.366C26.9966 17.071 25.9996 16.493 25.2 15.69L22.43 18.46C23.6384 19.667 25.1258 20.558 26.7606 21.054C28.3954 21.549 30.1271 21.634 31.8024 21.3C33.4777 20.966 35.0449 20.225 36.3653 19.141C37.6857 18.058 38.7186 16.665 39.3724 15.087C40.0263 13.509 40.2809 11.794 40.1139 10.094C39.9468 8.394 39.3632 6.761 38.4146 5.341C37.4661 3.92 36.182 2.755 34.6759 1.949C33.1698 1.143 31.4882 0.721001 29.78 0.720001L29.79 0.760002Z" fill="url(#paint16_linear_9_124)"/>
<path d="M37.0011 29.451V36.62H35.7753V29.451H37.0011ZM36.5836 32.744V33.751C36.3363 33.844 36.0845 33.928 35.8283 34.003C35.5765 34.073 35.3092 34.131 35.0265 34.175C34.7482 34.215 34.4456 34.235 34.1188 34.235C33.5533 34.235 33.063 34.137 32.6478 33.943C32.2326 33.744 31.9123 33.446 31.687 33.049C31.4617 32.647 31.3491 32.141 31.3491 31.531V29.437H32.5749V31.531C32.5749 31.929 32.6345 32.251 32.7538 32.499C32.8731 32.746 33.0476 32.929 33.2773 33.049C33.507 33.163 33.7875 33.221 34.1188 33.221C34.4368 33.221 34.735 33.201 35.0133 33.161C35.296 33.117 35.5654 33.06 35.8216 32.989C36.0823 32.918 36.3363 32.837 36.5836 32.744ZM40.3008 34.679L43.6072 29.451H44.8396V36.62H43.6072V31.392L40.3008 36.62H39.0816V29.451H40.3008V34.679ZM49.6766 35.745C49.9681 35.745 50.2376 35.686 50.4849 35.566C50.7323 35.447 50.9355 35.284 51.0945 35.076C51.2535 34.864 51.3441 34.623 51.3662 34.354H52.5324C52.5103 34.778 52.3667 35.173 52.1017 35.54C51.841 35.902 51.4987 36.196 51.0746 36.421C50.6506 36.642 50.1845 36.753 49.6766 36.753C49.1376 36.753 48.6672 36.658 48.2652 36.468C47.8677 36.278 47.5364 36.017 47.2713 35.686C47.0107 35.354 46.8141 34.975 46.6816 34.546C46.5535 34.113 46.4895 33.656 46.4895 33.174V32.896C46.4895 32.415 46.5535 31.96 46.6816 31.531C46.8141 31.098 47.0107 30.716 47.2713 30.385C47.5364 30.054 47.8677 29.793 48.2652 29.603C48.6672 29.413 49.1376 29.318 49.6766 29.318C50.2376 29.318 50.7279 29.433 51.1475 29.663C51.5672 29.888 51.8963 30.197 52.1348 30.59C52.3777 30.979 52.5103 31.421 52.5324 31.916H51.3662C51.3441 31.62 51.2602 31.352 51.1144 31.114C50.973 30.875 50.7787 30.685 50.5313 30.544C50.2884 30.398 50.0034 30.325 49.6766 30.325C49.3011 30.325 48.9852 30.4 48.729 30.551C48.4773 30.696 48.2763 30.895 48.1261 31.147C47.9803 31.394 47.8743 31.67 47.808 31.975C47.7462 32.276 47.7153 32.583 47.7153 32.896V33.174C47.7153 33.488 47.7462 33.797 47.808 34.102C47.8699 34.407 47.9737 34.683 48.1195 34.93C48.2696 35.178 48.4706 35.377 48.7224 35.527C48.9786 35.672 49.2967 35.745 49.6766 35.745ZM56.8326 29.451V36.62H55.6002V29.451H56.8326ZM59.2378 29.451V30.445H53.2413V29.451H59.2378ZM61.4509 31.916H63.6044C64.183 31.916 64.6711 32.017 65.0687 32.22C65.4663 32.419 65.7666 32.695 65.9698 33.049C66.1774 33.398 66.2813 33.795 66.2813 34.241C66.2813 34.573 66.2238 34.884 66.109 35.176C65.9941 35.463 65.8219 35.714 65.5922 35.931C65.3669 36.147 65.0864 36.317 64.7507 36.441C64.4194 36.56 64.0373 36.62 63.6044 36.62H60.5564V29.451H61.7822V35.613H63.6044C63.9577 35.613 64.2405 35.549 64.4525 35.421C64.6645 35.293 64.8169 35.127 64.9097 34.924C65.0024 34.721 65.0488 34.509 65.0488 34.288C65.0488 34.071 65.0024 33.859 64.9097 33.652C64.8169 33.444 64.6645 33.272 64.4525 33.135C64.2405 32.993 63.9577 32.923 63.6044 32.923H61.4509V31.916ZM68.8323 29.451V36.62H67.6064V29.451H68.8323ZM72.3043 34.679L75.6106 29.451H76.8431V36.62H75.6106V31.392L72.3043 36.62H71.0851V29.451H72.3043V34.679ZM74.9414 26.853H75.9353C75.9353 27.198 75.8558 27.505 75.6968 27.774C75.5377 28.039 75.3103 28.247 75.0143 28.397C74.7183 28.547 74.3672 28.622 73.9608 28.622C73.3468 28.622 72.8608 28.459 72.503 28.132C72.1497 27.801 71.973 27.375 71.973 26.853H72.9669C72.9669 27.114 73.042 27.344 73.1921 27.542C73.3423 27.741 73.5985 27.841 73.9608 27.841C74.3141 27.841 74.5659 27.741 74.7161 27.542C74.8663 27.344 74.9414 27.114 74.9414 26.853ZM86.8085 29.451V30.464H83.4955V36.62H82.2697V29.451H86.8085ZM87.4181 33.115V32.962C87.4181 32.446 87.4932 31.966 87.6434 31.525C87.7936 31.078 88.01 30.692 88.2927 30.365C88.5755 30.034 88.9178 29.778 89.3198 29.596C89.7217 29.411 90.1723 29.318 90.6715 29.318C91.175 29.318 91.6278 29.411 92.0298 29.596C92.4362 29.778 92.7807 30.034 93.0635 30.365C93.3506 30.692 93.5692 31.078 93.7194 31.525C93.8696 31.966 93.9447 32.446 93.9447 32.962V33.115C93.9447 33.632 93.8696 34.111 93.7194 34.553C93.5692 34.994 93.3506 35.381 93.0635 35.712C92.7807 36.039 92.4384 36.295 92.0364 36.481C91.6389 36.662 91.1883 36.753 90.6847 36.753C90.1812 36.753 89.7284 36.662 89.3264 36.481C88.9244 36.295 88.5799 36.039 88.2927 35.712C88.01 35.381 87.7936 34.994 87.6434 34.553C87.4932 34.111 87.4181 33.632 87.4181 33.115ZM88.6439 32.962V33.115C88.6439 33.473 88.6859 33.811 88.7698 34.129C88.8537 34.442 88.9796 34.721 89.1475 34.964C89.3198 35.206 89.534 35.399 89.7902 35.54C90.0464 35.677 90.3446 35.745 90.6847 35.745C91.0204 35.745 91.3142 35.677 91.566 35.54C91.8222 35.399 92.0342 35.206 92.2021 34.964C92.3699 34.721 92.4958 34.442 92.5798 34.129C92.6681 33.811 92.7123 33.473 92.7123 33.115V32.962C92.7123 32.609 92.6681 32.276 92.5798 31.962C92.4958 31.644 92.3677 31.363 92.1954 31.12C92.0276 30.873 91.8156 30.679 91.5594 30.537C91.3076 30.396 91.0116 30.325 90.6715 30.325C90.3358 30.325 90.0398 30.396 89.7836 30.537C89.5318 30.679 89.3198 30.873 89.1475 31.12C88.9796 31.363 88.8537 31.644 88.7698 31.962C88.6859 32.276 88.6439 32.609 88.6439 32.962ZM96.7077 30.829V39.376H95.4753V29.451H96.6017L96.7077 30.829ZM101.538 32.976V33.115C101.538 33.636 101.476 34.12 101.353 34.566C101.229 35.008 101.048 35.392 100.809 35.719C100.575 36.046 100.286 36.3 99.9412 36.481C99.5967 36.662 99.2013 36.753 98.7552 36.753C98.3002 36.753 97.8982 36.677 97.5492 36.527C97.2003 36.377 96.9043 36.158 96.6614 35.871C96.4184 35.584 96.224 35.24 96.0783 34.838C95.9369 34.436 95.8397 33.983 95.7867 33.479V32.737C95.8397 32.207 95.9391 31.732 96.0849 31.313C96.2307 30.893 96.4228 30.535 96.6614 30.239C96.9043 29.939 97.1981 29.711 97.5426 29.557C97.8872 29.398 98.2847 29.318 98.7353 29.318C99.1859 29.318 99.5856 29.407 99.9346 29.583C100.284 29.755 100.577 30.003 100.816 30.325C101.054 30.648 101.233 31.034 101.353 31.485C101.476 31.931 101.538 32.428 101.538 32.976ZM100.306 33.115V32.976C100.306 32.618 100.268 32.282 100.193 31.969C100.118 31.651 100.001 31.372 99.8418 31.134C99.6872 30.891 99.4884 30.701 99.2455 30.564C99.0025 30.422 98.7132 30.352 98.3775 30.352C98.0683 30.352 97.7988 30.405 97.5691 30.511C97.3438 30.617 97.1517 30.76 96.9927 30.942C96.8336 31.118 96.7033 31.321 96.6017 31.551C96.5045 31.776 96.4317 32.011 96.3831 32.253V33.97C96.4714 34.279 96.5951 34.57 96.7541 34.844C96.9131 35.114 97.1252 35.332 97.3902 35.5C97.6553 35.664 97.9888 35.745 98.3907 35.745C98.722 35.745 99.007 35.677 99.2455 35.54C99.4884 35.399 99.6872 35.206 99.8418 34.964C100.001 34.721 100.118 34.442 100.193 34.129C100.268 33.811 100.306 33.473 100.306 33.115ZM102.777 33.115V32.962C102.777 32.446 102.852 31.966 103.002 31.525C103.153 31.078 103.369 30.692 103.652 30.365C103.934 30.034 104.277 29.778 104.679 29.596C105.081 29.411 105.531 29.318 106.03 29.318C106.534 29.318 106.987 29.411 107.389 29.596C107.795 29.778 108.14 30.034 108.422 30.365C108.71 30.692 108.928 31.078 109.078 31.525C109.229 31.966 109.304 32.446 109.304 32.962V33.115C109.304 33.632 109.229 34.111 109.078 34.553C108.928 34.994 108.71 35.381 108.422 35.712C108.14 36.039 107.797 36.295 107.395 36.481C106.998 36.662 106.547 36.753 106.044 36.753C105.54 36.753 105.087 36.662 104.685 36.481C104.283 36.295 103.939 36.039 103.652 35.712C103.369 35.381 103.153 34.994 103.002 34.553C102.852 34.111 102.777 33.632 102.777 33.115ZM104.003 32.962V33.115C104.003 33.473 104.045 33.811 104.129 34.129C104.213 34.442 104.339 34.721 104.507 34.964C104.679 35.206 104.893 35.399 105.149 35.54C105.405 35.677 105.704 35.745 106.044 35.745C106.379 35.745 106.673 35.677 106.925 35.54C107.181 35.399 107.393 35.206 107.561 34.964C107.729 34.721 107.855 34.442 107.939 34.129C108.027 33.811 108.071 33.473 108.071 33.115V32.962C108.071 32.609 108.027 32.276 107.939 31.962C107.855 31.644 107.727 31.363 107.554 31.12C107.387 30.873 107.175 30.679 106.918 30.537C106.667 30.396 106.371 30.325 106.03 30.325C105.695 30.325 105.399 30.396 105.143 30.537C104.891 30.679 104.679 30.873 104.507 31.12C104.339 31.363 104.213 31.644 104.129 31.962C104.045 32.276 104.003 32.609 104.003 32.962ZM111.656 29.451H112.882L112.776 32.134C112.749 32.814 112.672 33.402 112.544 33.897C112.416 34.391 112.252 34.813 112.053 35.162C111.855 35.507 111.632 35.796 111.384 36.03C111.141 36.264 110.89 36.461 110.629 36.62H110.019L110.052 35.619L110.304 35.613C110.45 35.441 110.591 35.264 110.728 35.083C110.865 34.897 110.991 34.679 111.106 34.427C111.221 34.171 111.316 33.859 111.391 33.493C111.47 33.121 111.521 32.669 111.543 32.134L111.656 29.451ZM111.961 29.451H116.274V36.62H115.048V30.584H111.961V29.451ZM109.741 35.613H117.195V38.734H115.969V36.62H110.967V38.734H109.734L109.741 35.613Z" fill="#54A433"/>
<defs>
<linearGradient id="paint0_linear_9_124" x1="-15.47" y1="59.64" x2="239.17" y2="-27.55" gradientUnits="userSpaceOnUse">
<stop offset="1" stop-color="#54A433"/>
<stop offset="1" stop-color="#D6E6C0"/>
</linearGradient>
<linearGradient id="paint1_linear_9_124" x1="-208.485" y1="631.445" x2="1223.97" y2="-1447.44" gradientUnits="userSpaceOnUse">
<stop offset="1" stop-color="#54A433"/>
<stop offset="1" stop-color="#D6E6C0"/>
</linearGradient>
<linearGradient id="paint2_linear_9_124" x1="3.53349" y1="3185.04" x2="1189.27" y2="3098.65" gradientUnits="userSpaceOnUse">
<stop offset="1" stop-color="#54A433"/>
<stop offset="1" stop-color="#D6E6C0"/>
</linearGradient>
<linearGradient id="paint3_linear_9_124" x1="-139.056" y1="565.962" x2="1384.33" y2="-796.788" gradientUnits="userSpaceOnUse">
<stop offset="1" stop-color="#54A433"/>
<stop offset="1" stop-color="#D6E6C0"/>
</linearGradient>
<linearGradient id="paint4_linear_9_124" x1="-198.132" y1="2858.13" x2="3153.87" y2="2078.32" gradientUnits="userSpaceOnUse">
<stop offset="1" stop-color="#54A433"/>
<stop offset="1" stop-color="#D6E6C0"/>
</linearGradient>
<linearGradient id="paint5_linear_9_124" x1="-434.136" y1="3150.45" x2="4857.28" y2="1338.64" gradientUnits="userSpaceOnUse">
<stop offset="1" stop-color="#54A433"/>
<stop offset="1" stop-color="#D6E6C0"/>
</linearGradient>
<linearGradient id="paint6_linear_9_124" x1="-302.504" y1="517.763" x2="1230.08" y2="-1054.93" gradientUnits="userSpaceOnUse">
<stop offset="1" stop-color="#54A433"/>
<stop offset="1" stop-color="#D6E6C0"/>
</linearGradient>
<linearGradient id="paint7_linear_9_124" x1="-127.041" y1="1042.03" x2="1027.76" y2="834.675" gradientUnits="userSpaceOnUse">
<stop offset="1" stop-color="#54A433"/>
<stop offset="1" stop-color="#D6E6C0"/>
</linearGradient>
<linearGradient id="paint8_linear_9_124" x1="-112.041" y1="1138.7" x2="1042.85" y2="931.59" gradientUnits="userSpaceOnUse">
<stop offset="1" stop-color="#54A433"/>
<stop offset="1" stop-color="#D6E6C0"/>
</linearGradient>
<linearGradient id="paint9_linear_9_124" x1="-100.071" y1="2750.88" x2="1085.66" y2="2664.48" gradientUnits="userSpaceOnUse">
<stop offset="1" stop-color="#54A433"/>
<stop offset="1" stop-color="#D6E6C0"/>
</linearGradient>
<linearGradient id="paint10_linear_9_124" x1="15.9564" y1="3235.39" x2="1201.69" y2="3148.95" gradientUnits="userSpaceOnUse">
<stop offset="1" stop-color="#54A433"/>
<stop offset="1" stop-color="#D6E6C0"/>
</linearGradient>
<linearGradient id="paint11_linear_9_124" x1="80.7337" y1="3506.98" x2="1266.46" y2="3420.54" gradientUnits="userSpaceOnUse">
<stop offset="1" stop-color="#54A433"/>
<stop offset="1" stop-color="#D6E6C0"/>
</linearGradient>
<linearGradient id="paint12_linear_9_124" x1="-45.1642" y1="1733.7" x2="2997.73" y2="377.634" gradientUnits="userSpaceOnUse">
<stop offset="1" stop-color="#54A433"/>
<stop offset="1" stop-color="#D6E6C0"/>
</linearGradient>
<linearGradient id="paint13_linear_9_124" x1="-2.48806" y1="1837.32" x2="3037.8" y2="482.108" gradientUnits="userSpaceOnUse">
<stop offset="1" stop-color="#54A433"/>
<stop offset="1" stop-color="#D6E6C0"/>
</linearGradient>
<linearGradient id="paint14_linear_9_124" x1="-123.849" y1="2529.38" x2="3104.92" y2="1640.14" gradientUnits="userSpaceOnUse">
<stop offset="1" stop-color="#54A433"/>
<stop offset="1" stop-color="#D6E6C0"/>
</linearGradient>
<linearGradient id="paint15_linear_9_124" x1="35.2944" y1="3318.15" x2="1221.03" y2="3231.75" gradientUnits="userSpaceOnUse">
<stop offset="1" stop-color="#54A433"/>
<stop offset="1" stop-color="#D6E6C0"/>
</linearGradient>
<linearGradient id="paint16_linear_9_124" x1="-431.198" y1="2995.33" x2="4217.04" y2="1637.07" gradientUnits="userSpaceOnUse">
<stop offset="1" stop-color="#54A433"/>
<stop offset="1" stop-color="#D6E6C0"/>
</linearGradient>
</defs>
</svg>
