<svg width="15" height="15" viewBox="0 0 15 15" fill="none" xmlns="http://www.w3.org/2000/svg">
<path d="M15 7.984C15.0018 6.37048 14.4463 4.80554 13.427 3.5523C12.4076 2.29905 10.9866 1.43392 9.40271 1.10235C7.81885 0.770782 6.16879 0.992998 4.72993 1.73164C3.29107 2.47028 2.15117 3.6803 1.50186 5.15826C0.852556 6.63623 0.733446 8.29201 1.16456 9.84723C1.59567 11.4024 2.55071 12.7623 3.86912 13.6981C5.18752 14.6338 6.78889 15.0885 8.404 14.9857C10.0191 14.8829 11.5494 14.2288 12.7377 13.1334H5.00064V6.95412L9.2669 10.4763L13.5228 6.88203V12.2477C14.4783 11.0304 14.9982 9.52968 15 7.984ZM6.16792 5.91394H12.3659L9.2669 8.54013L6.16792 5.91394Z" fill="url(#paint0_linear_16_10)"/>
<defs>
<linearGradient id="paint0_linear_16_10" x1="1.00297" y1="7.984" x2="15" y2="7.984" gradientUnits="userSpaceOnUse">
<stop offset="1" stop-color="#88BD4D"/>
<stop offset="1" stop-color="#D6E6C0"/>
</linearGradient>
</defs>
</svg>
