<svg width="19" height="19" viewBox="0 0 19 19" fill="none" xmlns="http://www.w3.org/2000/svg">
<path d="M9.21001 -1.09462e-06C6.87509 0.000156137 4.62757 0.888114 2.92305 2.48388C1.21852 4.07965 0.184518 6.26383 0.0306355 8.59368C-0.123247 10.9235 0.614505 13.2247 2.09435 15.0308C3.57419 16.8369 5.68539 18.0127 8.00001 18.32V7.22H10.54V18.31C12.85 17.9847 14.9501 16.7941 16.4155 14.979C17.8809 13.1639 18.602 10.86 18.433 8.53337C18.264 6.20674 17.2175 4.03119 15.5052 2.44693C13.7929 0.862683 11.5427 -0.011957 9.21001 -1.09462e-06V-1.09462e-06ZM10.29 5.73C10.1504 5.87494 9.98249 5.98967 9.79671 6.06708C9.61094 6.14448 9.41125 6.18292 9.21001 6.18C9.01029 6.18274 8.81215 6.14418 8.62802 6.06674C8.44389 5.98931 8.27775 5.87466 8.14001 5.73C7.9963 5.59153 7.88229 5.42525 7.80493 5.2413C7.72756 5.05734 7.68846 4.85956 7.69001 4.66C7.68745 4.46177 7.72613 4.26518 7.8036 4.0827C7.88107 3.90022 7.99563 3.73584 8.14001 3.6C8.27968 3.45856 8.4464 3.34671 8.63024 3.27111C8.81408 3.19552 9.01126 3.15773 9.21001 3.16C9.41029 3.15752 9.60904 3.19518 9.79453 3.27075C9.98001 3.34631 10.1485 3.45827 10.29 3.6C10.4312 3.7378 10.5429 3.90277 10.6185 4.08495C10.6942 4.26714 10.7321 4.46275 10.73 4.66C10.7312 4.8586 10.6929 5.05545 10.6173 5.23913C10.5418 5.42281 10.4305 5.58966 10.29 5.73V5.73Z" fill="#666666"/>
</svg>
