<svg width="14" height="14" viewBox="0 0 14 14" fill="none" xmlns="http://www.w3.org/2000/svg">
<path d="M13.55 6.78C13.5517 5.2133 13.014 3.69376 12.0272 2.47688C11.0404 1.25999 9.66475 0.419954 8.13148 0.0980051C6.5982 -0.223944 5.00084 -0.00817472 3.60793 0.709036C2.21503 1.42625 1.11153 2.60116 0.482962 4.03625C-0.145607 5.47134 -0.260912 7.07908 0.15643 8.58918C0.573773 10.0993 1.49831 11.4196 2.77461 12.3283C4.05091 13.2369 5.60114 13.6784 7.16466 13.5786C8.72818 13.4787 10.2097 12.8436 11.36 11.78H3.87V5.78L8 9.2L12.12 5.71V10.92C13.045 9.73806 13.5483 8.28085 13.55 6.78ZM5 4.77H11L8 7.32L5 4.77Z" fill="url(#paint0_linear_2_120)"/>
<defs>
<linearGradient id="paint0_linear_2_120" x1="2.895e-06" y1="6.78" x2="13.55" y2="6.78" gradientUnits="userSpaceOnUse">
<stop offset="1" stop-color="#88BD4D"/>
<stop offset="1" stop-color="#D6E6C0"/>
</linearGradient>
</defs>
</svg>
