<svg width="19" height="19" viewBox="0 0 19 19" fill="none" xmlns="http://www.w3.org/2000/svg">
<g clip-path="url(#clip0_2_135)">
<path d="M9.21 0C6.82307 0.00162621 4.53021 0.930884 2.81564 2.59152C1.10108 4.25216 0.0990469 6.51417 0.021169 8.89983C-0.056709 11.2855 0.795663 13.608 2.39827 15.377C4.00088 17.1459 6.22826 18.2227 8.61 18.38C7.34 16.21 4.49 11.08 4.49 9.05C4.49 7.79818 4.98729 6.59763 5.87246 5.71246C6.75763 4.82728 7.95818 4.33 9.21 4.33C10.4618 4.33 11.6624 4.82728 12.5475 5.71246C13.4327 6.59763 13.93 7.79818 13.93 9.05C13.93 11.05 11.07 16.21 9.8 18.38C12.1809 18.2228 14.4076 17.1467 16.0102 15.3789C17.6127 13.611 18.4657 11.2897 18.3892 8.90482C18.3126 6.51995 17.3125 4.25811 15.5999 2.59667C13.8872 0.93523 11.5961 0.00417237 9.21 0V0Z" fill="#666666"/>
<path d="M9.21001 11.05C10.3146 11.05 11.21 10.1546 11.21 9.05C11.21 7.94543 10.3146 7.05 9.21001 7.05C8.10544 7.05 7.21001 7.94543 7.21001 9.05C7.21001 10.1546 8.10544 11.05 9.21001 11.05Z" fill="#666666"/>
</g>
<defs>
<clipPath id="clip0_2_135">
<rect width="18.41" height="18.38" fill="white"/>
</clipPath>
</defs>
</svg>
